/* XPM */
static char *collectible1740383360[] = {
/* columns rows colors chars-per-pixel */
"48 48 249 2 ",
"   c #0B0000",
".  c #190803",
"X  c #151207",
"o  c #1A1718",
"O  c #290A07",
"+  c #3B0300",
"@  c #370A05",
"#  c #271202",
"$  c #38160B",
"%  c #391515",
"&  c #261214",
"*  c #2A201E",
"=  c #141D2B",
"-  c #181A2A",
";  c #1A1F33",
":  c #0E1C25",
">  c #251930",
",  c #14232D",
"<  c #1B232E",
"1  c #1C2434",
"2  c #1C2C34",
"3  c #1D2B3B",
"4  c #172634",
"5  c #1D313A",
"6  c #1A333B",
"7  c #0B242A",
"8  c #212534",
"9  c #222A35",
"0  c #232C3A",
"q  c #292E3B",
"w  c #25233C",
"e  c #23323B",
"r  c #29323D",
"t  c #31262E",
"y  c #430100",
"u  c #4B0200",
"i  c #440B06",
"p  c #5B0400",
"a  c #550B02",
"s  c #491608",
"d  c #5D1204",
"f  c #57160A",
"g  c #4A0C14",
"h  c #441814",
"j  c #561715",
"k  c #650500",
"l  c #6B0301",
"z  c #630B03",
"x  c #6B0B03",
"c  c #640B0C",
"v  c #720403",
"b  c #7C0001",
"n  c #750B06",
"m  c #661208",
"M  c #761405",
"N  c #641615",
"B  c #7E111B",
"V  c #482D32",
"C  c #1D3946",
"Z  c #292B42",
"A  c #382D46",
"S  c #2B3442",
"D  c #273845",
"F  c #323A45",
"G  c #373847",
"H  c #3C3651",
"J  c #443C51",
"K  c #38424D",
"L  c #2B4854",
"P  c #344B5B",
"I  c #3C4B5D",
"U  c #374554",
"Y  c #2F4955",
"T  c #395262",
"R  c #3A4F60",
"E  c #454957",
"W  c #4B535E",
"Q  c #485260",
"!  c #525A64",
"~  c #5B626A",
"^  c #5D6C7B",
"/  c #5A6975",
"(  c #59727B",
")  c #4A6F6E",
"_  c #626C77",
"`  c #636D7C",
"'  c #696F7D",
"]  c #666672",
"[  c #65737D",
"{  c #6A737D",
"}  c #657074",
"|  c #7F7370",
" . c #745B58",
".. c #830003",
"X. c #8D0001",
"o. c #8B090C",
"O. c #930001",
"+. c #9C0102",
"@. c #9B080E",
"#. c #87140B",
"$. c #9A0C11",
"%. c #AD0003",
"&. c #AB030D",
"*. c #A3050B",
"=. c #B40003",
"-. c #BB0004",
";. c #B3010A",
":. c #BB030B",
">. c #B1080D",
",. c #AC0611",
"<. c #BE0E11",
"1. c #811922",
"2. c #AC1123",
"3. c #C40001",
"4. c #CD0003",
"5. c #C60309",
"6. c #D7080C",
"7. c #D6180C",
"8. c #D70D12",
"9. c #DB1514",
"0. c #C7061B",
"q. c #EA050E",
"w. c #EE0414",
"e. c #E80917",
"r. c #F50415",
"t. c #E51316",
"y. c #F5000F",
"u. c #CD0F23",
"i. c #D3182B",
"p. c #E31526",
"a. c #F81029",
"s. c #C12818",
"d. c #847B74",
"f. c #FF5765",
"g. c #FF6969",
"h. c #FF756B",
"j. c #FF796C",
"k. c #F57D63",
"l. c #FF7675",
"z. c #F3755C",
"x. c #668077",
"c. c #878076",
"v. c #FF8573",
"b. c #FB876E",
"n. c #5B7382",
"m. c #656F81",
"M. c #657282",
"N. c #6A7484",
"B. c #6B7B8C",
"V. c #687A85",
"C. c #747A87",
"Z. c #C87B85",
"A. c #6F8088",
"S. c #7C8B97",
"D. c #79959B",
"F. c #739191",
"G. c #7DA49F",
"H. c #7B9DAD",
"J. c #7C9AA4",
"K. c #7A8FA2",
"L. c #7EA5A9",
"P. c #7DAAAC",
"I. c #7FA3A4",
"U. c #7EADB1",
"Y. c #558585",
"T. c #838B97",
"R. c #89969B",
"E. c #979799",
"W. c #968F8E",
"Q. c #AA8E92",
"!. c #A89A98",
"~. c #B29191",
"^. c #91A19E",
"/. c #A5A29D",
"(. c #849CA5",
"). c #8A9CA5",
"_. c #839DA9",
"`. c #8B9EAB",
"'. c #8794A0",
"]. c #939DAB",
"[. c #959AA9",
"{. c #8B9DB5",
"}. c #949EB1",
"|. c #9A9EB3",
" X c #8F8DA2",
".X c #A99DA2",
"XX c #85A3AC",
"oX c #8BA3AC",
"OX c #83AAAD",
"+X c #8DA9AF",
"@X c #83A5A1",
"#X c #92A3AD",
"$X c #9AA3AD",
"%X c #96A6A9",
"&X c #85A5B3",
"*X c #8CA5B2",
"=X c #84AAB2",
"-X c #8CAAB3",
";X c #8DA3BA",
":X c #8BACBC",
">X c #84ACBA",
",X c #93A5B3",
"<X c #9AA4B3",
"1X c #93AAB4",
"2X c #9BABB3",
"3X c #92A4BB",
"4X c #94ACBA",
"5X c #9BACBA",
"6X c #9BA5B9",
"7X c #84B2B4",
"8X c #8CB1B6",
"9X c #8BB5BA",
"0X c #95B2BC",
"qX c #99B3BD",
"wX c #99B6B6",
"eX c #A6A6A9",
"rX c #B4A7A8",
"tX c #A3A9B5",
"yX c #A4B3BC",
"uX c #A8B4B8",
"iX c #B7B1B0",
"pX c #CE8E94",
"aX c #C4A2AA",
"sX c #8DC1BF",
"dX c #98ACC4",
"fX c #99BAC7",
"gX c #96B8CA",
"hX c #AABCC4",
"jX c #ACBCCA",
"kX c #A4B6C3",
"lX c #B2BECB",
"zX c #B4BAC6",
"xX c #A7BBD3",
"cX c #AFC2CA",
"vX c #A5C0C9",
"bX c #B3C3CD",
"nX c #BAC2CE",
"mX c #B5C8CF",
"MX c #B4C5D1",
"NX c #BAC6D2",
"BX c #B5CAD2",
"VX c #BBCAD4",
"CX c #BDCDD9",
"ZX c #BCD1D8",
"AX c #A8C3D1",
"SX c #C1CBD6",
"DX c #C2CFDA",
"FX c #C7D3DE",
"GX c #CBD5E1",
/* pixels */
"r K r e K < 8 : = = 1 3 1 ; 4 1 - A H C C Z H t H A D D C 3 > > ; ; 1 3 1 1 ; = - 8 - 8 t r G G ",
"0 r F < 9 - 9 9 0 w 1 4 = , ; 1 H Z D C L 3 G G A A D C C C w > ; 1 ; ; ; ; 3 w ; 8 1 q r r G 8 ",
"E ! bXSXGXVXnXzXlXNXjX6X{.,X3X<X X1 C C OX-X}. X|.#X*X=X=X*X}.|.<X6X<X,X}.tXlXNXnXlXzXnXnXSXuX] ",
"K K nXnXnXNXNXSXVXCXlX,X_.}.,X`.tX3 C 7 L.XX}.kX<X6X-X7X7X1X<X|.}.,X}.}.}.5XlXDXFXNXSXSXnXnXnXK ",
"! K DXbXlXjXBXVXbXMXbX5X,X5X1X].tX; , 7 =XfX3X{.,X*X=XOXOXoX%X$X,X5X6X,X6X5XjXNXlXlXNXNXSXSXFXK ",
", : bXmXCXyX2XoXoX1X3XXX_.*X*X`.tX' S.n.*XJ.{.dXdX3X>X>X=X+X%X%X`.*XoX`.`.`.oX1X#X#X2X5XhXhXVXe ",
"e e NXmXVX).oXoXoX,X1X4X,X4X4X5X X] _ m.5X4XdX3X{.;X;X&X-XoX#X%X1X3X1X1X,X*X,X%X,X2XoX,XSXcXmX2 ",
", r mXmXZX(.+X1XXXXX*X-X*X`.`.;XeXC.~ B.3X3XdX{.3X;X;X*X1X+X+XoXXX`.*X*X*X1X+XoX#X#X).#XFXmXVX2 ",
"9 e VXmXBX(.XX+X0XXXXX0X1X*XV.V.V.-XR.5X/ V.n.XXdX{.:X_.0XD.fXOXXX4X4X4X-XXX_.5X+X@XoX1XcXZXcX6 ",
"2 2 VXmXZXoX+XOXJ.+X1X0X`._.( ( ) L.vXvXn.M.B.1X;X_.kX1X-XXXP.I.=X-XXX_.-X4X*XoXoXoX%X2XcXZXmXe ",
"< 2 cXcXmX+X+XOXXX0X-X*X`.*XM.B.Y.G.8XR.! } A.R.oXT.2X%XD.7XP.sX=XdX*X_.-X0X1XoX1X+X+X1XyXcXhXe ",
"r 2 2X2XwXXX+X+X-X0X(.XX*X3Xn.n.) 9XR.eXeX.X!.c.d.d.!.rX/.+XG.F.L.4X4X-X4X-XXX5X1X+X+X+X2XwX1X2 ",
"r < [.oXoXoX+X-XOXXX_.4X1X`./ / ) uX* % @ + i s i s g i V V ^.uX*X*X`.-X1XoXoXqX#X+X$XoXoX%XoX2 ",
"9 9 %X$XoX%X+X+XoXXX-X0X`.}.C.T.~ iXO f z M x x k #.n l m y Q.eXhX4X_.XX4X*XoX1XoXoX$X+X#XoX%X5 ",
"t q %X2X#X1XoX+X8XoX1X,XS.kX}.C.Q.pXz l b O.X.X.X.+.O.O.o.1.pXaX'.4X4X*X,X1XXXoX%XoX#X1X1X%X$X5 ",
"8 e [.tX).$XoX-X-XJ.-X,XS.zXT.t % N n $.%.8.7.7.7.7.6.p.u.,.1.i V T.uX#XXX=X1X-X2XoX#X$X$X#X#X3 ",
"0 F  X].<X<X*X-X&X;X4X5X.X.XQ.h y p #.+.4.r.r.q.t.t.q.w.e.u.v j g ~.rX].+X9X9XXX%X].%X[.$X[.[.A ",
"H U ].$X|.<X;X;XgX:XJ.#XQ.aX~.j p l o.*.4.r.r.q.4.7.8.a.a.p.O.b 1.Z.rXW.OXF.OXwX#X%X).%X<X#X|.H ",
"R Q |.$X].$X*X*XH.dX4X[.t % j y l b *.;.4.w.w.9.h.v.h.j.f.f.p.0.2.1.g V %X8X1XXX%X#XoX@X7X-X0XP ",
"P I ].#X].].,X;X>XgX4X<X& @ g m v b ,.:.5.e.t.9.j.b.b.b.l.l.a.a.i...u % eX).%XoX*X*X+XOX7XU.9XP ",
"P P #X#X#X,X#X*X*XoXS.E.& h y p x b ,.;.:.8.8.8.h.j.k.v.k.l.e.6.p.+.B j .XR.,X3X;X-X=XP.U.P.:XY ",
"P R ,X<X,X#X#X*X-X0XyXiXO + + m x v *.;.=.:.3.3.6.7.s.k.k.v.t.w.7.X.l y rXuX5X`.3X3X&X&X=XL.;XP ",
"T T ,X,X,X$X,X*XXX(.#XW.O $ y d f k $.;.%.=.=.3.q.r.9.j.j.v.8.6.7.O.M f Q.%X{.;X{.3X;X&X-X`.<XE ",
"P P `.,X,X$X,X1X1XoXuXE.O + y m m z $.,.&.:.-.3.w.q.6.g.h.j.6.t.7.X.x s !.tX`.dX{.dXdX{.,X}.tXJ ",
"T T ,X5X#X,X1XoX-XoXuXE.& + y z m v ..X.+.%.=.-.3.3.3.9.9.8.q.q.7.O.x s E.wX`.;XdX{.;X;X5X].|.E ",
"P P *X<X].#X1XoXXXXX%XW.O s y z n b b ..O.*.>.:.=.=.=.8.t.w.y.r.7.X.M f /.%X*X3X{.;X;X;X:XoX<XI ",
"P P ;X2X].#X1X*XXXqXvXtXX O + m ....v x M #.*.&.:.-.:.8.e.r.r.r.5...x s /.E.oX*XdX{.-X=X-XOX9XP ",
"T R <X6X].,X-XXX=X@XD.R.X % + p ....z d z v X.+.;.%.=.5.5.4.4.4.<.b p h rX^.2X,X6X3X&XU.7XU.7XL ",
"U I }.tX].#X,X&X>XgXU.2Xo . @ N n v d f d l b X.,.&.;.:.:.;.*.+.$.l y % E.).1X,X<X,X-XOX7XU.7XL ",
"Z S ].tX[.#X3X-XP.U.>X`.* . $ s a a d m x l b ..$.@.*.*.,.*.#.#.n N h t @X@X-X).#X<X%XoX-X=X-XC ",
"1 Z  X<X|.}.*X>XgX>XJ.+XR.rXc.s # # a n o.o.b n k k v b ..b l p f  . .x.8X7X8X1X#XeX$X%X,X#X}.Z ",
"1 Z [.tX<X,X,X-XL.9XgX-X%XiX!.X X # a x ....v x d m x x v l p y @ | F.G.7XP.L.oX].$X$X[.<X}.[.0 ",
"2 2 ).2X#X5X#X+X1X_.4X4X(.yXR.o X $ @ N m M n x z m x N a u s g t ! N.1X_.*X:XoX,X,X5X,X}.`.,Xw ",
"e 2 ).$X).#XoX1X4XoX4X1XJ.1XkXS./.!.# @ + + y u u u y u i h ~..X~ N.B.5X`.*X1XXX*X,X*X,X,X}.,X4 ",
"5 5 %XwXoXoXoX1X1XoX1XqXoX=XdXqXeXiX  O O h + i y + i h % O rX!.C.N.N.,XXX,X4X,X*XXX,X,X5XdX6X4 ",
"4 5 hXbXhX%XoX%X1XXXoX4XqXoX(.oX%XE.: X   . . O O O O . & > .XeX` ^ ^ 1X,X,X*X*X*X*X,X,XjXbXhXZ ",
", 5 mXZXBX8XoXoX1X1XoXH.:X1X*X-X=XH.1XwXuXeXeXE.E.eXiXeXtX6X[.<XN.[ [ 5X1X*XXX,X*XoXoX5XxXCXlXD ",
"2 5 mXmXmX%XoX+XoX0X0X*X*X=X-X0XxXF.qXJ.D.+XwX%X2X2X$XD.2XkXD.dXM.M.M.,X}.`.,X1X,X*X,X6XbXCXlX3 ",
"5 2 cXvXmXXXoX1X_.+X0X0X*X&X*X&XdXH.9X:X7X8XOXJ.J.L.1XXXfXdX{.{.m.[ ^ #X`.#X1X1X,X,X,X,XjXCXlX3 ",
"2 2 mXmXZX@XoX+XqXoX`.4X1X-X-X4X;XgX&X:XOXOXU.9X7XOX9XXX4XK.xX;XM.N.M.6X,X1X,X'.#XoX,X,XjXCXMXZ ",
"2 2 mXmXjX1X#XXX`.1X1X`.H.oX*X*X;X3X*X-X-X=XOXOXOX&X-X-X,X3X3X|.M.C.! yX5X(.yX1X).#X1X2XNXNXGX= ",
"2 e mXNXmXcXMXCXBXBXcXdX,X4X4X,X6X|.,X3X4X4X-X=XOXOXoXoX,X}.|.|.1 D 0 R.2XoXbXhXMXZXCXhXlXkXSXq ",
": e nXDXVXbXbXbXVXCXjX1X`.`.*X`.[.[.[.].`.oXoXoX1X1X#X,X,X<XtX|.8 e e `.yX2XCXZXBXMXbXbXFXNXNX8 ",
"e K uXVXVXnXnXNXNXMXxXyX,X1X5X6XtX<X|.|.,X<X2X2X#XoX#X[.[.[.[.[.Z q q R.<X).hXmXBXMXcXbXFXNXzXr ",
"F r { { ' ` { C.m.N.M.` ^ m.m.m.m.m.m.m.m.m.m.m.M.M.N.M.M.N.N.N.9 < , N.A.} x.A.( A.x.[ _ _ C.F ",
"! E { { ' ] _ ` _ ` m.m.N.m.N.M.M.M.C.N.m.M.M.M.^ ` ` ` M.M.[ ` 0 9 r V.{ ( ^ / ( [ { { [ [ C.W ",
"G E ~ { N.C.' N.' m.N.B.N.m.m.N.n.^ M.M.m.m.m.M.N.B.B.B.N.M.( ` 2 < e ] } { [ [ A.{ / [ { { ] F ",
"E E W E G q 8 9 0 w w 3 Z 4 3 Z C H P I I I I I I I I Y L D 5 < r < , r 2 e 2 2 2 2 2 r K U ! E "
};
