/* XPM */
static char *enmy_101740601389[] = {
/* columns rows colors chars-per-pixel */
"48 48 246 2 ",
"   c #000500",
".  c #0C0200",
"X  c #040B04",
"o  c #140001",
"O  c #1B0002",
"+  c #190A07",
"@  c #0B130B",
"#  c #19140F",
"$  c #1D1513",
"%  c #101014",
"&  c #260907",
"*  c #390106",
"=  c #261208",
"-  c #370416",
";  c #281517",
":  c #3A1518",
">  c #300B12",
",  c #35251C",
"<  c #2E251C",
"1  c #181B27",
"2  c #1D1E32",
"3  c #3A1A28",
"4  c #2A1621",
"5  c #1A242A",
"6  c #1C2132",
"7  c #282327",
"8  c #39252B",
"9  c #242839",
"0  c #352D3B",
"q  c #2B333E",
"w  c #24323D",
"e  c #37323A",
"r  c #15201A",
"t  c #460309",
"y  c #58000A",
"u  c #470A17",
"i  c #570A19",
"p  c #58101A",
"a  c #4A1817",
"s  c #6C0716",
"d  c #67161B",
"f  c #73181F",
"g  c #56221D",
"h  c #66251C",
"j  c #71271B",
"k  c #461928",
"l  c #591625",
"z  c #511931",
"x  c #681825",
"c  c #771729",
"v  c #781A36",
"b  c #6C142E",
"n  c #492527",
"m  c #562628",
"M  c #58312A",
"N  c #492935",
"B  c #562534",
"V  c #573539",
"C  c #45353A",
"Z  c #6B2528",
"A  c #77232B",
"S  c #662938",
"D  c #782837",
"F  c #673439",
"G  c #793633",
"H  c #664634",
"J  c #292E40",
"K  c #392D43",
"L  c #2C3343",
"P  c #2B3541",
"I  c #333544",
"U  c #383949",
"Y  c #3F3E50",
"T  c #443346",
"R  c #573445",
"E  c #682943",
"W  c #653947",
"Q  c #783842",
"!  c #782C47",
"~  c #3A424D",
"^  c #36434B",
"/  c #564A56",
"(  c #504D57",
")  c #784D46",
"_  c #6F5251",
"`  c #575664",
"'  c #645A67",
"]  c #694D66",
"[  c #566D71",
"{  c #5E757A",
"}  c #586369",
"|  c #656C76",
" . c #62747B",
".. c #66757A",
"X. c #7C7678",
"o. c #78624D",
"O. c #85192B",
"+. c #831D35",
"@. c #981B35",
"#. c #862836",
"$. c #84343B",
"%. c #882F30",
"&. c #83493F",
"*. c #861C40",
"=. c #892944",
"-. c #893742",
";. c #923649",
":. c #864B47",
">. c #AB6D7B",
",. c #8D5D72",
"<. c #5F7580",
"1. c #6B6E81",
"2. c #706B81",
"3. c #637281",
"4. c #647881",
"5. c #7D7B93",
"6. c #AB7886",
"7. c #887A94",
"8. c #778B93",
"9. c #7A8C96",
"0. c #7B8B9A",
"q. c #778A98",
"w. c #7A939B",
"e. c #73848A",
"r. c #7B9AA7",
"t. c #7589A1",
"y. c #7CA4AA",
"u. c #76ABB1",
"i. c #828699",
"p. c #848C98",
"a. c #958A9B",
"s. c #81959C",
"d. c #849B9E",
"f. c #8E949C",
"g. c #95979E",
"h. c #938A85",
"j. c #B28798",
"k. c #A3949C",
"l. c #AD9194",
"z. c #9DAF9F",
"x. c #A4A399",
"c. c #878DA3",
"v. c #8394A3",
"b. c #8B94A3",
"n. c #859BA3",
"m. c #8B9DA4",
"M. c #859DA9",
"N. c #8C9DAB",
"B. c #8D96A9",
"V. c #929BA3",
"C. c #949DAD",
"Z. c #999AA7",
"A. c #8A9EB2",
"S. c #949DB3",
"D. c #9A9DB3",
"F. c #979DBB",
"G. c #A799A5",
"H. c #B79BA7",
"J. c #A69FB2",
"K. c #A58AA2",
"L. c #8CA0A6",
"P. c #86A3AD",
"I. c #8CA4AD",
"U. c #85A9AD",
"Y. c #8BA9AE",
"T. c #92A4AD",
"R. c #9BA2AD",
"E. c #93A9AF",
"W. c #99A6AB",
"Q. c #86A5B2",
"!. c #8DA5B2",
"~. c #85ABB3",
"^. c #8CA9B3",
"/. c #8EADBC",
"(. c #93A5B3",
"). c #9BA5B5",
"_. c #93AAB4",
"`. c #9BABB4",
"'. c #99A3BB",
"]. c #93ACBA",
"[. c #9BADBB",
"{. c #95A4B9",
"}. c #88B4B7",
"|. c #96B1B5",
" X c #93B3BC",
".X c #9BB2BC",
"XX c #99B2B5",
"oX c #AAA4AD",
"OX c #A4AAB6",
"+X c #A3ACBB",
"@X c #A8A8B8",
"#X c #B4A7B7",
"$X c #A2B4BC",
"%X c #A7B5B9",
"&X c #AEB3B4",
"*X c #C0909E",
"=X c #CC9CAC",
"-X c #C5AAAE",
";X c #FFBAB1",
":X c #ECA297",
">X c #B6C2BC",
",X c #C2C1BF",
"<X c #FFC3BB",
"1X c #98AAC2",
"2X c #9BB4C1",
"3X c #98B5C5",
"4X c #90B6C7",
"5X c #A8ABC4",
"6X c #A5B5C2",
"7X c #A5BCC3",
"8X c #ABBBC3",
"9X c #ABB7C4",
"0X c #B3BECB",
"qX c #B3BBC5",
"wX c #B9BCD3",
"eX c #B4ACC3",
"rX c #C9B6C4",
"tX c #9BC1C4",
"yX c #ACC3C9",
"uX c #ACC5CB",
"iX c #BAC2C5",
"pX c #B4C4CC",
"aX c #BAC4CD",
"sX c #BBC9CD",
"dX c #B3C5CA",
"fX c #BAC5D1",
"gX c #B6CAD2",
"hX c #BBCBD3",
"jX c #B6C7D5",
"kX c #BAD1D8",
"lX c #BFD2CE",
"zX c #BFD5E0",
"xX c #C9CBCB",
"cX c #C2CCD4",
"vX c #C4CBD9",
"bX c #C7D7D9",
"nX c #D6D8D6",
"mX c #CCD1CD",
"MX c #C9D5E4",
"NX c #D2D5E8",
"BX c #D8EDF1",
"VX c #E5F4FE",
"CX c #EAFAFE",
"ZX c #F3FEFF",
"AX c #F8FFFF",
"SX c #E7E7EB",
/* pixels */
"I U L 6 9 6 5 6 6 6 6 6 6 6 2 6 P w q q e 0 K K U T U K K 9 2 2 2 2 2 2 2 9 2 2 2 9 1 5 6 q P P ",
"I ( ~ I I I q L U L L J w w L P ^ ^ ~ ~ ~ Y Y Y Y U U U L L w 9 L L L J J L L U L L L J I ^ ^ ^ ",
"OXaXxXrXrXvXaXfXwX9X).S.A.(.).).T.I.I.T.I.(.I.!.{.^.^.}.}.~.U.U.{.).D.C.D.OX5X0XfXfXaXaXaXhXhXhX",
"m.9XfX0XjXcXfXfXhX0X+XS.S.{.S.I.(.(.(.Y.^.^.^.^.P.Q.~.~.~.u.}.~.(.).(.T.S.).0XfXfXfXfXpXpXfXaX0X",
"R.aXbXhXjXfXfXhX0X6X(.(.N.(.N.M.Y.!.!.^.!.Q.Q.Q.Q.!.!.!.I.!.(.!.M.I.(.S.I._..X8XjXjXpXpXpXhXhXgX",
"m.0XfX$X).`.(.`.[.`._.(._.{.{.{.!.!.A.!.!.!.!.!.^.^.].).`.).).'.{.]._.].(.(.]..XE.(.E._.XXyXyXyX",
"m.pXhX$XE.T.T.(.I.I.N.I.!.!.A.!.'.'.'.{.{.{.!._.!.!.N.A.S.D.D.S.A.!.Q.!.P.!.I.P.Y.I.(._..XpXhXhX",
"s.yXhX$XT.I.T.(.(.(./.(.!.!.!.{.F.F.F.{.{.!.!.!.I.!.!.!.{.(.(.(.^.!.Y.~.^.^.^.^.Y.Y.Y.I.XX7XdXgX",
"N.pXgX.XT.I.I.T.Y.E.!.^.^.^.!.!.t.wXq.2X.X}.Y.Y.n.}.}.U.U.~.~.~.].!.P.^. X~.U.U.Y.Y.Y.P.|.yXgXyX",
"E.hXkX$X_.Y.Y.I.E.!.^.^.^.^.^./.3Xr.].|.Y.w.L..XXXE.n.L.|.|.Y._.A.[.].!.P.~.^.~.U.U.Y.U..XuXhXdX",
"T.dXhX$X(.E.I.I.(.^.^.!.^.^./.~.u.4X}.r.^.%Xg.V.g.k.oXH.=X7.a.#XF.).(.(.!.!.~.^.U.Y.Y.I.|.uXgXpX",
"s.$X7XE.I.E.E.Y.Y.(.^.^.!.^.!.~.u.u.u.tXL.g.oXN k k m S E E ,.6.#XC.C.{.[._.Y.^.~.Y.Y.Y.Y.XX$XXX",
"8.E.`.L.T.T.T.E.(.^.(.^.^.^.^.^.u.}.}.s.&X8 _ u D D v c *.v v ! K.S.J.D.(.`.!.Y.Y.Y.Y.U.Y.Y.W.T.",
"8.T.E.L.I.T.I.I.!.T.^.(.^.^.!.!.3X].`.@X4 z u A x c v v ! v E E ] J.wXD.c.(..XP.Y.Y.Y.Y.I.E.T.E.",
"9.T.E.T.(.E.T.I.(.(.^.^.(.(.!.(.Z.J.G.k B p D $.$.Z t & O o & K K 7.eXJ.B.)..XI.Y.I.Y.Y.I.T.T.T.",
"9.L.T.L.E._.T.(.Y.(.^.(.!.^._.(.J.#X3 B l D $.x m * O . .     X T ' a.@X+X(.!.Y.I.Y.I.T.L.I.I.I.",
"9.N.(.(.(.(.N.].!._.Y.^.].!.I.[.J.G.C k i -.x G O . X X   X X X o C oXR.I.Q.u.~.^.N.`.).{.{.P.4X",
"0.I.(.(.(.!.!.(.!.].!.M.!.].^.T.a./ ; k D #.s * o . # @ + = + o O W H.f.3X4Xr.Q.!.{.Z.5XB.[.r.~.",
"v.(.(.I.(._.!.(.!.!._. X^.^.Y.C.Z.n k l #.O.#.* & . ; a.6.* * >.>.) k.OXT.!.3X.X).C.OXa.OXb.2X/.",
"M._.(.I.{.(.!.(.].I.^.3X^.M.I.@XR u F p O.O.%.* & o 4 ,.6.t i >.>.B l.-Xm.s.].M.C.#XZ.&XZ.OXN.n.",
"M.(.(.N.(._.(.!.[.!.!.!.P._. XZ.u b D p s #.A * + 9 % % 3 - - u * S H.H.Z.).W.OXg.#XH./ ( } +X).",
"v.(.(.A.(.(.!.(.!.^./.P.I.3Xr.U z D l i s %.D F # % X % 4 O O > u F *XG.oX&XD.f.oX` / nXSXSXs.`.",
"0.(.(.(.(.!.!.(.I.!. X].P.2Xw.I z z z S Z A x m . @ 5 % % ; % ; M F j.l.G.p.| } ( ,.>XxXmXZXOXZ.",
"q.I.(.(.{.!.!._..XM.^..XM.Q.2XC.T z z z i x D G V $ $ + & ; & 3 V j.-X/ ' ' ` x.mX,XmXSX,XAXm.T.",
"!.N.!.(.(.(.!.N._.!.^./.!.^.^.{.S.5X0 8 B y c %.G F l F G l m g H._ ' / ' oXoXf.mXmXnX>XbXCXL.[.",
"(.(.I.(.(.(.(.!.!.^.^.!.^.!.!.!.1Xt.6X#X- v f s #.t A x i c :.) o./ g.oXg.W.Z.W.lXnX>XbXZX`..X!.",
"{.(.(.(.I.{.!.(.!.(.^.^.^.^.^././.3Xw.f.-Xd %.O.f D D d &.H :.x.x.f.&X).V.Z.f.%XlXnXbXbXBXE.I.N.",
"(.(.(.!.!.!.!.(.!.].!.^.!.^.!.^.A.r..XrXh.i A j $.:.G &.:.h l.x.&XN.N.N.+X+XC.aXlXlXbXBX^.>Xr.1X",
"!.(.(.(.C.!.{.(.^.(.^.!.^.^.^.(.{.b.&Xh.M h <X<XG ) n m F n h.z.w.L.!.{.5XF.D.MXbXlXuXCXn.n.A.1X",
"N.(.(.(.!.N.!.!.!._.^.^.^.!.^.(.@XG.x., :.&.:X<Xh m a * F F C &X|.3X/.!.S.c.S.MXbX>XBXCXv.'.{.1X",
"M.N.(.(.(.A.!.(.(.!.!.^.!.^.^.W.k.-XH o.H j ;X;Xh & l ! z ;.F k.N.Q.A.1X5X1X9XvXcXbXVX%Xc.jXF.F.",
"c.M.(.(.!.I.Y.!.^.^.^.^.(.(.(.Z._ ) o.a j j %.h h g t v *.=.b =XS.4XA.A.F.F.rXNXvXAX`.L.F.A.F.F.",
"i.m.T.(.!.^.~.Q.y.].M.{.{.B.5XZ.x.g A y O.%.l F = = t A O.+.#.*XOXt. X3Xv.6XvXNXMXZX+Xm.).n.`.(.",
"b.C.(.(.!.^.Q.U.~.].!.A.).@X5Xa.8 m c @.@.s G M , = a $.#.c D =Xg.uXP.v.2X!.MXjXAXVX).B..XT.E.n.",
"C.R.R.I.I.P.U.U.~.^.].N.F.5X5./ 7 m A @.@.@.F : = = t x +.;.x : ).Q.2XM.{.vXfXZXVXfXm.m.`.E.N.L.",
"C.R.(.N.I.^.^.~.Q.M.2X(.F.S.T 1 C k -.c @.#.a = < # a D D A l V Z.!.Q.6XI.MXZXVX5Xp.C.T.N.T.N.E.",
"OX+X`.(.T.^.^.^.^.r.].{.{.b.( I e n l =.=.=.B & r = V Q S b k N Z.!.7XM.jXMXZX).T.9.$X`.m.%X`.`.",
"qX0X8X[.(.Y.Y.^. XM.I.(.{.D.c.c.e ; E S u k O 7 @ 7 V k B V B 8 `.!.r.zXkXZXv.R.).f.+XT.T.hXhX7X",
"0XaXfX6X(.P.Y.Y._._.P.(.{.D.5X9XZ.e 3 z ! 6.7 % 5 r e 8 z > T a.`.M.].kXZXv.[.E.E.N.T.m.).kXbXpX",
"qXaXfX6XE.L.P.^.P.3X(.{.(.B.@XB.m.OXZ.rXH.G.&Xm.d.XXqXG.rXG.a.OXN.(.BXVX!.!.N.`.L.`.W.T.`.%XgXgX",
"qXhXdX`._.E.I.Y.Y.^._.(.I.C.(.(.I.T.Z.G.Z.oXT.Y.L.Y.T.R.oXZ.R.T.T.2XCXN.`.XXL.Y.T.`.E.L.OXdXhXdX",
"qXcXaX+X`.T.L.Y.Y.I.(.(.(.T.(.(.Y.Y.E.W.(.T.Y.Y.Y.U.T.T.T.T.I.Y.I.BXE.7Xm.w.$Xd.L.T.E.L.XXiXsXsX",
"%XcXsX%X`.E.Y.E._.^.I.T.T.(.R.!.^.Y.!.I.I.Y.~.U.~.U.!.I.I.Y.!.Y.L.jXs.].8.|.E.XXE.E.E.E.`.iXsXiX",
"C.qXsXyX7X$X$X7X7X.X(.I.I.T.(.S.Y.!.Y.!.Y.!.Y.P.Y.Y.I.Y.!.Y.Y.!.T.8.6X9.n.yXw.uX%XyX%X%X8XdXiXsX",
"V.qXcXhXhXgXgXkXgXyX].Y.!.(.(.(.(.(.^.!.^.!.^.!.(.(.(.(.^.^.^.(.(.T.`.s.tXd.>XuXkXlXgXlXsXsXsXcX",
"V.%XhXsXaXsXdXdXgX7X_.I.I.I.T.T.!.S.!.I.!.I.!.C.T.(.S.T.S.I.I.I.m..Xs.L.|.w.yXuXuXdXyX>XiXiXiXiX",
"e.V.W.f.L.L.m.Y.L.s.w.w.8.q.q.9.i.i.0.q.q.q.0.0.i.i.i.0.0.0.0.i.e.9.8.8.8.y.8.z.y.d.d.L.V.V.V.V.",
"} ....[  . . . . .{ { <.4.4.<. .1.1.3.<.<.<.1.2.2.2.1.1.3.3.3... .4...{ { { [ [ { [ { ....| | .."
};
