/* XPM */
static char *enmy_91740601389[] = {
/* columns rows colors chars-per-pixel */
"48 48 234 2 ",
"   c #010301",
".  c #090502",
"X  c #1C0101",
"o  c #150705",
"O  c #021708",
"+  c #17110C",
"@  c #191916",
"#  c #141315",
"$  c #240001",
"%  c #290907",
"&  c #370203",
"*  c #26110C",
"=  c #380912",
"-  c #2A1517",
";  c #391419",
":  c #270915",
">  c #13271A",
",  c #32241B",
"<  c #1A1E29",
"1  c #1D1E32",
"2  c #180F22",
"3  c #371A27",
"4  c #1C232C",
"5  c #1C2132",
"6  c #282227",
"7  c #392428",
"8  c #242839",
"9  c #392E3A",
"0  c #2B333E",
"q  c #24323D",
"w  c #38323B",
"e  c #470207",
"r  c #56060A",
"t  c #4B0A18",
"y  c #560718",
"u  c #48161A",
"i  c #5A161A",
"p  c #41100B",
"a  c #69131A",
"s  c #4D241D",
"d  c #71201D",
"f  c #491A27",
"g  c #571A29",
"h  c #4E1E34",
"j  c #690A26",
"k  c #691727",
"l  c #781929",
"z  c #791A35",
"x  c #73112C",
"c  c #48242B",
"v  c #582527",
"b  c #482A36",
"n  c #572735",
"m  c #573438",
"M  c #4A3332",
"N  c #69232B",
"B  c #762828",
"V  c #682739",
"C  c #7C2233",
"Z  c #732D3A",
"A  c #772738",
"S  c #673438",
"D  c #77353D",
"F  c #55463C",
"G  c #292E40",
"H  c #392D43",
"J  c #2C3343",
"K  c #2B3541",
"L  c #363848",
"P  c #3F3E50",
"I  c #453346",
"U  c #533C42",
"Y  c #682A42",
"T  c #643B49",
"R  c #753846",
"E  c #722849",
"W  c #3A424D",
"Q  c #36434B",
"!  c #554D5D",
"~  c #504D51",
"^  c #665A5A",
"/  c #6C484F",
"(  c #4C4E61",
")  c #795967",
"_  c #685365",
"`  c #5A6C73",
"'  c #5D747D",
"]  c #5A747A",
"[  c #586369",
"{  c #676A75",
"}  c #65747B",
"|  c #716E76",
" . c #871E36",
".. c #891C31",
"X. c #832636",
"o. c #93233B",
"O. c #863036",
"+. c #86413A",
"@. c #853342",
"#. c #8E3445",
"$. c #8A4C4C",
"%. c #8A5265",
"&. c #996C71",
"*. c #B9677E",
"=. c #5F7281",
"-. c #6D6E82",
";. c #647181",
":. c #617A80",
">. c #6A7783",
",. c #77778B",
"<. c #93798F",
"1. c #B47985",
"2. c #768C95",
"3. c #7A8D95",
"4. c #7C8A99",
"5. c #788897",
"6. c #7B919C",
"7. c #7D989F",
"8. c #73858B",
"9. c #7C9BA6",
"0. c #7CA3AA",
"q. c #76ABB1",
"w. c #8C8689",
"e. c #848999",
"r. c #988998",
"t. c #82959D",
"y. c #859B9D",
"u. c #9B9A9C",
"i. c #96969C",
"p. c #A48A95",
"a. c #B4899A",
"s. c #A6959D",
"d. c #B69094",
"f. c #A7A29E",
"g. c #8294A3",
"h. c #839CA4",
"j. c #8C9CA4",
"k. c #859DA9",
"l. c #8B9DAC",
"z. c #8C93A4",
"x. c #929BA4",
"c. c #9B9BA5",
"v. c #949EAD",
"b. c #9B9EAB",
"n. c #9495A7",
"m. c #989DB4",
"M. c #8992A6",
"N. c #A79BA9",
"B. c #B69AA7",
"V. c #A49EB1",
"C. c #AA93AA",
"Z. c #8CA1A6",
"A. c #85A4AC",
"S. c #8CA3AD",
"D. c #84A9AD",
"F. c #8BA9AE",
"G. c #86A2A6",
"H. c #9FA2A5",
"J. c #92A4AD",
"K. c #9AA2AD",
"L. c #93A9AE",
"P. c #96A5A9",
"I. c #86A6B1",
"U. c #8DA5B2",
"Y. c #85ABB2",
"T. c #8CA9B3",
"R. c #8BA8B8",
"E. c #87AFB9",
"W. c #92A5B3",
"Q. c #9AA4B5",
"!. c #93A9B4",
"~. c #9AABB4",
"^. c #93A5B8",
"/. c #9AA5BA",
"(. c #94ACB9",
"). c #9BADBA",
"_. c #8AB3B8",
"`. c #94B3BB",
"'. c #9CB2BC",
"]. c #98B4B8",
"[. c #A9A5AA",
"{. c #B5A5AC",
"}. c #A2A3B4",
"|. c #A3AAB5",
" X c #A2ACBB",
".X c #A8A9B9",
"XX c #B6A5B5",
"oX c #A2B4BC",
"OX c #A7B5BA",
"+X c #B7B5BC",
"@X c #C69AA8",
"#X c #EDBDB2",
"$X c #F4C7BC",
"%X c #9CB4C1",
"&X c #9AB7C5",
"*X c #93B4C3",
"=X c #A6AEC1",
"-X c #ADB4C2",
";X c #A6BCC4",
":X c #ABBBC4",
">X c #A9B8C4",
",X c #B2BBC5",
"<X c #B4BDCB",
"1X c #B6B9C7",
"2X c #B6B6CE",
"3X c #CAB5C1",
"4X c #D2B7C8",
"5X c #9BC1C4",
"6X c #ACC3C9",
"7X c #AACACD",
"8X c #A8C3C7",
"9X c #B3C4CC",
"0X c #BAC4CE",
"qX c #B7C6CA",
"wX c #ACCBD1",
"eX c #BAC6D1",
"rX c #B5CBD2",
"tX c #BBCBD4",
"yX c #B4C6D0",
"uX c #BAD2D6",
"iX c #C8C4C6",
"pX c #C2CCD6",
"aX c #C4CBD8",
"sX c #C8D2DA",
"dX c #D8D6D9",
"fX c #D0C8C6",
"gX c #CECDE2",
"hX c #C8D4E1",
"jX c #D3D9E7",
"kX c #DDEBF9",
"lX c #EBF5FE",
"zX c #FBFEFF",
"xX c #F3FCFF",
"cX c #E0EDF6",
/* pixels */
"L L 0 < 8 6 1 5 5 5 5 5 5 5 5 5 K K J 0 w w H H H I H L 9 8 8 < 1 1 1 1 8 8 1 1 8 1 8 < 8 0 0 0 ",
"J ~ P w J L J K L J J G q q G J Q Q W Q W P P P L P P L J J q 8 J J G G G G J L 0 G 0 0 0 Q Q Q ",
"|.0XaXpXpXpX9X<X2X>XQ.v.U.m.^.Q.J.J.Z.J.J.S.S.U.R.R.T.T._.Y.Y.D.^.Q.Q.v.m.Q.=X2XeXeX0X<XeXuXtXeX",
"x.-X0X1X2XpXeXeXaX<X XW.m.U.m.U.W.T.W.T.T.R.U.Y.I.I.E.Y.E.q.Y.Y.W.Q.W.m.m.}.,XtXtXeXeX9X9XeXeX9X",
"K.0XsXeXeXeXeXtX<X=X!.W.v.W.l.k.S.U.I.I.R.R.R.U.U.I.R.U.U.U.U.U.l.W.W.U.S.W.'.:XyXyXqX9X9XtXrXqX",
"j.9XeXoX~.~.Q.).).).!.W.!.(.^.m.U.U.^.^.R.l.I.U.R.!.W.^.Q.Q./.Q.W.^.!.!.!.!.(.].W.W.L.!.'.:XqX6X",
"j.9XtXoXJ.J.J.J.l.S.l.U.U.l.U.U././.^.^.m.m.R.^.U.U.l.v.m.m.m.m.U.I.I.I.S.A.S.A.S.T.L.!.'.qXrXtX",
"t.9XuXoXJ.J.S.W.!.!.!.T.U.U.U.^.m./.m.^.m.R.U.U.W.S.U.U.U.W.W.!.W.U.I.R.T.T.T.T.T.F.F.S.!.8X9XrX",
"j.9XrXoXS.S.S.S.L.F.W.T.T.T.U.!.M.2X5.%X'.F.F.F.0.T._.D.D._.D.Y.(.U.I.R.(.Y.A.D.F._.F.A.!.6XrX6X",
"L.rXuXoX!.L.S.F.F.W.U.T.T.U.R.R.&X9.(._.A.7.G.5X].L.y.h._.!.T.!.l.(.(.U.A.Y._.T.D.F.F.A.].9XuXrX",
"L.rXrXoX!.L.F.S.W.T.T.T.T.T.T.R.q.*X_.9.L.oXj.u.u.N.N.{.XX<.r.XXV.m.m.R.U.R.T.T.D.D.F.F.].8XqX6X",
"t.oXOXL.S.L.S.L.F.U.U.!.U.T.T.Y.q.q.q.5XZ.i.[.c u f v V E Y %.a.=Xm.M.=X).!.A.T.A.F.F.G.L.].oX'.",
"2.P.~.S.J.S.P.T.W.!.T.T.W.T.T.R.q.E.`.7.+X7 T u Z A z l  .z z E <.V.=X/.W.).T.S.F.F.F.A.F.L.P.J.",
"2.S.~.Z.J.J.S.S.!.S.W.T.U.T.U.T.*XR.~.|.3 f t A k l z z E z z E _ m.2XV.M.W.'.A.F.F.F.F.S.L.S.L.",
"3.P.L.Z.J.L.Z.J.S.S.T.W.!.W.U.W.n.V.B.7 n t S O.O.B e $ X o # 9 I <.-XV.z.m.].S.S.F.F.F.L.S.P.L.",
"3.Z.J.Z.!.!.W.W.W.!.W.T.U.T.U.Q.XXB.f n g Z D N k & X . o     . I ) <..X|.W.U.T.U.F.S.U.J.Z.G.Z.",
"5.l.W.U.W.U.I.!.W.W.W.W.(.U.I.|.B.a.V u u R v S X X X . . .   . $ n B.XXt.L._.0.R.U.^.Q.W.J.F.F.",
"6.U.!.U.W.W.l.^.W.(.U.k.U.).W.K.p.T ; g S V u & X X * X $ - $ X $ Y B.r.F.`.0._.R.U.W.Q.Q.L.F.F.",
"g.U.U.U.!.!.l.!.S.U.^.(.!.U.S.x.u.7 ; f R N Z & & $ = p.1.e e 1.1.R B.[.L.F.q.E.R.R.m.m.Q.J.F.F.",
"k.!.U.l.!.!.U.!.!.S.W.%X!.k.W.oX~ ; m g A C X.& $ $ ; &.&.e y *.1.f a.[.L.D._._.R.^.Q.Q.W.P.F.F.",
"h.W.U.l.^.!.U.W.%XU.U.l.S.!.(.z.* f V j x o.X.& $ , O O 6 . : 3 : n XXr.~._.0._.R.^.W.m.W.W.F.F.",
"9.W.U.S.W.!.I.W.U.!.(.l.l.>Xk.L b Y j j ..o.C Z * @ O O > O   + : T XXu.~.T.I.Y.R.^.^.m.W.W.F.F.",
"4.U.!.U.!.U.l.!.l.U.%X(.l.%X6.K 7 f f A x z k N X + > O O > # @ I / w.c.j.S.*XY.R.W.^.W.W.W.L.T.",
"5.l.!.U.W.W.I.!.%Xk.!.).k.U.%Xx.9 b h g y j R V S % * + o - 2 3 b B.XXc.'.T.A.U.U.R.W.W.W.W.S.F.",
"I.U.l.!.W.W.U.U.^.(.W.l.U.(.'.).[.{.- v = v N B Z B C N E g Y h B.V.V.}.~.!.R.A.U.R.U.!.!.S.T.U.",
"U.U.U.U.U.U.W.U.U.U.U.!.W.(.l.e.s.p.3Xp.m s s i l j x x l V g @XB.V.K.K.J.S.!.(.R.U.U.!.U.W.W.U.",
"W.U.W.U.U.W.U.W.U.W.U.W.(.!.9.,.) / d.d.d.s s B O.o.a y Y 1.<.XX}.}.}.Q.m.W.W.W.T.U.T.U.!.U.U.!.",
"!.W.!.U.l.I.U.^.!.!.U.U.!.!.l.z.s.) ^ ^ d.m v +.B B l B v n {.i.K.W.Q.Q.W.W.S.U.T.T.T.U.T.T.W.U.",
"U.^.W.U.U.U.!.!.U.!.!.W.U.!.!.W.+Xw.f.^ F $X#X$XB a e N c 3 {.[.J.l.l.W.Q.Q.W.I.T.T.T.T.T.U.!.W.",
"l.l.!.!.U.l.U.W.l.!.(.(.W.W.!.P.x.{.w.F s $X$X$X+.$.$.$.v m U s.=X)./.^.Q.Q.W.W.W.T.Y.T.T.W.W.W.",
"k.l.U.!.U.S.l.!.U.!.(.!.U.!.J.J.H.f.F * s d d d O.p & D &.%.M B.z.S.(.Q./.W.J.W.T.T.T.D.T.T.W.W.",
"9.k.W.!.U.l.U.R.(.!.U.l.W.^.!.P.[.c s i O.O.d B d r a i N V $.) ( =.M.Q.Q.v.K.~.P.P.L.F.F.W.F.W.",
"4.z.J.W.U.T.T.I.9.(.l.^./.M.=XC.f.v l r ..o.i S * p r d l C Z d.[.{ ( { ! u.+Xu.[.i.OXP.8.P.].y.",
"z.n.W.W.U.U.Y.D.I.`.U.l.m.=X=Xr.c v k ..o.a D M , & i O.o.l B @X{.m.b.C.^ ~ ^ ^ F f.w.H.qXy.y.].",
"x.K.K.J.A.S.I.D.Y.R.(.l.m.=X,.! 7 v C ..o.C S - - % r k X.#.g ; i.~.}..XH.[.[.fX^ ^ ^ ~ ~ | 3.Z.",
"v.Q.W.Z.A.T.T.Y.I.k.%X!.^.m.P 2 M f O...l O.u + , % i A C C g M .XW.M.j.x.H.{.iXiXiXfXsXzXlXH.OX",
"|. X~.W.J.T.T.T.T.9.(.(./.M.( H w c g E @.E M * - + V R A g f b Q.k.(.oXL.|.sXdXdXdXiXzXzXXX}.K.",
"1X<X:X'.!.U.F.T.*Xk.l.^./.m.e.M.b - V V t f X 6 + , m f n Y b 7 '.9.*X!.j.x.iX0XsXfXzXzX+X|.gX+X",
"0XeX0XoXL.Z.F.T.!.!.l.U./.m.=X2Xb.w 3 h T <.6 # 4 > b 3 h : M c.W.I.I.9.;XrXjXsXsXzXxXn.v.jX1XjX",
"-X0XeX>XS.A.S.T.A.%XU.(.m.l.V.M.j.|.s.4XB.a.|.Z.y.L.qXN.3XC.r.).k.>X%XM.hXsXsXuXzXxX}.j.-X<XtX<X",
"+XpXqX~.~.L.S.F.A.T.!.W.J.l.v.Q.S.S.H.N.N.K.P.S.G.F.x.P.c.b.K.J.m.l.=XgXuXjXxXlXcX9XZ.Z.oX7XrXrX",
"9XpX0XoX!.L.G.F.U.U.W.!.W.W.W.W.F.F.J.K.K.J.F.F.D.D.T.L.J.J.j.h.=XQ.2XjXaXkXlX:XoXx.7.A.'.7XuXwX",
"oX0XeXoX~.L.F.L.!.!.S.J.J.W.W.J.T.D.T.J.W.J.U.D.D.Y.F.A.A.!.'.>Xe.gXgXlXzXxX,Xe.l.Z.S.L.5X5XwX7X",
"P.,X0X9XOXoXoX;X;X].T.Z.v.W.W.S.Y.D.F.U.J.J.U.S.0.D._._.D.h.g.k.gXzXzXzXb.W.).>X:X6X8X'.].7XwX7X",
"x.qXpXeXrXrXrXuXrX8X~.F.U.!.W.W.R.T.T.W.W.W.W.R.'.!.0.9.A.wXkXxXxXzXm.j.J. Xx.sXrXtXrX6X7XuXuXuX",
"i.:XqXqXeXqX9XqXrX8XL.F.l.S.W.Z.I.U.S.l.v.m.m.m.A.S.U.T.I.l.v.v.J.J.t.oXt.Z.:XuXqXqXqX6XqXqXqXqX",
"8.i.P.y.x.Z.j.A.G.y.7.6.2.6.3.3.5.4.5.5.e.e.e.<.4.4.3.2.5.5.e.5.8.G.:.8.7.6.2.h.j.j.x.H.H.i.i.i.",
"[ } } { ] } } } } ' ' ' ' =.=.=.;.;.-.;.;.-.-.-.-.;.=.=.;.;.| >.] =.' ] ] ` >.` } ` } | { { | | "
};
