/* XPM */
static char *aneym_11740601388[] = {
/* columns rows colors chars-per-pixel */
"48 48 243 2 ",
"   c #050000",
".  c #0E0000",
"X  c #140100",
"o  c #1D0101",
"O  c #1C0A06",
"+  c #161918",
"@  c #1C0E12",
"#  c #250000",
"$  c #2A0000",
"%  c #280C06",
"&  c #360707",
"*  c #261307",
"=  c #370A15",
"-  c #2B1817",
";  c #331615",
":  c #330C12",
">  c #181E36",
",  c #1C212D",
"<  c #1B2132",
"1  c #18213A",
"2  c #063138",
"3  c #0B2F39",
"4  c #3D252B",
"5  c #232B39",
"6  c #2B323E",
"7  c #382C36",
"8  c #341C20",
"9  c #440907",
"0  c #530B0F",
"q  c #481003",
"w  c #50120A",
"e  c #470717",
"r  c #4B1319",
"t  c #58181A",
"y  c #580B1B",
"u  c #65121A",
"i  c #720C17",
"p  c #47251A",
"a  c #712618",
"s  c #642A1F",
"d  c #471A26",
"f  c #591A28",
"g  c #5D1B36",
"h  c #631B25",
"j  c #661728",
"k  c #741B2B",
"l  c #7B1B2D",
"z  c #6A1E32",
"x  c #7D1B34",
"c  c #750B24",
"v  c #462529",
"b  c #5B242B",
"n  c #532429",
"m  c #462832",
"M  c #592836",
"N  c #573436",
"B  c #4B3533",
"V  c #68262A",
"C  c #792628",
"Z  c #622432",
"A  c #6D2C35",
"S  c #692734",
"D  c #742A35",
"F  c #782739",
"G  c #693738",
"H  c #75353B",
"J  c #7A3A2E",
"K  c #6D443E",
"L  c #1A3843",
"P  c #262E44",
"I  c #263544",
"U  c #2B3443",
"Y  c #28374B",
"T  c #343848",
"R  c #343B51",
"E  c #593542",
"W  c #403144",
"Q  c #782840",
"!  c #7C3845",
"~  c #6A384D",
"^  c #39424D",
"/  c #344351",
"(  c #444354",
")  c #535055",
"_  c #764949",
"`  c #71504D",
"'  c #61605C",
"]  c #484860",
"[  c #5D747D",
"{  c #547A7F",
"}  c #5C6669",
"|  c #62737C",
" . c #657479",
".. c #70686A",
"X. c #831627",
"o. c #861937",
"O. c #8D1227",
"+. c #832828",
"@. c #842934",
"#. c #85373A",
"$. c #93223C",
"%. c #A42D3C",
"&. c #843949",
"*. c #893A5A",
"=. c #894447",
"-. c #8C5354",
";. c #856159",
":. c #A35B66",
">. c #9A7779",
",. c #8A5768",
"<. c #5F7580",
"1. c #617880",
"2. c #8A7E90",
"3. c #AF7C8E",
"4. c #CA7C89",
"5. c #758D96",
"6. c #7A8B96",
"7. c #798C98",
"8. c #6F9097",
"9. c #7B929C",
"0. c #788389",
"q. c #7E96A2",
"w. c #7CADAC",
"e. c #7BA1A9",
"r. c #7BB0AB",
"t. c #7CABB3",
"y. c #888B98",
"u. c #958B98",
"i. c #87959A",
"p. c #98969B",
"a. c #8A878E",
"s. c #A7969B",
"d. c #B39698",
"f. c #AD8992",
"g. c #9DA39F",
"h. c #8195A3",
"j. c #839AA3",
"k. c #8C9CA3",
"l. c #869DA9",
"z. c #8B9DAB",
"x. c #8D94A7",
"c. c #929CA4",
"v. c #9B9CA3",
"b. c #939EAE",
"n. c #9B9CAD",
"m. c #9994A4",
"M. c #939EB3",
"N. c #9B9EB2",
"B. c #9C9FBE",
"V. c #8A8FA5",
"C. c #A29CAD",
"Z. c #AB9AA5",
"A. c #B89BA8",
"S. c #A29FB5",
"D. c #B493B0",
"F. c #85A3A5",
"G. c #8BA3A4",
"H. c #84AAA5",
"J. c #84A5AD",
"K. c #8CA3AD",
"L. c #84AAAD",
"P. c #8CAAAD",
"I. c #8CACA6",
"U. c #92A3A6",
"Y. c #92A4AD",
"T. c #9AA3AC",
"R. c #92AAAD",
"E. c #9CA7A6",
"W. c #86B1AD",
"Q. c #85A6B1",
"!. c #8EA6B2",
"~. c #86ABB3",
"^. c #8CA9B3",
"/. c #8DACBA",
"(. c #8CA7B8",
"). c #92A5B3",
"_. c #9BA2B4",
"`. c #93A9B4",
"'. c #9AACB4",
"]. c #95A1B8",
"[. c #9CA4BC",
"{. c #95ACB9",
"}. c #9AAEBB",
"|. c #8AB2BA",
" X c #95B1B4",
".X c #94B2BB",
"XX c #9CB2BB",
"oX c #9CB3B8",
"OX c #90B5AE",
"+X c #A3A5A8",
"@X c #A2A1B4",
"#X c #A3ACB4",
"$X c #A2ACBB",
"%X c #AEABB5",
"&X c #B4ABB4",
"*X c #A2B4BC",
"=X c #ABB3BA",
"-X c #BDAEB3",
";X c #C298AC",
":X c #D0AFB3",
">X c #E9B79C",
",X c #F0CBB2",
"<X c #9EA7C0",
"1X c #98B9C2",
"2X c #A4B6C2",
"3X c #A5BBC2",
"4X c #ABBCC3",
"5X c #ACB7C5",
"6X c #B2BBC5",
"7X c #B3BECB",
"8X c #B9B9C6",
"9X c #AFAEC0",
"0X c #CFBCC4",
"qX c #ADC3C9",
"wX c #ACC8CC",
"eX c #B4C4CC",
"rX c #BAC4CE",
"tX c #B3C9CF",
"yX c #BAC8CD",
"uX c #BAC6D1",
"iX c #B6CAD2",
"pX c #BBCBD3",
"aX c #B9C9D7",
"sX c #BAD0D6",
"dX c #ACC6D2",
"fX c #BFDAE3",
"gX c #9CC5CB",
"hX c #D6C5C5",
"jX c #C3CAD5",
"kX c #C3CAD8",
"lX c #C6D2DC",
"zX c #D8D6D9",
"xX c #C8C5CE",
"cX c #E1CDCF",
"vX c #FFE0DB",
"bX c #C9D6E3",
"nX c #D6D8E6",
"mX c #D8E8F1",
"MX c #E9F7FC",
"NX c #F4FDFF",
"BX c #FBFDFF",
"VX c #F8F7FF",
"CX c #EAECF8",
/* pixels */
"T T U , 5 , , , > < < < < < > < U 6 I I I I I Y R Y Y Y L 3 2 2 1 1 > 1 1 1 1 > , , , , 5 6 6 6 ",
"T ( W T T T 6 6 T T U P 5 I U I / / / / / / / / R R R R Y I L 3 Y Y P P P P T T 6 U 6 6 U ^ ^ ^ ",
"%XrXjXrXjXjXuX7X7X5X@Xb.M.)._._.).Y.K.K.).Y.M.N.S.S.S.S.@XN.).).[.[.B.M.M._.5X7XuXuX7XrXyXkXpXuX",
"k.=XxX7X7XjXuXuXaX7X$XM.).M.).b.).).).`.).).).).N.N.S.S.@XS.S.N.].].).].M.}.5XaXuXjXuX7XeXuXyXeX",
"T.rXlXuXaXuXuXaX7X2X].).z.M.z.l.).!.!.!.!.J.^.!.K.).b.b.N._.M._.z.).M.Y.Y.).XX4XrXtXeXqXeXpXpXyX",
"k.eXuX*X_.'._.'.}.'.`.).{.{.].!.!.z.Q.!.J.!.Q.Q.^.^.`.^.`.].`.).).`.`.`.).).{.oX).).`.'.oX4XqXqX",
"k.eXsX*XY.Y.K.R.K.K.z.!.!.K.!.!.].{.^.^.^.~.~.W.w.w.r.w.w.w.L.J.G.R.K.K.K.G.J.K.).`.R.`.XXqXpXsX",
"i.eXpX*XY.Y.Y.).).^.`.).!.!.!.!.^.Q.(.!.!.P.L.W.r.r.r.r.L.W.~.P.R.U.U.G.R.`.R.P.K.^.K.K.oX3XtXtX",
"l.eXpXoXU.K.K.P.`.R.!.^.!.^.!.^./.J.^.'.U.'.U.I.H.OXOXH.G.R.T.#Xg.g.I.) MXOXP.`.^.`.^.J.OXwXtXwX",
"R.iXsX*X`.P.K.K.!.!.!.^.^.(.^.~.|.~.J.l.8Xi.+X+XE.p.y.C.&XZ.s.A.s.g.g...MXMX*Xe.K.^.P.J. XwXsXwX",
"K.eXpXXX`.`.P.K.).^.^.^.^.^.^.~.e.|.l.=Xu.s.A.v v m N E E g *.3.-Xp.' ' yXNXmX3XJ.^.Q.P. XwXtXwX",
"i.*X3X'.K.R.Y.^.K.).^.!.!.^.(.^.w.L.oXV.:XM ~ e r M S S x Q o.Q f.s.' -XzXzXNXR.!.^.P.F.^.oXoXoX",
"5.R.'.K.U.Y.Y.R.`.^.^.^.!.^.!.^.1XF.'.Z.n e g D H &.A Z Q Q x z N ` ..cXzX8XNX).`.`.K.J.J.P.R.P.",
"6.U.R.z.K.).K.K.^.Y.!.).).^.^.^.F.*Xm.4 f z x F C r $ # # # & Q G K :XhX0XzXNXNXY.!.!.P.P.P.P.P.",
"6.Y.R.U.R.R.b.Y.).).!.^.^.).!.).$Xy.m E y &.C C V & X . @ . . X ` _ vX,X0XzXzXCXY.!.!.P.R.K.P.P.",
"6.G.Y.K.).).Y.).Y.^.`.!.).^.).).c.&X4 d f F k D # o .         . _ G :XcXcXyXnXBXM.Y.K.!.L.G.F.J.",
"6.l.).!.).!.z.`.z.{.`.!.!.).!.#XZ.- m d Z ! z & o o * @ : ; X ` ! D ;X0XyXlXbXNXBXv.$XU.P.^. XK.",
"9.!.).!.).!.!.).`.z.!.{.}.).K.x.d.G N v M Q S $ o o - >.>.$ ; _ 4.F 3.%XsXbXaXnXBXn.'.T.R.J.^.!.",
"h.).!.!.).`.!.).{.z.].}.z.K.XX%XM 0 r d A ! &.$ X O O >.f.$ ;._ :.! f.p.oXfXbXaXBX+Xi.U.`.F.!.{.",
"l.).!.K.).{.!.!.{.!.1X{.q.z.}.m.f h b b h V h $ o 8 X ; & $ ` # e S -XE.9.dXmXaXVX8Xc.R.`.J.{.).",
"l.).!.z.).{.!.).{.K.!.{.).2Xq.T f j h b h F A G o * * o $ -.;.& & d Z.#XJ.1XaXkXVXCX#XU. X^.{.z.",
"q.!.!.!.{.).!.!.!.).).!.).1Xq.W b f n b f C y H p o * & & =.* o d ` C.U.Q.1XaXbXmXVX'.G.P.^.2Xz.",
"7.!.).!.!.!.!.).!.{.{.z.l.).).x.m M : d V S j #.n % % p H _ ; B ` 2.=Xj.q.|.aXbXxXNXk.F.P.L.2X].",
"7.!.).!.).!.z.{.).!.!.!.}.{.K.'.m.D.7 m f y k k A G n b ;.M p 4 s.Z.R.F.1Xe.).kXnXVXU.R. Xq.].].",
"z.!.!.).).).!.!.).^.).).`.!.!.).oXi.'.%X= j x i &.9 S _ ! n m m.s.T.R.~.L.~.2XeXlXBXR.I.^.^.z.<X",
"!.!.!.!.!.!.).!.!.).).!.).(.).^.e.gXq.T.D.j c $.k F y -.Z ;XA.+XE.T.`.~.Q.Q._.$XjXNXG.H.L.(.M.<X",
"!.!.).!.!.!.!.).^.).!.`.).`.!.^.t.t.t.).;Xy O.o.X.@.&.&.e M Z.v.v.Y.~.~.~.Q.b.n.jXBXG.H.P..XM.<X",
").).).!.z.!.!.).).).!.^.!.).!.(.1Xt.<X@Xd Q i X.@.u =.D *.= Z.%XT.!.~././.(._.n.jXNXI.H.~..XM.B.",
"!.^.).!.!.!.).).).^.).].^.).).`./.z.$X4 n u l X.a J =.s D b ` u.T.R.Q.~./.}.@X@XxXNXI.H.L..X].B.",
"z.!.].).!.z.!.).!.).).!.).!.).).n.C.T 7 t @.i +.a -.w w h A b &X_.^.~.Q.(.).n.C.%XNXI.H.L.{.].<X",
"j.z.!.).!.!.!.).).).!.).).).]._.D.~ = M V +.+.a ,X>Xq t =.H b A._.!.~.(.!.M.C.C.+XMXI.H.w.(.M.<X",
"q.z.).).!.K.K.(.^.^.).^.).].].S.D.e z y +.+.a a ,X,X& J C u V d.b.Q.1X/.(.M._.@XT.NX XW.L.(.M.B.",
"7.k.Y.).!.^.^.Q.~..Xz.!.z.N.5Xu.n r @.i i #.s ` ,X,X& a +.C V d.E.^.^./.(.].).).2XmX.Xj.XXl.Y.).",
"V.b._.).K.^.Q.e.^.^.!.<X<XN.2.) p V i %.%.i J B * p & +.@.@.t N E.~.(.^.!.(.^.^.q.dXl.q..XK.'.).",
"c.T.Y.Y.K.Q.L.J.~.(.).).<XV.] @ d 0 o.O.O.+.=.;.* & w @.c C f ; T.^.^.(.(.^.(.!.q.<Xj.K.'.z.).l.",
"n._.Y.z.K.^.^.^.Q.Q.!.l.B.x.] W v A o.$.O.@._ : ; : G @.k F V B T.(.(.^.!.^.).).).{.K.{.`.l.`.k.",
"$X$X'.).Y.^.^.~.!.!.{.z.B.<Xy.m.4 d k x k ! ` - - - G f f y ; B _.!.!.^.).].).^.!.z.z.'.`.'.3X`.",
"6X7X4X$X).P.L.^.Q.^.{.).B.[.B.9X%Xm f = g ,.- @ + + 4 v M M N a.).(.^.(.!.^.!.^.).K.K.).'.4XtXeX",
"7XrXrX2X`.K.K.^.!.^.!.].z.x.N.b.i.E.D.0XA...i.R.H.OX=X-X%XZ.i.*X).^.!.!.^.).).).`.`.'.U.}.tXpXtX",
"6XrXuX2XY.F.K.^.^.!.z.1X].M.9Xb.R.K.n.&X8XN.F.W.W.W.OXeXb._.R.J.^.!.).!.).^.^.).l.`.).j.}.pXuXtX",
"6XjX7X'.'.R.J.K.K.^.`.).Y.b.b.).Q.L.K.T.n.Y.J.L.r.r.L.K.P.K.L.K.^.!.z.!.).`.).K.).'.).U.'.rXuXtX",
"6XjXyX*X`.R.K.P.K.^.`.).).).).).^.L.).).).).!.L.~.t.~.!.^.!.^.!.`.!.!.).).`.Y.K.b.Y.Y.U.}.tXuXtX",
"=XuXyX*X'.R.K.R.`.P.K.K.Y.).).M.!.!.).N.N.n.).).^.^.).).].).).).!.).Y.K.K.K.Y.`.Y.R.T.R.#XqXpXeX",
"T.6XyX6X4X*X*X4XqX.X).K.Y.Y.).).!.).N.N.S.S.N.N.M.!.Y.).M.N.N.N.).!.).K.K.).}.3X4X4X3X*X=XeXyXyX",
"k.6XsXpXiXiXiXsXsXqX'.R.).).`.).].)._._.S.S.S.S._._.)._._._._.N.).).).).U.'.4XaXsXpXyXtXiXpXjXyX",
"p.4XyXyXyXtXeXtXdX3X`.K.z.K.Y.Y.z.z.!.M.M.n.n.n.b.M.K.K.z.b.N.M.z.K.U.K.z.R.2XeXtXeXeXeXeXeXeXtX",
"0.v.U.k.U.k.G.G.G.j.9.5.5.5.7.5.8.8.8.5.7.7.6.6.8.8.8.8.8.5.7.7.6.7.6.6.6.6.i.l.k.k.k.c.G.i.p.G.",
"}  . .} | | | | | [ [ 1.1.<.<.[ { { <.{ <.[ 1.[ { <.<.<.{ <.1.1.[ <.| [ | [ [ } | |  . . . . . ."
};
