/* XPM */
static char *anemy_21740601388[] = {
/* columns rows colors chars-per-pixel */
"48 48 228 2 ",
"   c #0D0200",
".  c #090408",
"X  c #120101",
"o  c #1C0000",
"O  c #180707",
"+  c #1C140B",
"@  c #1B0D18",
"#  c #1B1818",
"$  c #0F1511",
"%  c #240203",
"&  c #260608",
"*  c #34080A",
"=  c #2B160D",
"-  c #370914",
";  c #271717",
":  c #36171A",
">  c #33080C",
",  c #2F2117",
"<  c #161D2E",
"1  c #181F32",
"2  c #281A23",
"3  c #37192C",
"4  c #172229",
"5  c #1C2232",
"6  c #1E2836",
"7  c #35272C",
"8  c #232B3D",
"9  c #392737",
"0  c #27343D",
"q  c #2D2F33",
"w  c #490908",
"e  c #48161A",
"r  c #581718",
"t  c #540A11",
"y  c #711714",
"u  c #6A0D16",
"i  c #451A25",
"p  c #5C1E2C",
"a  c #561825",
"s  c #691A27",
"d  c #771A25",
"f  c #631E34",
"g  c #740F21",
"h  c #48262A",
"j  c #53232B",
"k  c #5A2228",
"l  c #482634",
"z  c #592935",
"x  c #48373D",
"c  c #583537",
"v  c #5D302D",
"b  c #662629",
"n  c #7D2428",
"m  c #662936",
"M  c #762B37",
"N  c #6A3639",
"B  c #713631",
"V  c #77423E",
"C  c #1A3343",
"Z  c #282F41",
"A  c #272F40",
"S  c #2C3344",
"D  c #2B3749",
"F  c #333A4C",
"G  c #353747",
"H  c #2E3D52",
"J  c #333B51",
"K  c #463649",
"L  c #53394F",
"P  c #6A3948",
"I  c #793A4A",
"U  c #69354A",
"Y  c #36434D",
"T  c #324758",
"R  c #5B414C",
"E  c #424455",
"W  c #534B57",
"Q  c #78464C",
"!  c #624C52",
"~  c #724A57",
"^  c #6E5653",
"/  c #545062",
"(  c #5F727C",
")  c #5B686E",
"_  c #726464",
"`  c #696F7F",
"'  c #63737D",
"]  c #657479",
"[  c #6A4964",
"{  c #871C2C",
"}  c #842D3C",
"|  c #892938",
" . c #922638",
".. c #87383A",
"X. c #8D282D",
"o. c #84403D",
"O. c #8A3845",
"+. c #963B47",
"@. c #974856",
"#. c #8E4E4F",
"$. c #A34A57",
"%. c #906D70",
"&. c #A56D79",
"*. c #9E817D",
"=. c #5E7480",
"-. c #617880",
";. c #827E99",
":. c #AD7983",
">. c #778C95",
",. c #7A8B96",
"<. c #798997",
"1. c #7A949D",
"2. c #6F858D",
"3. c #7D94A1",
"4. c #7B9BA5",
"5. c #7DA3AC",
"6. c #818699",
"7. c #938D9E",
"8. c #85979B",
"9. c #96999C",
"0. c #948D8D",
"q. c #B8939C",
"w. c #AB8E9A",
"e. c #97A09F",
"r. c #8396A3",
"t. c #839CA4",
"y. c #8C9CA3",
"u. c #859CA9",
"i. c #8B9CAB",
"p. c #8E95A6",
"a. c #9C93A3",
"s. c #909CA3",
"d. c #9D9CA4",
"f. c #949DAD",
"g. c #9B9DAE",
"h. c #9694A7",
"j. c #9C9DB2",
"k. c #949EB1",
"l. c #928FA3",
"z. c #A899A6",
"x. c #B699A4",
"c. c #AB9BB3",
"v. c #85A4AC",
"b. c #8CA3AD",
"n. c #86AAAD",
"m. c #8BA9AD",
"M. c #8AA3A6",
"N. c #92A4AE",
"B. c #9AA2AD",
"V. c #93A9AF",
"C. c #99A5A8",
"Z. c #8EA5B2",
"A. c #87A8B1",
"S. c #8CA9B3",
"D. c #8DA7B8",
"F. c #86A8B3",
"G. c #92A5B3",
"H. c #9AA2B5",
"J. c #93A9B4",
"K. c #9AACB4",
"L. c #9CA6B8",
"P. c #95ACB9",
"I. c #9BADBB",
"U. c #94A3B8",
"Y. c #8EB2B9",
"T. c #9CB0B7",
"R. c #93B2B9",
"E. c #9DB1BB",
"W. c #99B5BB",
"Q. c #94B1AF",
"!. c #ACA2AC",
"~. c #A5A6A9",
"^. c #BCA3AA",
"/. c #A2A3B4",
"(. c #A3ABB5",
"). c #A2ACBC",
"_. c #A8A7BA",
"`. c #B8A8B4",
"'. c #A2B3BC",
"]. c #A7B7BD",
"[. c #FFB9B3",
"{. c #D4B0BC",
"}. c #FFC5BC",
"|. c #9EB7C3",
" X c #9DAEC0",
".X c #A8AFC0",
"XX c #A4B6C2",
"oX c #A4BBC3",
"OX c #ABBBC3",
"+X c #ABB9C6",
"@X c #B2BBC5",
"#X c #B3BECA",
"$X c #B8B5C4",
"%X c #CBBAC7",
"&X c #CFB8C8",
"*X c #EBBCCC",
"=X c #ADC1C9",
"-X c #A3C5CE",
";X c #B3C4CC",
":X c #BAC4CE",
">X c #B5C8CF",
",X c #BAC9CE",
"<X c #BAC5D1",
"1X c #B6CAD2",
"2X c #BBCBD4",
"3X c #B5C6D0",
"4X c #BBD8D8",
"5X c #AFCECF",
"6X c #C8C7CD",
"7X c #DAC3CC",
"8X c #C7C9D5",
"9X c #DCCBD8",
"0X c #C9D3D7",
"qX c #DAD5DB",
"wX c #E2C6CD",
"eX c #FFC8C1",
"rX c #E9C7D3",
"tX c #F7C2D4",
"yX c #DBD8E3",
"uX c #E8DBE4",
"iX c #DCEAEE",
"pX c #DAFCFC",
"aX c #EAFFFF",
"sX c #E4FBFD",
"dX c #FFF5FF",
"fX c #F3FEFF",
"gX c #FCFEFF",
"hX c #F0EAF8",
/* pixels */
"G G 9 5 8 5 4 5 1 1 8 8 8 < < < S S J H D C C C T H G S Z 8 1 1 1 1 1 1 8 1 5 1 5 5 5 4 6 0 0 0 ",
"G E J S 0 G S 9 J G 8 8 8 8 S D J J H H H T T T H J J J F S A A S Z Z Z Z Z S F 0 0 0 A S Y Y Y ",
"(.6X8X6X8X2X,X<X#X+XH.f.g.K.H.L. X XU.k.i.D.k.f.j.j.L.L.L.G.D.i.K.H.H.f.j.H..X#X<X<X<X>X>X2X2X<X",
"s.].:X#X<X8X<X<X2X#XI.k.f.H.k.u.r.F.D.U.U.I.j.g.j.j.j.H.U.S.D.Z.G.U.H.G.k.I.#X2X2X2X<X;X>X,X>X@X",
"B.:X0X<X<X<X<X2X+XXX).Z.i.i.i.u.u.F.A.Z.H.K./.g.g.j.j.B.G.v.A.A.i.U.Z.k.b.U.E.OX;X;X>X#X;X<X2X:X",
"y.#X1X].H.G.K.K.I.I.K.i.k.P. XS.Z.v.M.b.p.p.f.j./.j.K.U.J.P.S.S.D.J.J.P.G.J.P.I.G.U.V.K.'.=X;X;X",
"y.;X2X'.N.N.i.G.b.Z.Z.u.b.Z.Z.3.J.m.K.XX'.d.g.(.f.f.b.N.b.M.Z.Z.i.Z.Z.Z.b.b.b.b.m.G.G.J.'.;X2X2X",
"r.=X2X'.N.N.N.V.b.Z.G.S.P.P.3.=.fXfXgXgXiX].p.b.m.b.b.m.N.B.H.H.G.Z.Z.Z.S.S.J.S.m.N.b.N.K.].>X:X",
"M.;X1XE.N.m.b.b.M.m.G.S.R.P.3.( / 6XqX:XgXfXaXaXY.4.R.n.C.(.a.c.k..XU.5.|.5.S.S.m.J.S.M.K.=X>X=X",
"V.<X4X].V.m.b.b.J.P.P.Z.S.P.D.r.W uX7XuX~.0XiXpXpXpXpXW.C.a.%Xc.$X-.i.#Xu.|.4.F.m.m.m.b.T.>X2X>X",
"m.>X1X'.J.V.N.b.b.P.P.v.u.S.P.K.~.! 7X7XuX$X0X4X4X5XsXpXdX/ 3 z.j..X.Xi.u.4.D.P.m.m.m.M.T.=X>X;X",
"8.'.].J.V.N.m.m.v.J.S.b.v.b.A.N.!.! wX7XwXwX0X,X5X4X4XaXdXdXU [ $X-. Xp. X XP.F.n.S.m.m.m.T.'.'.",
">.N.K.N.b.N.b.V.Z.J.J.S.S.J.S.b.~._ x }.rX{.rX7XqX0X,X2X8XdXdX3 J $Xh..XI.J.S.v.m.S.n.v.m.V.V.N.",
",.M.J.s.N.N.N.m.P.J.Z.Z.S.P.P.N.9.~._ 7 i U *XrX%XqX0XiX8X8X9XdXL h./.L.f.r.J.R.m.n.m.m.M.m.m.N.",
",.C.V.M.N.V.b.N.J.m.b.Z.Z.S.G.J.Q.0.^ ^ a f f U ~   %XyX_.yXyX&XdXZ _._.p.XXM.P.m.n.v.m.m.m.m.V.",
",.M.N.b.N.J.N.G.J.J.J.I.P.Z.Z.b.~.e.7 ^ a f O.p % X O . . yX&X9X&XdXz.h..XZ.P.v.A.m.b.S.m.M.M.M.",
"<.M.G.Z.G.b.Z.J.u.P.J.Z.Z.Z.Z.(.^.= c ^ Q v N o   +   + > * > o tX*XdXd.8.T.5.Y.F.D.U.U.m.m.m.n.",
"1.Z.G.Z.G.Z.Z.G.P.i.Z.P.I.J.i.9.q.v = h Q N V o     = *.:.* - :.&.m &XdX].S.5.Y.D.D.H.H.H.V.m.n.",
"r.Z.D.Z.G.J.b.G.P.i.P.I.u.b.E._.l k k h #.b s % X O = %.&.- & :.&.P ^.z.sXQ.4.|.D.U.H.j.H.V.m.n.",
"u.G.Z.i.J.J.Z.G.P.Z.I.P.3.Z.I.7.i r e e #.@.b % % = O & i - O ; i c x.9.Q.J.F.5.D.U.U.H.G.V.m.m.",
"u.G.Z.i.J.J.D.Z.P.b.Z.J.Z.|.3.G l p P i a } +.M * % = > % & @ O o l z.~.Q.S.5.F.D.U.U.H.H.N.m.m.",
"3.Z.G.Z.J.J.Z.U.G.G.G.Z.Z.|.3.E K - i e s +.$.s e o % = o & ; < R R `.8.K.A.-X4.U.U.k.H.H.G.N.V.",
",.Z.G.Z.G.Z.Z.J.Z.P.P.Z.u.G.G.p.l L l c f f $.d k * = & & 3 ; < 9 z.d.C.M.|.2.-XZ.U.H.H.H.N.N.m.",
"<.Z.G.Z.D.Z.i.J.G.G.i.Z.E.U.m.I.g.z.2 3 p t $.d B v c z c c 2 q `.9.g.T.M.S.S.P.D.U.H.H.H.N.G.N.",
"Z.v.Z.Z.G.Z.Z.Z.Z.D.G.S.G.G.Z.G.V.y.C.`.i r $...b e v e h l 7 ~.C.d.B.N.V.J.S.S.Z.U.H.H.G.H.G.G.",
"Z.D.Z.G.Z.G.G.Z.G.G.G.G.G.Z.J.G.V.].M.9.q.b s $.B V w j v q.x.z.c.B.N.G.G.m.G.G.Z.G.G.G.G.G.G.G.",
"G.G.Z.Z.Z.Z.Z.G.G.S.S.G.S.Z.G.Z.Q.4.Q.e.q.r d +.o.B r V a z q.!.B.N.N.G.G.G.G.G.G.Z.G.G.G.G.G.G.",
"G.Z.G.Z.Z.b.Z.G.Z.G.G.Z.G.G.S.G.Q.V.8.~.7 b d y o.b w r s z q.z.B.G.G.G.G.G.G.G.J.G.S.G.G.G.G.G.",
"Z.Z.J.Z.b.Z.G.G.G.G.Z.G.D.Z.G.G.I.(.C.7 j t n y #.B w b M a N z.B.G.G.U.N.H.H.G.Z.N.S.S.S.S.Z.Z.",
"i.Z.G.G.Z.i.Z.G.G.G.J.Z.G.G.Z.k.c.7.G h r ..u X.X.}.[.s s I P w.H.D.G.U.H.G.H.G.Z.S.S.S.S.S.S.Z.",
"u.u.G.G.Z.Z.Z.Z.G.D.G.Z.G.G.D.j.c.K : z s ..{ X.y }.}.r O.s P w.H.F.U.G.H.H.H.Z.G.A.S.m.D.S.Z.Z.",
"r.i.b.U.G.b.A.Z.S.S.Z.G.G.G.k.c.c.i j k X.y { X.w }.[...n s m ^.j.Z.Z.U.G.G.H.G.G.m.S.S.S.S.S.S.",
",.p.N.b.A.Z.S.A.S.Y.i.G.i.k.$X7.i a s g d | B v * w o.{  .g m q.B.D.D.Z.G.G.Z.G.Z.Z.Z.Z.b.b.b.G.",
"p.f.H.G.m.S.A.v.F.S.D.I..Xj.;.W i r  . . .} e = o j #. .{ | b h B.S.D.D.D.D.D.S.Z.A.Z.G.G.m.G.G.",
"f.B.G.N.b.A.A.v.F.F.D.U. Xl.E @ h N g O.O.s c , = & t $.| s b 7 N.S.S.D.D.Z.Z.G.Z.b.Z.G.N.G.N.N.",
"f.N.B.i.b.S.A.A.F.v.G.u.U.h.E G l * U s M I & + + : b @.O.M h ; G.D.D.S.S.Z.D.S.G.G.b.b.m.G.N.M.",
"(.(.K.N.m.G.S.S.F.F. Xi.U..X;.h.x l c f a i + $ $ O z m I z : E H.Z.D.Z.G.S.S.G.b.G.N.G.G.I.E.K.",
"@X;X+X'.J.Z.m.S.u.F. Xk.U._.j..Xd.7 l & P 0.4 4 0 . l l [ l 7 7.G.S.Z.S.G.D.G.S.i.m.Z.N.E.;X3XOX",
"#X<X<XXXV.v.b.S.D.S.D.U.k.p.j.j.C./.c.{.%Xz.C.M.4.Q.6X`.`.`.j.K.G.S.Z.D.Z.S.G.G.N.G.N.b.E.>X2X2X",
"@X:X:X.XN.M.v.S.D.F.u. XU.U..Xk.b.).z.$X$Xf.T.m.Q.Q./.%Xa.z.(.i.S.Z.G.Z.J.Z.G.Z.G.J.G.M.K.;X1X>X",
"@X,X;XT.K.V.M.m.b.S.J.J.N.i.H.H.Z.b.j.g.f.H.A.A.n.b.H.f.j.f.N.Z.S.Z.i.b.J.J.N.b.G.K.V.M.(.;X2X;X",
"@X8X:X'.K.J.M.m.b.G.G.G.G.f.G.G.Z.A.G.H.G.Z.Z.A.S.A.Z.H.G.G.S.Z.J.Z.Z.G.Z.J.N.N.y.N.N.b.T.;X2X,X",
"].6X:X'.K.V.b.V.P.m.m.N.N.H.G.N.Z.Z.Z.G.G.Z.A.A.F.F.Z.G.G.G.Z.F.Z.G.Z.b.b.N.N.J.G.V.V.B.T.;X,X;X",
"B.OX,XOXOX'.E.oXoXW.G.b.b.G.G.i.Z.Z.Z.D.Z.Z.Z.Z.A.Z.Z.Z.Z.Z.Z.A.Z.Z.G.Z.M.G.E.XXOXOXOX'.].;X,X;X",
"s.;X8X,X<X1X1X4X1X=XP.V.Z.G.G.G.G.G.G.Z.G.G.U.G.U.G.G.G.Z.J.G.G.G.G.G.N.N.K.+X1X2X2X2X>X,X2X,X,X",
"s.].:X,X,X:X;X>X5XoXK.m.M.Z.N.N.G.f.Z.b.Z.b.N.f.f.G.Z.b.b.Z.Z.k.b.b.b.b.M.N.XX;X>X;X;X;X;X:X:X,X",
"2.C.C.8.y.M.M.M.M.t.1.>.>.,.>.>.,.<.,.,.<.<.<.6.6.<.<.<.<.<.6.,.,.>.<.>.>.<.8.t.y.8.y.y.9.8.9.M.",
") ] ] ) ' ] ] ' ( ( ( =.-.-.=.=.` =.-.=.' ' ` ` ` ` -.' ' ' ] ` ( ( ' ( ( ( ( ( ] ] ' ] ] ] ] ] "
};
