/* XPM */
static char *enmy_71740601389[] = {
/* columns rows colors chars-per-pixel */
"48 48 244 2 ",
"   c #020201",
".  c #070908",
"X  c #120100",
"o  c #1B0000",
"O  c #170A05",
"+  c #181813",
"@  c #0C150F",
"#  c #230102",
"$  c #2D0203",
"%  c #240C0B",
"&  c #2B090A",
"*  c #340001",
"=  c #380709",
"-  c #260913",
";  c #261917",
":  c #361516",
">  c #321115",
",  c #30241E",
"<  c #1A1E2D",
"1  c #1D1E32",
"2  c #1A0E22",
"3  c #381726",
"4  c #201B21",
"5  c #1C222C",
"6  c #1C2132",
"7  c #1A302D",
"8  c #25212C",
"9  c #382328",
"0  c #252938",
"q  c #342D3E",
"w  c #2B333E",
"e  c #24323D",
"r  c #373439",
"t  c #0C2017",
"y  c #550207",
"u  c #490B15",
"i  c #56081B",
"p  c #471719",
"a  c #59151B",
"s  c #440205",
"d  c #68171A",
"f  c #680916",
"g  c #471828",
"h  c #581927",
"j  c #501127",
"k  c #690D22",
"l  c #651C23",
"z  c #681929",
"x  c #751B2B",
"c  c #791B35",
"v  c #6F1F38",
"b  c #492528",
"n  c #58242A",
"m  c #462B35",
"M  c #582837",
"N  c #5A3337",
"B  c #4D3231",
"V  c #6A252A",
"C  c #76282A",
"Z  c #692937",
"A  c #782637",
"S  c #683535",
"D  c #763239",
"F  c #292E40",
"G  c #392D43",
"H  c #2C3343",
"J  c #2B3541",
"K  c #373848",
"L  c #3F3E50",
"P  c #453445",
"I  c #563B47",
"U  c #762D44",
"Y  c #6A3847",
"T  c #7A3B48",
"R  c #692943",
"E  c #3A424D",
"W  c #36434B",
"Q  c #584749",
"!  c #56555A",
"~  c #4C4957",
"^  c #694C4C",
"/  c #72494C",
"(  c #6E5155",
")  c #595B63",
"_  c #465466",
"`  c #5B656A",
"'  c #5B6B74",
"]  c #5D747D",
"[  c #5F7276",
"{  c #4F6C74",
"}  c #6A6568",
"|  c #626D7D",
" . c #62747B",
".. c #677578",
"X. c #6B5069",
"o. c #861C34",
"O. c #991A35",
"+. c #90102E",
"@. c #832837",
"#. c #84333D",
"$. c #942743",
"%. c #873842",
"&. c #8F3045",
"*. c #8D4D51",
"=. c #9C4E5D",
"-. c #5D7681",
";. c #567982",
":. c #637782",
">. c #787C8B",
",. c #927A8F",
"<. c #7A8D95",
"1. c #748D99",
"2. c #7B8C9A",
"3. c #788A96",
"4. c #6E9099",
"5. c #7C949C",
"6. c #778285",
"7. c #7D9BA4",
"8. c #7B97A6",
"9. c #7CA7A8",
"0. c #76ABB1",
"q. c #8A878E",
"w. c #828B97",
"e. c #978799",
"r. c #849A9D",
"t. c #879799",
"y. c #94949C",
"u. c #929B9E",
"i. c #9A969A",
"p. c #97928E",
"a. c #A68896",
"s. c #A59B9D",
"d. c #B08F97",
"f. c #8BA29D",
"g. c #94A796",
"h. c #8294A4",
"j. c #8B94A5",
"k. c #859BA3",
"l. c #8A9DA4",
"z. c #859DAB",
"x. c #8B9DAB",
"c. c #8E97A8",
"v. c #919BA3",
"b. c #9C9DA3",
"n. c #939DAD",
"m. c #9798A9",
"M. c #8D9EB1",
"N. c #989DB4",
"B. c #878DA1",
"V. c #A89BA7",
"C. c #B79AA9",
"Z. c #A69FB2",
"A. c #A187A2",
"S. c #8BA1A6",
"D. c #86A3AC",
"F. c #8CA3AC",
"G. c #85ABAC",
"H. c #8BA9AE",
"J. c #85A4A4",
"K. c #93A3A5",
"L. c #92A5AD",
"P. c #9BA3AC",
"I. c #93A9AE",
"U. c #9AA8AA",
"Y. c #85A6B1",
"T. c #8DA5B2",
"R. c #85ABB2",
"E. c #8CAAB3",
"W. c #8CA8B9",
"Q. c #93A5B3",
"!. c #9AA4B5",
"~. c #93AAB3",
"^. c #9AABB3",
"/. c #93A5B9",
"(. c #99A4BA",
"). c #94ACB9",
"_. c #9BADBA",
"`. c #89B4B7",
"'. c #95B1B6",
"]. c #9CB1B6",
"[. c #94B4BC",
"{. c #9CB3BA",
"}. c #9EB8B9",
"|. c #9FB3A7",
" X c #A1A3AB",
".X c #A8A6A8",
"XX c #B8A5A9",
"oX c #A4B7AC",
"OX c #A1A4B4",
"+X c #ACABB4",
"@X c #A3ACBB",
"#X c #A5A7B8",
"$X c #B6A5B5",
"%X c #A3B4BC",
"&X c #A6B6B9",
"*X c #B4B5BB",
"=X c #C78F92",
"-X c #C7ABAF",
";X c #F0BAB1",
":X c #B5C9BF",
">X c #D3C1BB",
",X c #FAC8BF",
"<X c #9AB5C2",
"1X c #93B4C3",
"2X c #A5B5C2",
"3X c #ACB5C2",
"4X c #A6BCC4",
"5X c #ACBCC4",
"6X c #ACBDC9",
"7X c #B2BBC5",
"8X c #B3BECB",
"9X c #B3B4C8",
"0X c #B8BBD3",
"qX c #AFAEC3",
"wX c #C8BCC8",
"eX c #9BC1C4",
"rX c #ADC1C9",
"tX c #AFC8CD",
"yX c #B4C4CC",
"uX c #BAC4CE",
"iX c #B5C8CF",
"pX c #B8C8CC",
"aX c #BAC5D1",
"sX c #B5CAD2",
"dX c #BCCBD3",
"fX c #B8C8D5",
"gX c #BCD0D7",
"hX c #B8D3E4",
"jX c #CAC6C8",
"kX c #D3C8C8",
"lX c #C2CCD5",
"zX c #C2C9D9",
"xX c #C7D3DC",
"cX c #D7D4D6",
"vX c #C9DFCA",
"bX c #ECD2CE",
"nX c #C4D7E5",
"mX c #D5DEE8",
"MX c #CCE3EF",
"NX c #DCE8F0",
"BX c #E7F5FE",
"VX c #F4FEFF",
"CX c #FCFEFE",
"ZX c #F8F3F7",
/* pixels */
"K K 0 5 5 8 5 6 1 6 6 6 6 6 6 6 J e w w H r G G P P K G q 0 8 1 1 1 1 1 0 1 1 1 1 8 6 6 0 w w w ",
"J ~ ~ K K H H H K H H F e F H H W W E E K L P E L L L K H H e e H H F F F H H K H H w w J W W W ",
"+XuXlX0XzXzXuXuX8X3X(.n.M.N./.!.F.L.F.K.F.Q.L.T.W.W.E.W.`.R.0.D.!.!.!.n.N.(.qX8XaXaXaX8XuXdXlXdX",
"l.3XjX8XaXaXuXaXgX8X@XQ./.Q.Q.M.Q.T.~.E.E.E.E.E.Y.Y.R.R.R.R.R.R.Q./.!.Q.n.@X6XaXaXaXaXyXyXuXpXrX",
"P.uXxXdXaXaXaXdX8X2X/.M.n.T.M.z.T.Y.M.W.M.W.Y.Y.Y.Y.T.T.E.T.T.T.x.T.n.T.M.~.{.6XfXfXyXyXyXaXdXiX",
"l.8XaX%X!.^.!.^._._.!.~.!.).!.Q.T.Q.W.M.Y.Y.T.T.~./.)./.).!.!.!.Q.)./.).~.~.~.{.I.Q.^.~.].rXyXrX",
"l.yXdX%XL.L.F.L.x.F.x.T.T.F.T.M.(.<X(.(././.W.~.T.T.x.n.n.N.N.N.T.T.Y.Y.Y.D.D.D.D.E.I.~.{.yXdXsX",
"r.rXdX%XL.F.L.~.~.~.E.~.T.Y.T./.N.N.N.N.N./.T.T.Q.F.T.T.Q.Q././.T.T.T.T.E.E.~.R.H.H.D.H.'.4XiXiX",
"l.yXsX{.K.H.F.F.Q.H.Q.E.E.E.W.~.8.0X2.<X{.E.E.G.9.E.`.G.G.`.0.E.).Y.T.E.).R.E.H.R.E.H.F.'.rXiXrX",
"L.dXgX%X~.H.F.H.T.Q.E.E.T.E.T.W.<X8.1X`.D.7.S.&X].I.k.l.'.~.T.~.x.).).T.D.E.E.R.G.G.H.D.'.iXgXiX",
"L.yXdX}.~.Q.F.H.Q.E.T.E.T.E.W.R.8.1X`.7.~.%Xu.i.i.s.V.$X$X,.e.$XZ./././.Y.Y.E.E.H.G.H.G.'.rXiXrX",
"r.%X4X~.H.L.L.H.H.Q.T.E.E.E.E.R.0.0.9.eXS.u..Xm 3 b h Z R R =.d.qXn.c.(.{.~.D.E.H.H.H.J.H.}.%X].",
"3.L.^.F.K.H.L.~.Q.E.~.E.T.E.T.W.`.0.1X7.*X9 Y p D A c c c c c R ,.Z.#XN.!.~.~.D.R.H.H.F.F.I.I.L.",
"<.S.Q.F.L.L.x.L.Q.H.T.T.E.T.T.T.1XW.I.+X3 b u Z k x x c @.U v R X.N.0XZ.j./.{.D.H.H.F.H.F.I.L.I.",
"<.L.I.K.Q.L.F.H.L.T.Q.~.~.~.T.~.m.Z.C.3 M i A %.%.V s # o X 2 P P ,.qXZ.j.!.{.F.H.D.G.H.H.F.L.I.",
"<.S.L.F.Q.~.H.Q.T.~.E.T.T.T.T.!.#XC.g M h U D l l * o X O     . P X.e.#X@XQ.Q.T.Y.F.H.Q.H.S.S.F.",
"1.M./.T.T.T.F.).[.D.).D.4XE.F.Q.V.V.M g j T h Y # X X O     X o # M d.*X@XD.E.Y.W./.(.Q.Q.I.H.H.",
"8.T.W.T./.Y.M.~.T.z.).).5.D.).K.y.Q 3 h U U i * $ X O O % % $ $ * R C.i.2.D.[.0.W./.(.N.Q.L.G.G.",
"8.M./.Y.).T.T.T.!.~.T.4Xz.].H.v.A.g 3 j U A A * * # : / / u s T T Y d.V.I.[.R.W.W./.(.N.Q.I.H.G.",
"z./.Q.D.!.).Q.T.T.~.r.I.~.F.l.!.Q > R z c @.@.* $ # > ^ Y - = / *.I a.V.^.'.7.R.W./.N.!.Q.E.H.G.",
"j.~.T.x.^.~.Q.L.L.I.^.F.l.l.5Xb.> h A k k o.A s $ : % . + + + ; - M $X Xl.~.`.W.W./.!./.Q.L.H.G.",
"h.Q.!.x.Q.L.K.Q.~.l.%X^.k.oXgXr M R h a k #.C D $ : + @ t t @ . - I V.+XL.D.[.R.W.Q.N.Q.Q.L.H.H.",
"2.L.Q.L.!.L.n.I.S.I.l.l.S.].K.8 , 9 p V V Z l n $ X O 8 +   . < m ( q. XI.k.{.7.T.Q.N./.Q.H.H.H.",
"3.K.Q.L.Q.L.K.I.L.NXK.K.&XK.r.&Xr 9 b b u h D S S : # - O 2 9 3 Q e.+X XF.'.MX[.~.Q.T.Q.L.L.I.H.",
"~.n.x.L.K.l.L.2XK.^.L.K.I.^.I.t.s.XX; S a a C d C C Z / h M M 3 V. X XP.L.Q.E.T.D.T.4Xz.F.k.{.J.",
"L.l.S.!.^.!.%XyXK.^.^.L.L.U.t.6.^ ( XX=Xp C y C C f i C j U M C.V.P.P.L.L.I.H.Q.Q._.6XrX~.~.^.I.",
"!.L.Q.Q.Q.L.~.%XK.~.I.L.I.~.K.q.g.( / *.=Xy C d C #.l u Z ,.,.C.m.L.L.L.L.L.L.H.H.^.{.dXL.L.l.Q.",
").~.Q.T.x.h.l.L.L.~.L.F.U.].{.^.g.-XXX^ / *.C C C d a Z Z m -XV.U.I.L.I.L.Q.Q.I.x.H.^.4XF.L.F.K.",
"M.T.~.~.Q.T.T.!._.~.Q.S.F.I.Q.I.g.f.g.p.Q ;X;X,XC C d l a n -XV.I.H.H.L.Q.L.U.L.L.F.].S.I.~.4X^.",
"M.M.W.!.~.T.~.).T.T.~.~.L.F.F.J.f.f.oXr ; ,X,X,X*.@.y d Z N b V.I.G.E.H.L.L.L.L.~.L.}.5.I.].yX^.",
"z.M.W.W.T.T.T.Y.Y.T.~.~.~.E.T.!.$X$X; N p S d d C =.*.#.S ( 9 P.F.R.E.E.L.Q.U.L.I.F.I.H.F.I.%XL.",
"8.z./.W.W.E.T.T.).E.T.T.T.F.Q.OXV.g M a C @.C C @.y s *.*.N S s.K.H.I.I.L.L.!.L.I.H.S.}.S.K.K.K.",
"2.c.N.T.Y.E.E.R.7.).z././.c.qXm..Xb V y O.&.a S , & = C #.D =.d.s.g..Xu.I.#Xh.!.).z.F.}.f.g.|.g.",
"j.n.Q.Q.T.E.R.D.Y.[.T.M.!.#XqXe.9 n x +.O.f T B . ; p l C #.*.^ ^ p.s.U.m.^.(./.M.T.I.r.t.oXvXg.",
"m.n.Q.L.F.D.R.D.R.W.).x.(.(.>.~ 9 n o.+.O.O.C : , : p C @.o.z n ^ } ! g.OXm.n.Q.2XN.Q.U.:Xg.:Xg.",
"P.!.L.x.D.E.E.E.T.D.<XQ.(.M.~ 2 B h $.+.+.$.a = % o s V @.c h n g. X! ) ) OX@Xn.!.t.v.K.g.<.:Xg.",
"#X@X^.Q.H.T.E.H.E.8.)./.(.B.~ G m g z $.$.$.n - % 9 Y Z A &.h g .X#Xv.m.) ) ! +Xy.&X*Xu.g.K.:Xt.",
"7XrX5X@XQ.H.E.E.[.z.T.Q.(.N.B.m.r > Z v i j # 9 , ; B n j h g I u.F.P.v.y.+X} Q } p.i.+X&XpXpX&X",
"8XuXuX4X~.F.D.E.).E.Y.Q.(.N.qXqXU.r 3 g Y ,.8 @ 7 @ 7 m q m P q.Q.~._.%XP.y.i.cX! } ! q.P.dXgXxX",
"7XuXuX2XL.J.D.E.z.<XT./.N.h.qXh.k.{.m.wXV.V.].J.G.f.pX&Xb.V.w.%XT.<Xh.x. X XjXkXkXkX} ! } rXsXrX",
"7XlXyX^.^.I.J.H.D.~.~.Q.F.x.N.Q.G.G.L.n.L.K.J.G.9.9.F.I.^.L.F.J.1XY.k.^.l.jXcXjXbX-XcXCXCXnX0XfX",
"7XlXaX%X^.L.F.H.H.E.Q.Q.Q.Q.Q.Q.E.G.H.U.L.L.E.G.`.G.J.J.l.J.E.<XW.Y.).dXmXcXjXjX>XNXZXmX7X&XfXxX",
"&XlXuX%X^.I.F.~.~.I.H.L.Q.L.Q.L.F.D.T.L.L.L.T.H.H.H._.#XL.c.k.T.T.hXnXyXdXpXcXCXCXCXCXcX#X3XfX2X",
"m.7XpX5X4X%X}.4X4X{.T.F.F.Q.Q.M.Q.L.L.Q.Q.L.L.F.L.n.c.c.v.!.9XfXfXhXMXnXVXCXCXVX*X XP. X&XfXxXaX",
"v.7XlXdXdXdXiXgXsXrX].H.Q.Q.~.Q.(./.!.!././.N.N.@XZ.N.qX9X0XzXnXVXNXVXVXBX~.%XdXmXlXlXxXlXpXlXdX",
"u.5XpXpXaXpXyXiXsX4X~.F.x.F.L.F.n.n.F.x.T.M.N.N.w.m.9XmXVXCXCXVXBXQ.r.~.^.E.rX6XrXtXsXpX5XrXpXpX",
">.u.K.l.S.l.S.S.J.k.5.<.<.<.3.3.3.3.4.4.4.4.>.2.B.,.3.w.2.2.3.3.<.w.2.3.6.5.D.D.J.5.k.r.r.g.K.p.",
"` ........ . . . .] ] ] -.:.-.-.-.-.;.;.;.;.-.-.-.:.-.:.-.] ] ] ' >.` ..:.-._ ;.] { ] :. .` [ .."
};
