/* XPM */
static char *enmy_51740601389[] = {
/* columns rows colors chars-per-pixel */
"48 48 256 2 ",
"   c #060502",
".  c #120100",
"X  c #180704",
"o  c #121710",
"O  c #230101",
"+  c #2A0706",
"@  c #370304",
"#  c #351516",
"$  c #2A1412",
"%  c #322413",
"&  c #1D1E32",
"*  c #1A1E2D",
"=  c #381622",
"-  c #381833",
";  c #1C2132",
":  c #1C262C",
">  c #39252A",
",  c #242839",
"<  c #2B333E",
"1  c #24323D",
"2  c #36333A",
"3  c #312C30",
"4  c #0C2014",
"5  c #440505",
"6  c #480A18",
"7  c #4A1517",
"8  c #5C1319",
"9  c #530710",
"0  c #66181A",
"q  c #6A0D15",
"w  c #4F2A10",
"e  c #451724",
"r  c #581A26",
"t  c #5F0C20",
"y  c #661A25",
"u  c #791A2C",
"i  c #761B34",
"p  c #6B152C",
"a  c #482228",
"s  c #5A2426",
"d  c #472A36",
"f  c #5A2935",
"g  c #4F3535",
"h  c #682529",
"j  c #77282B",
"k  c #672835",
"l  c #782738",
"z  c #6A3636",
"x  c #773238",
"c  c #77342E",
"v  c #684500",
"b  c #474925",
"n  c #6A5427",
"m  c #292E40",
"M  c #2C3343",
"N  c #2B3541",
"B  c #363848",
"V  c #3B3448",
"C  c #443249",
"Z  c #543243",
"A  c #643842",
"S  c #713147",
"D  c #38424C",
"F  c #504C51",
"G  c #67555A",
"H  c #714D50",
"J  c #4C5366",
"K  c #685364",
"L  c #5D7778",
"P  c #58676F",
"I  c #64757B",
"U  c #65646C",
"Y  c #527C58",
"T  c #871B38",
"R  c #99163A",
"E  c #8C102D",
"W  c #842838",
"Q  c #863538",
"!  c #8F2B32",
"~  c #8D4D27",
"^  c #913145",
"/  c #8D4C52",
"(  c #894866",
")  c #6B8A77",
"_  c #5A846C",
"`  c #F7D83F",
"'  c #979957",
"]  c #A8AE5E",
"[  c #94997A",
"{  c #929B70",
"}  c #98A970",
"|  c #A5AB77",
" . c #ACB170",
".. c #B19953",
"X. c #C2A85D",
"o. c #BBC27C",
"O. c #ECD453",
"+. c #F7E14C",
"@. c #F9E957",
"#. c #D4D26F",
"$. c #E2DB66",
"%. c #EFD769",
"&. c #EDE868",
"*. c #FCF36A",
"=. c #E9E77A",
"-. c #FAE977",
";. c #FEF673",
":. c #FDED6E",
">. c #DED15F",
",. c #596789",
"<. c #587687",
"1. c #54748E",
"2. c #627683",
"3. c #677298",
"4. c #5F77A6",
"5. c #6C71A8",
"6. c #917A8F",
"7. c #A87E96",
"8. c #788B97",
"9. c #7A9898",
"0. c #6F8C91",
"q. c #7788A6",
"w. c #7C98A7",
"e. c #7CA4A5",
"r. c #76ABB1",
"t. c #7CA79E",
"y. c #96978A",
"u. c #888996",
"i. c #83999B",
"p. c #96999B",
"a. c #92908F",
"s. c #A69999",
"d. c #AC9191",
"f. c #99A489",
"g. c #89A69C",
"h. c #98A69A",
"j. c #97B595",
"k. c #A5A688",
"l. c #A7B489",
"z. c #B7B789",
"x. c #A6A39B",
"c. c #B3AA98",
"v. c #B7B795",
"b. c #B1AD8E",
"n. c #848BA3",
"m. c #8C9CA4",
"M. c #849CAB",
"N. c #8B9CAC",
"B. c #8796A6",
"V. c #939CA4",
"C. c #949DAC",
"Z. c #9A9AAB",
"A. c #879AB5",
"S. c #979BB7",
"D. c #978DB2",
"F. c #A899A5",
"G. c #B39AA7",
"H. c #A69DB4",
"J. c #AC93AB",
"K. c #8BA3A4",
"L. c #85A4AC",
"P. c #8CA4AD",
"I. c #84ABAD",
"U. c #8BA9AE",
"Y. c #89AAA4",
"T. c #92A4AD",
"R. c #9BA3AC",
"E. c #92AAAE",
"W. c #97A6A5",
"Q. c #98B5A9",
"!. c #85A4B2",
"~. c #8DA5B2",
"^. c #85ABB2",
"/. c #8CA9B3",
"(. c #8CA3BC",
"). c #8BA9BA",
"_. c #86ABBB",
"`. c #93A4B3",
"'. c #9AA4B5",
"]. c #93AAB4",
"[. c #9AABB5",
"{. c #93A4BA",
"}. c #99A3B9",
"|. c #93ABBB",
" X c #9CADBC",
".X c #88B4B7",
"XX c #94B2B6",
"oX c #9DB2BB",
"OX c #96B4B9",
"+X c #A6A7A8",
"@X c #B5A5A7",
"#X c #A6B5AA",
"$X c #A4A9B9",
"%X c #B4A6B7",
"&X c #A2B4BC",
"*X c #A6B7B9",
"=X c #B4B2B3",
"-X c #CC9DA6",
";X c #C8B3B1",
":X c #F0BAB1",
">X c #CE9D94",
",X c #B1C188",
"<X c #B3C6B0",
"1X c #99C0AB",
"2X c #DBDA89",
"3X c #D2D396",
"4X c #E5DD8A",
"5X c #EFD594",
"6X c #D8E492",
"7X c #E7E888",
"8X c #F7E985",
"9X c #FDF788",
"0X c #E7E899",
"qX c #FAE898",
"wX c #F9F592",
"eX c #EBF28E",
"rX c #DADBA8",
"tX c #CACDB6",
"yX c #D4D1B1",
"uX c #EED3B5",
"iX c #D8E3A7",
"pX c #DDECB1",
"aX c #E8F5A9",
"sX c #FDFAA8",
"dX c #EDEBAC",
"fX c #8F9AC4",
"gX c #8DA4C3",
"hX c #97A8C3",
"jX c #99B4C5",
"kX c #8EACCF",
"lX c #A5A9C5",
"zX c #A9B9C4",
"xX c #B3BBC8",
"cX c #B4B1CB",
"vX c #CBBBD2",
"bX c #AAC4C9",
"nX c #B3C4CC",
"mX c #BAC4CE",
"MX c #B6C7CA",
"NX c #BAC6D1",
"BX c #B6CAD2",
"VX c #BBCBD4",
"CX c #B9CBD4",
"ZX c #B7D4D7",
"AX c #A9CFD3",
"SX c #9BC1C4",
"DX c #C2C6CB",
"FX c #C2C8D6",
"GX c #D1D3D7",
"HX c #F1D3C9",
"JX c #D2D8E7",
"KX c #F4FDEC",
"LX c #FDFCFE",
"PX c #F6FAFE",
"IX c #E9F5EB",
"UX c #D3E4D7",
/* pixels */
"B B M & , * * * ; ; ; ; ; ; ; ; N 1 < < V 2 V V C V C V < , & * & & & & & , & & ; & ; ; , < < < ",
"M F B B B B < < B M M m 1 1 M M D D D D B D V C B B B B B m 1 , M M m m m M B B < < < < N D D D ",
"$XNXFXDXFXFXmXmXxXcX}.C.A.`.'.'.T.P.P.P.T.P.P.~.|.~.)..X^.^.I.I.|.}.'.C.Z.}.lXxXNXNXmXmXBXVXFXMX",
"V.*XDXxXmXFXNXNXVXnX$X`.{.`.S.P.`.`.U.]./././././.^.^.^..X^.^.^.`.`.'.C.S.$XxXVXNXVXNXxXMXNXmXnX",
"T.NXGXVXNXNXNXNXxXzX`.`.C.~.N.M.P.~.~.~./.!.~.!.!.!.~.~./.~.~.`.N.~.`.~.~.`.&XzXNXnXMXnXMXCXCXMX",
"m.xXNX&X'.'.[.[. X X`.`.`.[.{.`.~.~.~.~.~.~.!.~.].].`.|.{.'.'.'.`.].|.].~.].].OX`.].].].oXzXnXbX",
"m.nXVX&XT.T.P.E.P.P.P.P.~.~.~.`.}.hX}.{.{.{.].].~.~.~.C.S.C.S.C.~.~.!.~.~.L.L.P././.U.].oXnXCXCX",
"i.bXVX&XT.P.T.].~.].`.~.~.~.~.{.S.S.S.}.S.~.~.~.P.~.~.~.`.`.{.`.~.!.~./././././.U.U.P.P.OXzXMXBX",
"N.nXCXoXT.P.P.P.].~.]./.~./.~.~.A.cX8.jXjX~./.I.w.XX.XI.I.^.^.^.|.~.L./.XX^.L./.U./.U.Y.XXbXMXbX",
"E.NXZX&X].U.P.P.P.]./.~./.~./.).jXw.|.|.L.9.K.*XXXE.i.B.XX]./.].~.|.|.~.L.!..X^.I.!.U.L.XXMXVXBX",
"U.MXCX&X].E.P.P.].P.~././././.).r.kX.Xw.].&Xp.K.p.s.F.%XJ.J.s.H.H.{.].`.~.~.^./.I.U.U.P.OXbXBXbX",
"i.&XzXE.T./.T.E.~.].~./.~././.^.r.r.r.SXK.p.@Xd e a f k S S ( 7.%XC.m.'. X].P./.I.U.U.P.U.oX&XoX",
"8.T.[.T.T.P.P.E.P.].`././.~.~.).r..X.X9.=X2 A 6 l l i i i i i S D.Z.H.'.`.]./.~.^./.U.P.U.E.E.T.",
"8.K.E.P.T.T.P.T.T.~././././.~./.XXXX`.=X= a 6 l p u u i T i i S K S.cXH.n.}.oXL.U.U.U.P.P.T.T.T.",
"8.T.E.K.T.`.P.P.].`.~.`.`.~.`.`.Z.H.G.- f 6 k ^ Q h 5 O X . X V V 6.cXH.V.'. XP.P.I.U.U.E.P.T.T.",
"u.K.T.C.`.{.~.]./.U.U.U./././.`.%XG.e f r x x y y @ X . .       g G u.$X$X'.`.~.~.P.~.P.T.L.L.P.",
"u.C.'.{.hXfX(.)..X9.I.Y.XX!./.N.Z.d.f e 6 ^ s x X . . X     . . . b x.W.'.hXgXfX{.{.~.~./.)._._.",
"u.C.}.{.{.(././.^.XXY.e.I.XX).lXa.F # s S l r + + . . X o + + O O a @Xy.B.zXA.gXgX{.~.{.~.).(._.",
"w.fX`.P.U.Y.g.Q.g.OXM.T.`.[.8.p.s.= = r S i l @ @ O # H S # 6 S S Z G.%X$XhX!.jX/./././.T.T.T.T.",
"A.).U.g.Y.j.g.g.g.[.m.+X+Xp.k.;XA = k p W i W @ + O # H H + @ ( H S d.G.F.m..Xe.I.^.U./.E.T.E.R.",
"e.I.Y.g.Y.Q.g.E.'.Z.+Xs.k.z.qX3X@ r l t p T l @ @ # o   o o o # 9 h -X-Xy.Q.Q.t.I.^./.`.`.R.R.W.",
"9.t.Y.Y./.].T.'.Z.p.x.b.3XqX5Xv w S r t p W l x + # 4   4 4 4 . 5 q uXuXz.,X) 1XY.^.~.`.`.`.R.Z.",
"0.Y.I.^.gXfX{.'.h.c.z.5XwXwX>.w % a e k h k y s + X X % o     $ q ~ qXwX2X .} j.j.E.{.hX}.}.'.'.",
"0.P.|.).hXS.C.R.k.iX2XsX7X=.9X5Xw 3 d a 6 r x z c # O + X $ > % v %.-.-.8X=.aX' f.h.R.S.S.}.`.`.",
"(.S.S.S.`.W.f.| aX6XeXeXeX] ] k.c.s.# z 8 8 j 0 j 0 k s S z e HXqX-.:.:.*.&.=.7XdX .d.p.'.$X!.|.",
"fXfXS.[.W.y.z.iX0XaX0X} | l.f.G G G -X-X6 0 9 ! j j t h 6 f r d.qX=.$.=.&.&.*.;.-.5X0Xz.y.K.M._.",
"fX}.+Xh.f.l.3XpXiX} { f.#Xp.m.H.F.G H ( d.q W 0 0 j 0 h r d.;XG.k.| o.2X9X*.@.+.@.:.wX4X| f.i./.",
"Z.%X+Xy.| 6XiX,Xl.h.W.'.|.A.).jXZ.@X@XH z / j j Q 0 8 z s # d.G.g.y.[ | o.#.&.*.@.+.@.-.6X,Xf.h.",
"K.#Xj.y.j.tX<X[ u.&XzXgXw.hX|.K.E.g.h.y.F uX:X:X0 j 8 9 k A G.G.$X].m.p.k.| o.$.*.@.+.*.wX2Xz.[ ",
"K.g.h.Y.j.Q.W.Y. XM.M.hXhX!.L.OX9.g.#X2 $ uX:XHX/ Q 5 h k f Z s.C.{.jXjX}.y.| ] $.;.*.@.:.8X6X| ",
"L.w.!.hX{.M.M.[.oX#Xg.E.L.|.!.A.%X@X# g 7 c 0 0 E ~ / ^ a A d =X[.T.fXfXfXA.R.c. .7X:.O.%.8XqXX.",
"w.w.(.gXkXgX(.P.m.W.g.XXK.OX{.lXH.7 k 9 c j j ! Q 5 0 x / / > @Xh.R.A.kXkXkXC.h.| 7X-.;.-.-.8X..",
"q.N.S.~./.~.)./.w.XXM.[.`.B.lXH.@Xa j 9 E ^ y k # + @ c c c / d.d.@X$XM.gX.Xt.j.] eX&.%.9X%.sX..",
"m.C.`.`.~./.!.e.^.|.~.N.'.$XlXu.> s u R R q S d X $ w 0 j Q ~ H H c.Z.N.jXjXt.{ ] eX%.:.-.-.qX .",
"Z.C.`.T.P.U.!.I./.).|.N.{.lX6.F = s j E R R S = - = 7 k W T 0 s n G U hXq.A.*X| 7X&.*.+.9X$.4X] ",
"R.'.E.N.P./.^.!.!.L.jX`.}.D.C * g w ! E R ^ t = $ X 6 p W j 0 r y.+XJ J P h.v.' 9X*.+.*.$.7X] { ",
"$X$X[.E.P././.!./.w.|.|.}.B.J 2 > w 0 ! ! Q s + X > z c j Q y e cXfXn.<Xb n $.;.@.+.:.O.7X,Xj.j.",
"zXnXxXoX`.~.U./.OXM.N.`.}.C.u.n.2 $ s c 9 7 X % $ o g a 6 r e A D.cXa.l.] &.;.@.+.;.-.qXz.<X1XAX",
"xXmXmX&X].L.U./.|./.K.`.'.S.cXcX{.B - - A 6.: o :   3 d d Z C u.=Xy.| 0X=.;.*.O.-.qX5Xc.W.<XAXAX",
"xXmXmXzXT.K.P./.L.jX~.[.`.N.}.B.A.kXS.vXH.J.lXK.Y.Y.VX=XJ.J.a.@X[  .0XeX=.=.eXwX5X-XG G U 1XZXAX",
"xXNXnX&X].E.P.P.P./.].`.P.N.C.`.L.Y.T.S.S.lX)._.(.~.W.+Xa.[ v.dX7XwXeXqXaXrX3XrXHXvXJXLXLXFXMXMX",
"xXFXmX&X[.T.P.U.P.U.].`.`.`.`.`.U.].T.T.Z.C.Q.Y.Y.h.f.k.v.rXpX3X2XqX4X3XrXuXDXGXDXJXLXJXxX=XBXGX",
"*XDXMX&X[.E.U.E.].].U.T.`.E.`.`.}. XW.h.f.f.| } ] 6XaX4XiXdXdXv.c.yXHXyXyXtXUXIXKXPXPXFX XcXNXcX",
"W.xXMXxXzX*XoXzXzXOX`.P.P.`.`.C.B.V.+X+X<X3XpXaX6XaXdXo.{ | z.v.JXvXvXGXKXKXKXIX<XQ.Y.[.lXvXGXDX",
"V.xXVXVXCXBXBXZXBXbX[.E.T.].`.E.+X+X[.V.V.Z.Z.p.+X+Xs.k.b.<XrXUXLXPXLXLXIX#XQ.<XJXAXZXJXZXmXDXDX",
"p.zXNXMXNXNXnXMXnXbX].P.N.P.T.C.V.W.T.T.S.hXhXlXS.D.cXJXLXPXKXKXLXcXn.6.V.C.zXVXAXbXAXAXzXnXDX<X",
"u.V.W.m.m.m.m.K.L.i.9.8.8.8.8.8.q.q.q.0.0.0.8.0.u.u.u.B.B.q.3.8.0.) 8.A.5.q.A.A.M.w.e.9.i.T.}.N.",
"P I I P I I L 2.I L <.L I 2.2.<.1.4.1.1.1.<.I <.I 2.L ,.1.4.4.<._ Y L 2.,.5.5.,.<.P P ) L P <.3."
};
