/* XPM */
static char *enmy_61740601389[] = {
/* columns rows colors chars-per-pixel */
"48 48 244 2 ",
"   c #010200",
".  c #0E0201",
"X  c #080C08",
"o  c #120000",
"O  c #1B0100",
"+  c #140B04",
"@  c #16140D",
"#  c #091914",
"$  c #1A1916",
"%  c #0E0F10",
"&  c #240000",
"*  c #2B0706",
"=  c #340404",
"-  c #270E11",
";  c #2A1518",
":  c #391618",
">  c #2E120F",
",  c #1D1E32",
"<  c #1B192A",
"1  c #391625",
"2  c #1D252E",
"3  c #1C2132",
"4  c #262327",
"5  c #372527",
"6  c #242839",
"7  c #362C3B",
"8  c #2B333E",
"9  c #24323D",
"0  c #373339",
"q  c #38241D",
"w  c #560409",
"e  c #480C18",
"r  c #520B1A",
"t  c #49151A",
"y  c #59151B",
"u  c #460407",
"i  c #650C1B",
"p  c #68181C",
"a  c #50281C",
"s  c #451A28",
"d  c #581928",
"f  c #510E20",
"g  c #661824",
"h  c #791C2D",
"j  c #791A35",
"k  c #6D1228",
"l  c #47252A",
"z  c #572529",
"x  c #472A35",
"c  c #582836",
"v  c #573B39",
"b  c #483631",
"n  c #6B2B2E",
"m  c #68242A",
"M  c #78272A",
"N  c #672937",
"B  c #782738",
"V  c #6B3338",
"C  c #753239",
"Z  c #63322F",
"A  c #454537",
"S  c #704A3C",
"D  c #292E40",
"F  c #392D43",
"G  c #2C3343",
"H  c #2B3541",
"J  c #373848",
"K  c #3F3E50",
"L  c #433347",
"P  c #513541",
"I  c #693843",
"U  c #6F2E46",
"Y  c #38424C",
"T  c #5D4545",
"R  c #434755",
"E  c #4D5559",
"W  c #535353",
"Q  c #755356",
"!  c #6A4C50",
"~  c #676658",
"^  c #4D5263",
"/  c #5A6C76",
"(  c #5C747B",
")  c #596666",
"_  c #68746B",
"`  c #65747A",
"'  c #6B706F",
"]  c #6B5168",
"[  c #881930",
"{  c #842029",
"}  c #872838",
"|  c #83363B",
" . c #873842",
".. c #8C2C42",
"X. c #924C4E",
"o. c #96555B",
"O. c #94A37C",
"+. c #888A7C",
"@. c #597786",
"#. c #4D6A80",
"$. c #627C87",
"%. c #727B8C",
"&. c #927B8A",
"*. c #78878C",
"=. c #758B93",
"-. c #788C97",
";. c #7C969A",
":. c #6C8796",
">. c #7A98A6",
",. c #768FA8",
"<. c #7BA4A8",
"1. c #76ABB1",
"2. c #858886",
"3. c #869A8C",
"4. c #818C99",
"5. c #978999",
"6. c #869799",
"7. c #97999B",
"8. c #9C9E86",
"9. c #A7868E",
"0. c #A5999B",
"q. c #B39A9D",
"w. c #A68E93",
"e. c #8EA39B",
"r. c #8BA397",
"t. c #94A49C",
"y. c #9AAB9B",
"u. c #96A799",
"i. c #93A790",
"p. c #A4A99B",
"a. c #B9B99D",
"s. c #8A94A4",
"d. c #839BA4",
"f. c #8B9CA3",
"g. c #8B9CAB",
"h. c #8599A9",
"j. c #929BA3",
"k. c #949DAC",
"l. c #9A9AA8",
"z. c #8D9EB5",
"x. c #8B9CB7",
"c. c #969EB5",
"v. c #8B8DA2",
"b. c #AA9AA3",
"n. c #B49CA8",
"m. c #A49EB1",
"M. c #A187A2",
"N. c #8CA2A4",
"B. c #86A3AC",
"V. c #8CA4AC",
"C. c #84AAAD",
"Z. c #8BA9AE",
"A. c #89A8A4",
"S. c #94A4A4",
"D. c #9BA4A4",
"F. c #94ABA3",
"G. c #9DACA4",
"H. c #93A4AD",
"J. c #9AA4AB",
"K. c #94A9AB",
"L. c #9CAAAB",
"P. c #99B2AA",
"I. c #86A5B1",
"U. c #8DA5B2",
"Y. c #85ACB3",
"T. c #8CA9B3",
"R. c #8DA4BB",
"E. c #8BAABA",
"W. c #93A4B3",
"Q. c #9AA4B5",
"!. c #93AAB4",
"~. c #9AABB4",
"^. c #93A4BA",
"/. c #9AA5BA",
"(. c #94ACBA",
"). c #9CACBB",
"_. c #89B4B7",
"`. c #96B1B5",
"'. c #92B2BB",
"]. c #9CB2BB",
"[. c #9CB5B3",
"{. c #8FB2AC",
"}. c #A2ABA6",
"|. c #A3A5AC",
" X c #A7A8AA",
".X c #B8A4A9",
"XX c #A7B8AA",
"oX c #A3ACB4",
"OX c #A2ABBC",
"+X c #A8A8B7",
"@X c #B5A6B8",
"#X c #A3B4BC",
"$X c #A7B8B6",
"%X c #B3B8B7",
"&X c #C98E93",
"*X c #C39CA8",
"=X c #C6A3AA",
"-X c #F2B9B3",
";X c #ACC5BB",
":X c #B8D0BA",
">X c #CACCB7",
",X c #E1C0B9",
"<X c #8BABC4",
"1X c #98A9C2",
"2X c #99B4C5",
"3X c #8CB8C9",
"4X c #A7ADC3",
"5X c #A5B5C1",
"6X c #ACBCC4",
"7X c #AAB8C4",
"8X c #B2BBC4",
"9X c #B3BECB",
"0X c #B6B6CE",
"qX c #CCBBC5",
"wX c #ADC2C9",
"eX c #A9C6CA",
"rX c #B3C4CC",
"tX c #BAC4CE",
"yX c #B7C8C9",
"uX c #BAC5D1",
"iX c #B6CAD2",
"pX c #BBCBD3",
"aX c #B6C4D5",
"sX c #BCD3D5",
"dX c #BBD2C5",
"fX c #ACC3D3",
"gX c #C7DAC7",
"hX c #C2CBD5",
"jX c #C6CAD5",
"kX c #C9D4D7",
"lX c #DAD9D9",
"zX c #CFCCC7",
"xX c #F8C9C4",
"cX c #CCE2D5",
"vX c #D3E4D2",
"bX c #E6EAD2",
"nX c #C9DBE1",
"mX c #E1DCE3",
"MX c #DAE7E3",
"NX c #ECF8FA",
"BX c #F6FFFE",
"VX c #FCFEFF",
"CX c #F5F8F8",
"ZX c #E9F1F2",
/* pixels */
"J J 7 3 3 6 < 2 3 3 3 3 3 3 3 3 H 9 8 8 G 7 F F L L F F 8 6 , < , , , , , 6 , , 6 , 4 3 6 9 8 8 ",
"J R Y 7 J H 8 H J J D D 9 9 D G Y Y Y Y Y K L Y K K K J J H 9 9 G G D D D G G J 8 D G D 8 Y Y Y ",
"oXtXjXhXjXhXtX9X0X7X/.k.x.c.Q.^.V.N.H.V.H.H.V.V.R.T.T.E._.Y.C.C.^./.Q.k.c.c.4X9XuXuXtXrXiXhXpXtX",
"7.7XtX9X0XhXuXuXpX9XOXW.U.W.W.k.!.!.!.U.T.T.T.Y.I.Y.Y.Y.Y.Y.Y.Y.W.Q.W.k.c.oX8XhXuXuXuXrXrXuXtXrX",
"J.uXkXuXuXuXuXpX9X5XW.W.k.H.z.h.U.U.U.U.R.U.I.R.B.I.U.U.U.U.U.U.g.U.W.U.V.W.].6XaXiXrXrXrXuXpXiX",
"f.9XiX#X~.~.W.).).).!.W.(.(.W.W.U.U.x.x.R.I.U.U.(.(.!.W.(.Q.Q.Q.W.(.(.!.U.!.(.].H.!.!.!.].wXrXwX",
"f.rXpX5XH.H.H.H.g.V.g.U.U.V.U.U./././.^.W.^.!.!.V.z.k.z.c.c.c.c.U.U.U.B.U.B.Z.B.Z.U.Z.!.[.wXpXpX",
"6.9XpX#XH.H.V.!.!.!.T.W.U.U.U.W.c./.c.^.W.U.U.U.U.V.U.U.W.W.W.W.U.T.B.R.T.T.T.U.Z.Z.Z.V.`.6XrXiX",
"g.rXiX].V.V.V.Z.!.U.U.U.T.U.T.^.h.0X-.2X2XT.T.Z.<.`._.C.Y.Y.1.Y.!.U.B.T.'.T.C.C.Y.{.Z.B.!.eXiXwX",
"Z.iXsX#X!.K.V.V.V.!.U.T.T.U.R.T.2X>.(.'.V.;.A.#X`.K.6.d.`.`.T.~.z./.(.U.B.Y.T.T.C.T.Z.B.`.iXpXrX",
"K.iXpX#X!.U.Z.V.U.!.T.!.T.T.T.E.1.3X_.<.U.#Xj.7.7.0. X@X@XM.5.@Xm./.^./.U.U.T._.B.C.Z.Z.`.eXiXrX",
";.].7X!.K.U.H.V.K.U.T.U.U.T.T.Y.1.1.1.2XN.7. Xx 1 d d N U U o.&.4Xk.j./.).T.B.T.Z.Z.Z.A.Z.].#X].",
"=.K.~.V.H.V.H.!.U.U.T.T.U.T.T.T.1._._.6.%X5 I t B B j j [ j j U &./././.Q.!.!.A.T.Z.Z.C.A.!.K.H.",
"=.H.K.g.H.H.V.V.!.T.W.T.T.W.T.U.(.(.~.+X1 s e B k h h j j j U U ] l.0Xm.v.^.].B.Z.Z.U.A.V.H.H.K.",
"-.S.H.S.!.H.V.V.H.U.!.W.T.T.W.W.l.m.b.s c r B | | m u & O . - F L &.0Xm.s.Q.).B.Z.Z.Z.Z.U.V.H.!.",
"-.S.H.V.!.W.W.W.T.W.U.T.W.U.U.W.m.n.s c d C C m d = O . +     X L ] 5.+XOX^.U.R.U.U.V.U.A.V.N.A.",
"*.S.W.H./.x.x.<X1Xx.2XB.`.A.Z.F.m.q.c s r  .d I O o .     X . o & c n.@Xk.,.<X3X<X1Xx.W.!.V.Z.Z.",
"-.H.H.W.^.^.x.1X1X:.R.!.A.;.{.G.5.T : d U N f = O o + $ @ o o & & Z q.@XW.3X3X,.<Xx./.c.W.K.Z.Y.",
"6.H.W.H.^.^.W.^.x.1X2Xf.V.[.[.4.w.s e d ..h } = & & : v c : e c C c .X7.f.2X<.2XR.W.Q.c.W.Z.T.Y.",
"f.W.W.g.W.~.V.!.!.~.d.N.[.6.3. XP : N g B j } = = & ; x x ; : c V z q.@X~.T.,.3XU.J.J.J.H.V.R.Y.",
"g.W.W.g.W.!.S.K.H.F.6.L.F.K.$X}.: g B i k } B = * O @ $ # # X $ O T 9. XF.;.;X<.Z.D.D.J.H.W.R.E.",
"h.x.W.H.K.K.S.t.t.u.P.$X6.lXMX4 c N i i i } B C > - @ # # # # # - v =X Xr.A.{.{.F.t.D.D.J.W.R.x.",
",.^.^.V.K.S.u.y.y.3.u.gX}.$XL.4 5 t t z m n m z = * + % % % # $ b I zXzX$XXX;.y.t.y.y.D.J.W.^.<X",
",.x.W.!.F.t.r.i.i.ZXbXvXD.3.J. X0 q b z r y C n z t - - - % < 5 v q.0.$XG.3.MXi.i.y.t.u.J.W.^.1X",
"c.x.h.!.L.3.y.vXgX;Xp.i.t.J.|.7..Xq.> Z y p M p n n V U z c c 1 b.0. X Xt.u.XXdXvXy.y.y.H.s.4X1X",
"x.x.V.H.K.t.XXgXi.3.8.u.D.S.4.%.! Q *X*Xr p w } M i w n d V c *X.X7.7.D.S.e.y.XXXXgXcXy.$Xk.x.x.",
"^.^.W.V.6.P.;X;Xy.r.t.G.L.J.Q.5.b.Q ! X.&Xw | p { | p r N 9.&.n.|.D.j.J.J.S.e.t.3.i.XXcX*.oX5X^.",
"/.W.).H.6.F.XXr.P.t.S.S.f.K.).oXj..Xn.! S o.M { M p y Z c x *Xb.J.S.V.!.~.W.K.S.F.i.F.r.$XH.k.j.",
"!.g.~.~.N.N.K.N.N.6.K.~.V.W.W.g.!.N.t.7.S ,X-X,XM M p p y z =Xb.J.Z.U.!.^.W.W.~.A.;X;.F.;.cX#XH.",
"f.f.K.~.K.f.H.~.H.V.!.'.W.R.(.z.;.N.XX0 q ,X,XxXX.{ w p n Z l q.H.Y.T.R.z.z.^.^.K.*.P.F.F.[.nXH.",
"4.f.H.J.!.g.V.~.(.U.g.I.>.I.<Xc.4X@X1 c a C p p { X.X.| n Q l p.B.Y.R.R.x.^.^.R.Z.P.r.{.P.r.*.oX",
"4.K.V.f.!.U.d.U.(.R.E.1XR.1X1Xm.n.s c r M M M | { w u X.X.Z v p.N.I.R.^.1X1X1XW.`.<.[.A.u.r.;Xu.",
"4.s.H.H.V.U.T.I.<.(.g.^.^.s.4Xm.n.s B w M  .a Z > > u n | C o.8.}.l.OXk.W.).g.!.`.;.P.K.F.3.y.i.",
"s.k.Q.W.U.Y.Y.B.I.'.U.g./.OX4X5.x d k [ { i S b @ > t p h | S S ! 3. X|.s.k.Q.!.;.`.f.3.G.u.bXp.",
"j.Q.H.H.V.U.Y.B.Y.E.(.g.c.4X%.] s d [ [ [ { Z > q : y M } M Z a ~ ~ W j.OX1X^.x.1Xc.7X6.y.vX>XO.",
"k.J.H.g.V.T.T.B.I.B.2XW.c.v.K < P f ..[ [ } y > * & e h { M y a 8.i.W E ^ c.4Xg.1X-.Q.S.y.bXO.i.",
"OXoX~.W.V.U.T.Y.T.>.(.(./.v.^ F x d k ..} | z * - 1 U j U ..z t 0.D.}.oXE R E |.}. X7. XXXXXy.u.",
"8XrX6XOX!.Z.Z.T.2Xd.g.W./.c.v.v.L 1 N j r e O q ; ; P d f d t P J.J.~.J.t.;X~ A ~ +.XX2.p.XXhXyX",
"9XuXuX5X!.B.Z.T.!.T.g.!.c.c.4X0Xm.0 s l U &.4 # 9 X 7 x x x b 2.2Xz.d.J.p.8.8.a.,XbXbXp.+XkXtXuX",
"8XtXuX5XH.N.V.T.B.2XU.^./.g./.v.g.#Xl.=X.X0.XXe.A.A.tX%Xb.b.2.$Xg.1XV.K.}.p.zXbX>XbXA ~ ) 8XjXuX",
"8XhXrX~.!.!.A.Z.Z.U.!.!.g.k.k.W.B.B.J.J.b.7.N.{.C.C.d.~.7.D.6.y.;X<.6.$X6.zXlXzXlX>XlXVXCXzXyXyX",
"8XjXuX#X~.H.V.Z.Z.U.!.W.W.W.W.W.'.E.!.J.K.S.A.N._.<.g.V.W.K.;XkXdX[.F.dXjXkXzXlXqXmXCXmX%XXXgXgX",
"#XhXtX$X~.K.Z.K.!.T.Z.V.W.W.W.k.V.I.f.s.D.+X XV.;.].aXs.Q.oXhX}.K.sXkXyXlXkXkXZXBXVXVXkXL.%XyX$X",
"l.8XiX6X7X#X].7X7X[.!.V.V.W.W.U./.1XOX+X8XjXjX%XOXs.s.g.|.6.@XkXiXnXhXwXBXBXBXBX%Xy.D.L.#XpXhX9X",
"j.yXhXiXpXiXiXsXiXeX~.V.W.!.W.!.h.^.W.j.l.+X@Xl.Q.4X4XOX~.jXzXjXVXZXBXBXNXP.y.:XcXdXdXkXhXuXaXhX",
"6.8XtXyXuXiXyXrXiX7X~.Z.g.V.!.g.I.Y./.W.l.l.m.l.s.4./.NXBXNXCXVXVX4Xv.f.7.f.;XdX;X;XdXyX9XfXaXaX",
"*.l.S.f.f.f.N.N.B.>.;.-.-.-.-.-.:.:.:.:.*.*.%.4.4.>.,.=.:.=.;.o.' 2.6.7.=.h.<.,.<.<.>.;.;.S./.6.",
") ` ` / ` ` ( ` ` ( ( ` @.` ( @.:.( ( :.` ` ' $./ ( @.( :./ *.' ' ' ) ' / @.#.@.@.#.@.:.( ) _ ` "
};
