/* XPM */
static char *anemy_31740601388[] = {
/* columns rows colors chars-per-pixel */
"48 48 246 2 ",
"   c #0A0102",
".  c #1B0101",
"X  c #1C0A0C",
"o  c #160000",
"O  c #191915",
"+  c #14140D",
"@  c #230101",
"#  c #2B0101",
"$  c #27080B",
"%  c #360509",
"&  c #2A0E13",
"*  c #360D13",
"=  c #291815",
"-  c #361715",
";  c #35140A",
":  c #24211A",
">  c #1B1A2D",
",  c #251C2B",
"<  c #371B26",
"1  c #341C32",
"2  c #162529",
"3  c #142334",
"4  c #1C2133",
"5  c #142738",
"6  c #1E303E",
"7  c #23282D",
"8  c #3E2428",
"9  c #282736",
"0  c #362A36",
"q  c #36323C",
"w  c #25333D",
"e  c #43070C",
"r  c #470818",
"t  c #4A171A",
"y  c #57181C",
"u  c #51080E",
"i  c #6A151E",
"p  c #660E18",
"a  c #52201C",
"s  c #461B28",
"d  c #561928",
"f  c #511A2F",
"g  c #671926",
"h  c #741B2C",
"j  c #6C142B",
"k  c #472329",
"l  c #58232A",
"z  c #442333",
"x  c #482936",
"c  c #5B2A34",
"v  c #572837",
"b  c #4A3239",
"n  c #59333A",
"m  c #67262A",
"M  c #75222E",
"N  c #722026",
"B  c #67302B",
"V  c #692835",
"C  c #772834",
"Z  c #6A3439",
"A  c #773639",
"S  c #7A403E",
"D  c #1C3242",
"F  c #272E41",
"G  c #243544",
"H  c #2C3245",
"J  c #293747",
"K  c #33344B",
"L  c #363848",
"P  c #383E54",
"I  c #322F40",
"U  c #5E2D41",
"Y  c #4E3544",
"T  c #593A45",
"R  c #4E3F52",
"E  c #7A2B41",
"W  c #693547",
"Q  c #763745",
"!  c #682C43",
"~  c #344352",
"^  c #32434E",
"/  c #544548",
"(  c #454354",
")  c #584957",
"_  c #5A545D",
"`  c #4C474D",
"'  c #664453",
"]  c #655859",
"[  c #7B4A5F",
"{  c #5E5766",
"}  c #4E5365",
"|  c #655B65",
" . c #5E767A",
".. c #5D6069",
"X. c #656D79",
"o. c #63737C",
"O. c #667477",
"+. c #716A74",
"@. c #852937",
"#. c #853B4D",
"$. c #894548",
"%. c #944850",
"&. c #8F6C71",
"*. c #BF767F",
"=. c #A75A64",
"-. c #C6697C",
";. c #597781",
":. c #6B6D83",
">. c #627182",
",. c #607980",
"<. c #757E92",
"1. c #8A7C8C",
"2. c #A17282",
"3. c #7C8588",
"4. c #6F8F9A",
"5. c #7A8B95",
"6. c #7A8A9A",
"7. c #778B97",
"8. c #79949C",
"9. c #7C928F",
"0. c #7EA19D",
"q. c #7B9AA5",
"w. c #7FAEB3",
"e. c #7EABAE",
"r. c #97838E",
"t. c #878897",
"y. c #8C939C",
"u. c #839A9C",
"i. c #87979C",
"p. c #95939C",
"a. c #999498",
"s. c #8C8990",
"d. c #A98B8B",
"f. c #A88895",
"g. c #A5989D",
"h. c #B39595",
"j. c #8DA19F",
"k. c #8A94A3",
"l. c #839BA4",
"z. c #8C9CA3",
"x. c #849EAA",
"c. c #8C9DAC",
"v. c #8795A1",
"b. c #929AA4",
"n. c #9B9DA4",
"m. c #949DAC",
"M. c #9C9DAB",
"N. c #9996A4",
"B. c #8E9FB1",
"V. c #959EB1",
"C. c #A39BA4",
"Z. c #A39DAB",
"A. c #A999A6",
"S. c #B59AA9",
"D. c #B09EB1",
"F. c #84A3A3",
"G. c #8CA2A6",
"H. c #85A2AC",
"J. c #8CA4AD",
"K. c #85ABAD",
"L. c #8CAAAD",
"P. c #8AAAA5",
"I. c #92A3A6",
"U. c #92A3AC",
"Y. c #9AA3AC",
"T. c #93A9AD",
"R. c #9CABAE",
"E. c #96A6A6",
"W. c #86A6B1",
"Q. c #8CA5B2",
"!. c #84ABB3",
"~. c #8CA9B3",
"^. c #8DAAB9",
"/. c #8DA7B8",
"(. c #93A4B3",
"). c #9AA3B3",
"_. c #93AAB4",
"`. c #9BACB5",
"'. c #95A6B9",
"]. c #94ABB9",
"[. c #9CADBB",
"{. c #9DA7B9",
"}. c #8DB4B8",
"|. c #95B2B5",
" X c #9BB3B6",
".X c #94B3BC",
"XX c #9BB3BB",
"oX c #99B9B8",
"OX c #92B1AC",
"+X c #A3A4AA",
"@X c #A7A3A9",
"#X c #B7A5A9",
"$X c #A4A4B3",
"%X c #ACA4B4",
"&X c #A3AAB5",
"*X c #A4ADBA",
"=X c #A9AAB6",
"-X c #B4AAB7",
";X c #A2B4BB",
":X c #ABB3BC",
">X c #A3B8BA",
",X c #B7B1B9",
"<X c #B8B0AE",
"1X c #C8B3BE",
"2X c #FEB9BA",
"3X c #98B5C1",
"4X c #A5BCC3",
"5X c #ABBBC4",
"6X c #A8B8C5",
"7X c #B3BECC",
"8X c #B5BBC5",
"9X c #B8BFD1",
"0X c #C9BFC7",
"qX c #FFBEC1",
"wX c #E4BBC1",
"eX c #ACC3C9",
"rX c #AFCBCD",
"tX c #A8C5C7",
"yX c #B4C4C6",
"uX c #B4C4CC",
"iX c #BAC4CD",
"pX c #BBCACD",
"aX c #B1CBCD",
"sX c #B5C5D1",
"dX c #BCC5D1",
"fX c #B5CCD2",
"gX c #BCCBD4",
"hX c #BECDDB",
"jX c #B7D2D4",
"kX c #C2C2CD",
"lX c #C6C6CD",
"zX c #C3CBD5",
"xX c #C6CAD6",
"cX c #C8D2DB",
"vX c #D6D5DB",
"bX c #D3CED4",
"nX c #F0C3CA",
"mX c #CDD6E3",
"MX c #D1D9E2",
"NX c #E5DFEA",
"BX c #EBF9FF",
"VX c #F4FFFF",
"CX c #FCFDFF",
"ZX c #FFF4FA",
"AX c #FFE6ED",
"SX c #D8E5ED",
/* pixels */
"L Y q > 4 7 > 4 > 4 4 4 4 4 4 3 G G G G H H H K K P K H G 6 2 3 3 3 3 D 3 3 5 4 4 7 , , 9 w J w ",
"L ~ R L L I I I K K H F F F F J ~ ~ ~ ~ ~ P P P P K ~ K J J w 6 G G D D D D J J w q 9 q I ^ ^ ^ ",
"=X9XlX9XxXxXdX9X9X6X&Xm.V.(.'.).B.Q./.Q.c.(.B.'.(.(.'.)._._.J.J.'.'.'.B.B.].3X7X9XxXdX9XdXzXjXfX",
"b.8XkX9X9XhXdXdXhX7X[.(.V.V.V.(.(.'.Q.'.'.'.'.~.Q.Q.'.~.~.~.W.Q.'.(.'.(./.^.6XhXdXkXkX9XuXsXsXeX",
"U.iXcXdXsXfXsXgX5X6X'.c.B.J.c.c.'.B.B.Q.Q./.Q.Q.L.K.W.H.L.H.K.~.m.V.'.Q.J._.3X5XiXdXiX8XiXgXjXrX",
"z.eXfX>X).)._.{.XX`.'.~.).'.'.Q.V.Q.Q./.Q.H.Q.K.^.~.^._._.T.T.).).).)._.Q.~.].].(.).).`.XX5XtXtX",
"z.uXgX>XT.J.J.T.J.c.J.J.J.~.J.Q.'.^./././.^.~.L.J.J.G.I.m.M.M.M.Z.M.Y.m.J.J.Q.J.T.(.U.).;XeXfXjX",
"u.tXjXXXL.U.J.L.T._.~.(.~.J.~.~./././.!.W.W.L.T.J.E.Y.n.Z.Z.D.Z.Z.M.m.T.(.~.~.~.~.(.U.U.`.tXrXrX",
"F.tXaXXX|.F.u.P._.J.L.J.l.J._.].3Xq.^..Xx.T. Xi.+XC.@XA.S.f.S.S.-XA.p.).`.J.q..X~._.(.J.R.tXaXtX",
"|.aXrX|._.|._.|.J._.|.`._.J.x.x.w.3Xq._.J.I.n.-Xg.8 x z v [ ! f b %XZ.0Xz.v.tXq.Q.~.J.U. XrXjXaX",
"u.aXjX4XT.F.l.u.J. XJ.G.`._.J.XXW.3X].c.y.@Xa.8 z b t U ! f v W b T C.s.`.J.T.H.Q.Q.J.J. XtXaXtX",
"u. X4XT.F.T. X>Xz.`.G.v.*X_.v._.BXBXBXBXCXZXZXZXAXAXZ V Q ! ! ! n W 0 ,Xm._.H.}.W./.Q.P.T. XoXoX",
"u.u.E.E.E.T.G.i. X;Xk.&XBXVXVXVXBXjXmXNX1XbX2Xt Z A Z y @ @ . . # n b A.k.XX_.W./.^.~.J.J.T.T.P.",
"9.u. X>Xu.u.E.T.I.SXVXVXBXzX7XmXMXmXkXlXn s t Q m B d ; . @ X . . . ' R =XU.].~.W.~.Q.J.J.E.I.E.",
"u.E. Xi.9.8XVXVXVXBXMXzXcXMXmXmXxXbXNXA.< c d m C Z # . .       . $ o Y @Xi.].~.Q.Q.Q.(.T.J.E.T.",
"3.u.E.j.*XBXVXlXxXzXcXvXxXxXcXxX*XN.S.< l m i A A # # . . = + X % # # < ,X`.l.~.Q.Q.~.J.J.G.G.G.",
"v.t.m.:XVXCXlXvXvXpXcXpXcXfXJ._.I.n.S.s g g j C m @ . . $ &.h.$ % -.-.V a.OX0.|.T.(.!.!.W.(.(.'.",
"7.*X9Xt.{ _ ] lXbXvXbXvXjX XF._.`.a.b l p j C C V @ o $ 8 &.2.r y =.-.g <XP.OXu.Y.).~.!.Q.'.).).",
"x.c.(.k.:XZ._ | ) kXbXcXY.E.`.b.Y.r.s ! e g M C m # @ $ o < < . # r u ! a.oX0.oXY.).!.!.~.'.(.(.",
"x.'._.v.Y.$Xp.,X] +._ C.Z.%XN.%XA./ z s d V g M V t - - $ . $ & * # r v g.P.OXP.).Y.~.~.~.Q.).(.",
"8.H.~.U.*X&Xp.C.A.a.| | { D.N.D.A.x s s l t y A A m * % & & X X & * U W b.T..Xv.).).Q.~.~.Q._.L.",
"q.].].J.z.b.M.=X,Xn.N.A.+.| R D.S.r.x n s c l e m Z y % % & X X   , Y N.z..Xx.3X).V.'.~.~.~.~.~.",
"8.x.q.J.`.[.).b.p.$X%XZ.N.p.+.| ) 1XS.g.- a a c y A @.B l n Y / q ` s.$XuX8.x.3X).V.(.Q.(.~.W.L.",
"4.~.{._.U.z._.I.Y.:Xb.M.&XU.{.N.| ) | h.#Xh.t a i g g g l l k < 0 t.6X).8.3X^.B.(.).'.'.~.J.K.!.",
"U.c.Q.(.T.J.(.J.J.T.J.F.U.L.I.E.E.a.O.] / #Xd.a m @.i @.i y Z d.A.k.*X'.J.].B.V.'.'.).(._.~.K.K.",
"Y.(.m.U.(.~.~.L.^.}.!.L.|.|.P.P.E.@XE.g.] ] S a m N @.p N m d l -Xm.l.Q.(.'.B.3XQ.'.V.(.(.~.L.K.",
").Y.).(.(.W.Q.W.q.e.K.K.K.K.0.L.E.@XE.d.d.d.&.S 2XqXnXi p h h d f.=Xl.}.c.'.V.'.Q./.).).(.~.L.!.",
"Y.).).U.Q.Q.W./.}..X}.~.OXK.F.L.E.a.g.<Xh.B e y 2X2XqXN u u C A ' %XXX|.i.{.'.B.!.!.(.).(.T.W.L.",
"M.Y.).(.~.J.W.^./.q.q.q.`.;XY.Y.n.<XA.n f e g A A B A S %.g M M v 1.&X|.y.$X{.W.!.!.'.V.(.~.L.K.",
"m.U.(.(.Q.Q././.B.3X3X[.&Xb.y.Z.q 8 < r C g g C B a e B Q $.%.C ! ' t.L.M.$Xm._.w.!.{.V.(.(.~.~.",
"y.c.(.(./.W.W./.c.V.{.m.<.) 0 0 1 Y U r i h @.N B t ; . # V %.$.#.s i.U.$XZ.m.|.w.w.(.V.(.(.(.~.",
"i.c.(.'.Q.B.W./.3XB.k.$X-Xs.R 1 0 f f d h h M A B . ; ; a B h C Q < =X(.C.M.(.^.w.!.(.{.(.(.(.Q.",
"7.v.L.~.H./.W.~._.'.B.'.).k.} > z l d m V C Z l & ; - ; e m @.h W 1 6XV.m.{.c.J.W.W.Q.'.Q.c.(.'.",
"l.c.(.~.Q.Q.W.K.W./.'.Q.'.Q.<.} 0 v f V Q l n x = = X X t C @.C z 1 V.$Xm.{._._.Q.Q.Q.Q.'.B.(.(.",
"c.J.~.J.J.Q.Q.J.L./.].Q.'.[.B.k.0 - x c W $ * $ : : + = n Z m V 1 ( M.$X(.).'.].W.W.Q.Q.).(.(.V.",
"U.T.J.c.J.K./.L.Q.~.].~.Q.'.'.).=Xg.#Xh.f.z < X + O + : b x r v ) 1.V.{.).Q._.~.Q.^.Q./.Q.(.V.B.",
"`.XX`.~.J.~.~.~.Q.~.'.Q.Q.Q.'.(.G.i.+X@X-X] ] _ O 2 2 7 ` ] &.h.1.6X{.).Q.Q._.W.Q.~.~.Q.'.3X*X{.",
"5XeX5X[._.J.~.W.Q.~.Q.~.'.].V.x.|.L.T.E.%XO.s.3.P.P.u.9.u.3.3.g.V.6XB.'.Q.].~.~.x.~.Q.J.[.uXdX7X",
"7XsXsX4X_.G.L.Q.Q.L.Q.'._.'.'.Q.e.K.P.G.&X:X8X:XE.OXOX X>X>XOXR.'.'.B.'.x.3XL.~.L.~.~.U.*XsXhXdX",
"8XuXsX4XT.c.J.Q.Q.Q.J.~.~.~.(.^.e..XK.J._.:X5XI. XF.F.P.OX>X>Xj.'.B.B.3XH..Xq.~.~.(.J.J.{.uXdXdX",
"5XgXyX&X_.T.J.L.H.~._.T.x.x.(._.!.w.W.W.Q.U.m.Y.U.T.J.L.J.L.J.L./.Q.H.W.^._.~.H.L._.(.J.`.uXzXiX",
"8XzXdX;X`.T.c.L.J.~.~._.'.Q.(.~.!.!./.W.'.(.(.).(.U.L.J.L.J.K.L.^.Q.Q.Q.W.~.J.J.J.J.I.J. XiXgXiX",
":XdXiX;X`.U.T._._._.L.J.Q.U.Q.Q././.B.B.(.B.(.(.(.U.U.(.T.J.L.~.W.~.Q.Q.~.J.~._.T.T.T.E.;XyXpXyX",
"Y.8XiX8X5X>X;X4X4XXX~.c.J.~.(.J./.V./.B.Q.Q.(.B.(.B.(.U.(.J.J.J.~.(.~.Q.J.(.[.6X5X5X6X>X:XyXiXyX",
"b.8XzXgXpXgXfXgXjXtX XL.(.~.(.(.'.'.V.3X/.'.Q.Q.).).(.(.(.(._.(.~.'.'.~.(.`.5XfXjXzXpXpXpXpXpXpX",
"N.,XpXiXiXfXyXaXsX4X_.P.J.J.U.J.V.'.V.B.Q.W.Q.Q.J.B.J.U.m.U.U.J.c.V.B.c.c.).6XuXpXyXyXyXyXyXyXyX",
"3.b.n.b.m.z.z.P.H.l.8.8.7.7.7.6.t.1.6.6.4.4.4.4.4.7.6.6.6.5.7.6.6.6.6.6.6.6.k.b.y.i.j.i.j.u.j.j.",
"{ +.O.X.X.o. .o. . .;. .o.,.;.>.:.:.:.>.;.;.;.;.;.;.o.o.o.>.o.,.>.>.>.>.>.X.X.X.O.O.O.O.O.O. .O."
};
