/* XPM */
static char *enmy_81740601389[] = {
/* columns rows colors chars-per-pixel */
"48 48 236 2 ",
"   c #040100",
".  c #080A06",
"X  c #130100",
"o  c #1B0000",
"O  c #170A05",
"+  c #161617",
"@  c #121210",
"#  c #240001",
"$  c #290002",
"%  c #280A0A",
"&  c #340102",
"*  c #390509",
"=  c #281817",
"-  c #361515",
";  c #2C0E13",
":  c #2D251E",
">  c #1A1E2D",
",  c #1D1E32",
"<  c #1A0E22",
"1  c #381726",
"2  c #1C212E",
"3  c #1C2132",
"4  c #1A302D",
"5  c #28212A",
"6  c #3A2427",
"7  c #252938",
"8  c #342D3E",
"9  c #2B333E",
"0  c #24323D",
"q  c #373439",
"w  c #102117",
"e  c #430107",
"r  c #550207",
"t  c #4B0D16",
"y  c #56081B",
"u  c #46151A",
"i  c #59151B",
"p  c #68171A",
"a  c #680916",
"s  c #471828",
"d  c #581927",
"f  c #501127",
"g  c #690D22",
"h  c #651C23",
"j  c #681929",
"k  c #751B2B",
"l  c #791B35",
"z  c #6F1F38",
"x  c #492528",
"c  c #58242B",
"v  c #462B36",
"b  c #572736",
"n  c #48303B",
"m  c #5A3337",
"M  c #4C342A",
"N  c #6A252A",
"B  c #76282A",
"V  c #692A37",
"C  c #782637",
"Z  c #683535",
"A  c #763239",
"S  c #292E40",
"D  c #392D43",
"F  c #2C3343",
"G  c #2B3541",
"H  c #373848",
"J  c #3F3E50",
"K  c #433446",
"L  c #573D49",
"P  c #762D44",
"I  c #6A3847",
"U  c #783B46",
"Y  c #692943",
"T  c #3A424D",
"R  c #36434B",
"E  c #574A56",
"W  c #56575C",
"Q  c #4E4951",
"!  c #704F52",
"~  c #555B63",
"^  c #485464",
"/  c #695567",
"(  c #5B6975",
")  c #5D747D",
"_  c #5A6265",
"`  c #67646C",
"'  c #636D7D",
"]  c #62737C",
"[  c #67767C",
"{  c #861C34",
"}  c #991A35",
"|  c #90102E",
" . c #832837",
".. c #84333D",
"X. c #942743",
"o. c #873842",
"O. c #8F3045",
"+. c #885256",
"@. c #914D4E",
"#. c #B16C7C",
"$. c #A9707F",
"%. c #986069",
"&. c #587881",
"*. c #627481",
"=. c #667983",
"-. c #797B8E",
";. c #927A8F",
":. c #AF7C85",
">. c #778C95",
",. c #7A8C96",
"<. c #748D99",
"1. c #7C8C9A",
"2. c #7A859A",
"3. c #6E9099",
"4. c #7B929D",
"5. c #768289",
"6. c #7C9BA7",
"7. c #7DA4AA",
"8. c #76ABB1",
"9. c #878B97",
"0. c #978999",
"q. c #84949C",
"w. c #87959B",
"e. c #95949C",
"r. c #99989C",
"t. c #8A858E",
"y. c #A68696",
"u. c #AA939A",
"i. c #AD8A93",
"p. c #8BA39E",
"a. c #95A59B",
"s. c #878DA1",
"d. c #8194A3",
"f. c #8B94A3",
"g. c #849AA3",
"h. c #8B9CA4",
"j. c #869DAA",
"k. c #8B9DAC",
"l. c #8E95A9",
"z. c #929CA4",
"x. c #9D9CA4",
"c. c #939DAD",
"v. c #9595A8",
"b. c #8E9EB3",
"n. c #989DB4",
"m. c #A89CA8",
"M. c #B79AA8",
"N. c #A69FB2",
"B. c #A187A2",
"V. c #8CA1A6",
"C. c #86A4AC",
"Z. c #8CA3AD",
"A. c #85ABAC",
"S. c #8BA9AE",
"D. c #85A5A4",
"F. c #92A4AD",
"G. c #9BA2AC",
"H. c #93A9AE",
"J. c #98A6AC",
"K. c #86A6B1",
"L. c #8EA5B2",
"P. c #85ABB3",
"I. c #8CA9B3",
"U. c #8DA7B8",
"Y. c #8BAEBA",
"T. c #92A5B3",
"R. c #9AA4B5",
"E. c #93A9B4",
"W. c #9BACB4",
"Q. c #94A5B9",
"!. c #99A4BA",
"~. c #94ACB9",
"^. c #9BADBA",
"/. c #89B3B8",
"(. c #95B2B6",
"). c #94B4BA",
"_. c #9CB2BC",
"`. c #9AB5B9",
"'. c #A8A4AA",
"]. c #B8A5A9",
"[. c #A1A4B3",
"{. c #A4AAB4",
"}. c #A6A8BA",
"|. c #B6A6B5",
" X c #A2B4BC",
".X c #AAB2BB",
"XX c #A7B6B8",
"oX c #B4B8BB",
"OX c #A4B0AC",
"+X c #C78F92",
"@X c #C6A2A8",
"#X c #F0BAB1",
"$X c #B4C5BF",
"%X c #DFC1B7",
"&X c #FAC8BF",
"*X c #9DADC3",
"=X c #9BB4C0",
"-X c #9CB5C9",
";X c #87B9C2",
":X c #A6BCC4",
">X c #ADBCC4",
",X c #AAB7C4",
"<X c #B2BBC5",
"1X c #B3BECB",
"2X c #B3B5C6",
"3X c #B8BBD3",
"4X c #AFAEC3",
"5X c #C7BBC6",
"6X c #9BC1C4",
"7X c #ADC2C9",
"8X c #ADC4C8",
"9X c #B3C4CC",
"0X c #BAC4CE",
"qX c #B5CACD",
"wX c #BCCACC",
"eX c #B5C7C4",
"rX c #BAC5D1",
"tX c #B6CAD2",
"yX c #BCCBD4",
"uX c #B9CBD4",
"iX c #BAD2D9",
"pX c #BCD2CF",
"aX c #C2CCD5",
"sX c #C5C7D6",
"dX c #D5C9D6",
"fX c #C8D3D6",
"gX c #D0CAD4",
"hX c #F6CCC4",
"jX c #C5D7E2",
"kX c #D6D8E5",
"lX c #E3D9E3",
"zX c #D5E7F1",
"xX c #E8F4FE",
"cX c #F5FEFF",
"vX c #FCFDFF",
"bX c #F8F3FA",
/* pixels */
"H H 8 2 3 2 2 2 3 3 3 3 3 3 , 3 G 0 9 9 F 8 D D D K D H 8 7 , , , , , , , 7 , , 7 , 2 2 7 9 9 9 ",
"H Q T q H H G G H F F S 0 0 F F R R R T H J Q J H J J H H S 0 7 F F S S S D F H 9 S S 9 G R R R ",
"{.0XsX0XsXaX3X0X3X,XR.c.b.R.Q.R.F.V.Z.F.Z.H.L.L.L.U.I.Y.P.A.8.A.~.R.R.c.c.!.4X1XrXrXrX0X0XyXyX0X",
"f.,X0X0XrXaX0X0XaX1X}.T.b.T.n.L.T.E.E.S.L.I.I.P.K.K.P.P././.P.P.T.R.T.n.n.!.<XyXrXuX0X9XqXrX0X9X",
"G.0XfXrX0XrXrXyX1X,XE.b.k.L.b.j.L.L.K.U.K.K.K.L.K.L.K.L.L.L.L.L.k.L.b.L.Z.R.=X>X0X9X9X7XqXyXyXtX",
"h.1XyX XR.E.R.W.^.^.R.L.~.R.R.T.b.L.b.b.U.K.L.K.L.E.~.R.~.R.R.R.E.Q.~.E.L.T.~.^.L.E.H.W._.>X7X7X",
"h.9XyX XF.F.Z.H.k.Z.k.Z.L.Z.L.b.!.*XQ.*XQ.!.Q.E.L.L.k.b.b.n.n.n.L.L.K.K.L.A.A.C.L.L.L.E.`.7XyXyX",
"g.7XyX XF.Z.H.T.E.E.I.E.L.L.L.E.n.n.n.n.b.T.L.L.L.L.L.L.T.T.R.T.L.K.L.L.I.I.E.P.S.S.S.S.(.>XqXtX",
"h.9XtX_.F.Z.Z.S.H.L.L.L.L.I.U.U.6.3X2.*X=XI.S.A.6.(./.7.P.P.A.P.~.L.C.I.Y.I.S.K.A.(.S.C.E.8XqX7X",
"H.tXiX XE.Z.Z.Z.H.L.L.I.I.I.I.U.-X6.~.Y.C.4.V.`.`.S.q.g.(.(.I.(.k.~.~.I.C.P.I.I.A.S.S.C.).qXyXqX",
"F.qXyX XE.H.S.Z.S.E.I.I.I.L.U.P.8.;X/.6.(.XXr.r.r.m.m.|.4X;.0.|.N.!.Q.Q.L.L.K.P.C.A.S.S.(.8X9X9X",
"4. X:XH.Z.H.H.Z.T.E.I.L.I.I.U.P.8.8.8.6XD.r.'.v u x d V Y Y %.:.4Xn.l.n.^.~.A.I.S.S.S.C.S.`. X`.",
">.J.W.V.F.H.Z.H.S.T.L.I.I.I.L.P.P././.q..X6 I u A C l l { l l P ;.N.!.!.R.E.E.S.P.S.S.C.S.H.H.H.",
",.V.E.V.Z.F.Z.H.E.L.E.L.I.L.L.L.Y.~.W.{.1 x u C g k k l l P z Y / N.5Xn.q.R._.C.S.S.S.Z.V.H.F.F.",
",.J.H.Z.G.H.Z.Z.Z.L.L.L.E.L.L.T.c.N.M.1 b y C o.o.N e # o X < D K ;.4Xn.f.R._.Z.C.S.S.S.S.F.F.J.",
",.V.H.h.T.E.F.T.E.H.L.E.L.E.E.R.N.M.s b d P A h h & o X O     . K / 0.}.}.R.L.L.L.Z.Z.T.S.V.V.Z.",
"<.k.R.L.T.Z.Z.E.T.E.L.T.~.L.Z.^.N.u.b s f U d I o X O     . X o $ b M.|.w.).Y.C.L.Q.T.R.T.H.S.A.",
"1.L.L.L.E.L.L.E.L.~.L.j.L.~.E.G.e.E - d P P y * o o @ O % ; # # & Y u.0.V.).7./.U.Q.R.n.T.S.S.A.",
"6.T.L.L.E.T.b.T.L.T.E.~.E.b.Z.k.u.1 s f P C  .& * # ; i.:.* e #.:.U M.].W.S.7.Y.U.Q.Q.n.H.H.S.S.",
"j.T.L.k.E.E.L.E.E.k.R.=XE.j.L..XL 1 Y j l  . .& $ $ - %.%.% t :.:.s u.'.J.A.Y.Y.U.Q.R.R.E.H.A.S.",
"g.T.L.k.E.~.L.L._.L.L.L.k.~.~.v.; d l g g  .C & $ 6 O @ 4 . + = % b |.t.W.(.7.Y.U.U.n.R.T.T.S.A.",
"6.T.L.Z.E.Q.L.L.L.E.~.j.k.,Xg.H b Y d i g  .C A * -   @ w . . + ; L |.v.W.I.L.K.L.T.Q.n.T.L.S.S.",
"1.L.E.L.E.L.L.E.k.L.^.~.Z.=X4.9 5 x u c V V N c # % = @ @ + + + n E t.x.h.A.=XP.U.Q.n.Q.T.T.C.I.",
"<.k.E.L.L.L.k.E._.j.E.*Xj.L._.h.q 6 M x t i Z B Z & ; O % = < 5 K '.|.z.^.L.C.L.U.T.T.T.T.H.L.S.",
"L.k.L.L.L.T.L.L.L.Q.E.L.L.^.T.w.a.].- Z i p B p N B V U c b b s m.N.x.G.F.T.I.L.U.T.T.T.T.L.L.L.",
"L.L.L.E.T.L.L.L.L.~.~.E.L.L.6.-.! ! ].+Xu h r ..k p y N f I b M.m.G.R.T.H.T.E.L.T.T.T.T.T.E.T.L.",
"E.L.L.L.L.L.T.L.k.E.E.E.Q.~.L.q.a.! ! +.:.p B p B ..N u b :.;.M.G.T.T.T.T.T.T.L.L.T.L.T.T.T.T.T.",
"E.T.Q.L.b.L.L.T.E.~.L.b.E.^._.W.a.].].! Z @.B B B p i N V v @Xm.G.L.T.E.T.T.T.T.E.L.E.L.T.T.T.T.",
"L.L.E.L.Z.L.L.E.~.~.E.k.k.E.E.H.OXp.a.a.! %X#X#XB B N p f x @X'.T.I.I.Q.T.T.T.T.T.T.L.L.T.T.T.T.",
"j.L.T.T.T.Z.L.T.L.L.E.E.L.L.k.k.4.a.OXq w &X&X&X@.B r p V m v m.E.P.L.L.n.T.R.T.T.L.E.L.L.T.R.T.",
"j.j.L.E.L.Z.b.L.Z.L.T.~.~.~.E.T.|.].= M u B p p B @.@...Z ! x x.L.P.L.L.T.T.T.T.E.L.L.L.L.T.T.n.",
"s.j.T.E.T.L.C.L.E.E.L.T.k.b.T.R.M.1 V i  .B B  . .r e @.+.Z m '.T.I.L.T.T.T.F.T.H.E.I.L.E.T.T.Q.",
"9.g.T.T.L.I.I.K.6.~.k.~.R.l.}.N.].x N r { O.c Z - % * Z A A %.i.u.a.{.z.J.W.w.E.E.W.K.U.k.Q.b.b.",
"f.c.T.T.C.L.K.A.P.).b.b.n.*X}.0.6 M g } } a A M . = u p l ..@.! E e.G.'.z.J.H.F.6.C.L.L.j.Q.*X*X",
"z.n.G.Z.Z.I.L.A.K.U.~.j.!.*X-.E x i l | } } A - : - i N  . .N c E ` W r.J.J.h.G.F.~.^.R.!.U.b.j.",
"n.G.T.k.Z.I.P.S.K.K.=XT.!.n.J < n s X.| } } i * % # e N  .k g c u.J.~ W ~ {.{.z.G.z.h.d.L.!.Q.k.",
"{.{.W.F.Z.L.I.P.I.6.~.^.n.s.^ D v d g X.X.O.c % % 6 U V C O.d 1 OXOXz.J.~ W ^ {.G.{.'.'.F.W. XW.",
"<X9X1X^.E.L.I.S.).6.k.T.*Xn.s.B.q = Y C y y % 5 w : n d f d s L e.Z.J.z.w..X` E ` t.x.$X{.wX>X8X",
"1XrX0X XE.C.S.I.~.~.j.T.!.!.*X4XG.q 1 s I ;.5 @ 4 . 9 q 8 v K t.H.(.(. Xx.e.x.dXQ ` _ t.w.fXqXpX",
"<X0XrX,XZ.V.C.L.C.=XL.~.R.l.!.f.D.{.v.5XN.m.`.p.D.p.pXXXx.x.t.XXD.`.q.V.[.[.gXdXlX@XW ` _ wXeXeX",
"<XaX9XW.W.H.C.C.C.L.E.H.Z.c.c.T.A.A.J.G.G.V.S.A.7.D.S.E.H.J.Z.C.(.C.6.W.v.gXdXgXlXgXlXvXcXfX$X$X",
"<XaX0X XW.J.Z.S.S.L.T.E.T.b.R.E.P.A.S.J.H.Z.P.A./.A.D.D.g.V.I.`.S.A.H.yXkXkX5XgX5XlXbXlXoXOXfXfX",
".XwX0X XW.H.Z.H.E.E.Z.Z.L.G.G.L.Z.Z.T.H.H.Z.L.C.A.S.W.W.R.h.k.k.S.iXjX7XyXrXkXvXvXvXvXfXOXXX$X$X",
"G.<XqX>X:XXX X:X:X`.T.Z.Z.T.T.L.T.Z.c.c.F.T.F.c.F.c.v.l.z.R.,XuXtXjXzXjXcXvXvXcX2X{.m.G.OXeXfX$X",
"z.<XyXyXrXqXtXiXtX7XW.S.L.R.E.T.R.T.R.T.T.R.R.!.}.[.[.4X2X3XsXjXcXzXcXcXxXW..XyXkXaXaXfXaX0XaX0X",
"h.oXwXwXwXwX9XqXtX:XW.S.h.L.F.Z.c.n.Z.L.Z.b.k.b.9.v.2XkXcXcXvXcXxXT.q.W.W.E.>X>X7X7XyXqX<X0XsXeX",
"5.r.F.w.V.V.V.D.C.q.4.>.,.,.<.,.1.<.3.3.3.<.2.2.d.;.2.2.1.<.1.,.9.9.9.2.5.>.g.C.k.g.j.f.w.n.G.f.",
"_ [ [ ' ] ] ] [ ) ) ) ] *.*.&.) &.&.&.&.&.&.&.*.*.*.*.*.*.) ) ) ( -.( [ =.[ ^ &.) ( *.=.' ` ' =."
};
