/* XPM */
static char *enmy_41740601389[] = {
/* columns rows colors chars-per-pixel */
"48 48 240 2 ",
"   c #040300",
".  c #0D0100",
"X  c #060B00",
"o  c #130000",
"O  c #1B0201",
"+  c #1D0B07",
"@  c #1D130C",
"#  c #171307",
"$  c #1A1E17",
"%  c #0F120E",
"&  c #250101",
"*  c #2A0607",
"=  c #38020A",
"-  c #28130B",
";  c #2A0917",
":  c #2C1A13",
">  c #251817",
",  c #361719",
"<  c #360E13",
"1  c #1B1F2E",
"2  c #261B26",
"3  c #381825",
"4  c #251B33",
"5  c #3C0F23",
"6  c #1B252C",
"7  c #1C2231",
"8  c #172433",
"9  c #3B2427",
"0  c #282A39",
"q  c #2C333E",
"w  c #322B2F",
"e  c #2B281F",
"r  c #4A0C17",
"t  c #5A0C1A",
"y  c #491418",
"u  c #57161B",
"i  c #51180B",
"p  c #68081B",
"a  c #641518",
"s  c #4E291C",
"d  c #421C24",
"f  c #481927",
"g  c #541420",
"h  c #5B1828",
"j  c #55192F",
"k  c #671727",
"l  c #751B2B",
"z  c #71182E",
"x  c #4B2428",
"c  c #5B222C",
"v  c #53242D",
"b  c #5D2334",
"n  c #562936",
"m  c #48353A",
"M  c #5B343C",
"N  c #482838",
"B  c #6A262A",
"V  c #752A2C",
"C  c #662A37",
"Z  c #762736",
"A  c #6A323A",
"S  c #723830",
"D  c #64261B",
"F  c #72493E",
"G  c #1F3948",
"H  c #2E2D41",
"J  c #332D44",
"K  c #253342",
"L  c #2B3543",
"P  c #273B4B",
"I  c #343846",
"U  c #493845",
"Y  c #573B45",
"T  c #7A2B43",
"R  c #68394A",
"E  c #783648",
"W  c #652E41",
"Q  c #39414D",
"!  c #2E4354",
"~  c #354352",
"^  c #2D404F",
"/  c #474849",
"(  c #5A4449",
")  c #5B4853",
"_  c #565657",
"`  c #4F4E53",
"'  c #724D51",
"]  c #575E62",
"[  c #775E64",
"{  c #5B7479",
"}  c #5B676C",
"|  c #676F78",
" . c #62737C",
".. c #68747C",
"X. c #726F6E",
"o. c #881B36",
"O. c #900F31",
"+. c #84273A",
"@. c #8A2434",
"#. c #853849",
"$. c #913448",
"%. c #A6354D",
"&. c #8E4D56",
"*. c #9F5961",
"=. c #887073",
"-. c #B46D77",
";. c #AE5D63",
":. c #C27579",
">. c #5B7585",
",. c #696E84",
"<. c #637382",
"1. c #997B89",
"2. c #847B80",
"3. c #B67B81",
"4. c #76858D",
"5. c #7B8C96",
"6. c #748C9C",
"7. c #7B8A9A",
"8. c #768B94",
"9. c #7B949C",
"0. c #79908A",
"q. c #7C93A2",
"w. c #7CA6AA",
"e. c #7AB0AA",
"r. c #8A8689",
"t. c #868A9A",
"y. c #988B97",
"u. c #84929B",
"i. c #89989C",
"p. c #9B9A9D",
"a. c #97939C",
"s. c #A2949D",
"d. c #AC8D97",
"f. c #88A29C",
"g. c #A5A198",
"h. c #859BA3",
"j. c #8C9CA4",
"k. c #859BAA",
"l. c #8C9EAB",
"z. c #8495A5",
"x. c #929BA3",
"c. c #9C9CA5",
"v. c #939DAD",
"b. c #9C9EAB",
"n. c #9793A3",
"m. c #8E9FB1",
"M. c #959EB1",
"N. c #9A9DB2",
"B. c #958DA5",
"V. c #A495A1",
"C. c #A899A6",
"Z. c #B79CA9",
"A. c #A79CB1",
"S. c #85A2A5",
"D. c #8BA3A5",
"F. c #86A3AD",
"G. c #8CA4AD",
"H. c #85AAAE",
"J. c #8DA9AD",
"K. c #89A8A3",
"L. c #95A2A6",
"P. c #92A4AD",
"I. c #9BA3AC",
"U. c #92A9AD",
"Y. c #9DA6A7",
"T. c #82B2AD",
"R. c #84A6B3",
"E. c #8DA5B2",
"W. c #84AAB3",
"Q. c #8CAAB3",
"!. c #8DA6B8",
"~. c #8BABB9",
"^. c #93A4B3",
"/. c #9AA3B4",
"(. c #93AAB3",
"). c #9BACB4",
"_. c #92A5B9",
"`. c #94ABB9",
"'. c #9CADBA",
"]. c #8EB3B9",
"[. c #95B3BB",
"{. c #9CB3BC",
"}. c #9CB4B6",
"|. c #95B0A8",
" X c #A2A3AB",
".X c #A4A6A9",
"XX c #B5A3AE",
"oX c #A3A5B2",
"OX c #A3ABB3",
"+X c #AAA9B7",
"@X c #B6ABB6",
"#X c #A3B4BC",
"$X c #A4B9BE",
"%X c #A7B2BA",
"&X c #B9B7BB",
"*X c #C29FAE",
"=X c #C29FB0",
"-X c #FFBABB",
";X c #F9A6AC",
":X c #C3AABD",
">X c #A7C4BF",
",X c #9BB4C2",
"<X c #A4B5C1",
"1X c #ABB6C1",
"2X c #A5BCC3",
"3X c #ACBCC4",
"4X c #B2BCC4",
"5X c #B3BECB",
"6X c #B8BAC6",
"7X c #ACABC2",
"8X c #ACC3CB",
"9X c #ADCBCD",
"0X c #AAC8C6",
"qX c #B3C3CC",
"wX c #BAC3CE",
"eX c #B3CACD",
"rX c #B2D3CD",
"tX c #B5C5D0",
"yX c #BBC5D1",
"uX c #B5CBD2",
"iX c #BBCBD3",
"pX c #BDCBD9",
"aX c #B8D1D6",
"sX c #ACCDCA",
"dX c #CAC5CC",
"fX c #C5C4CB",
"gX c #C3C7D4",
"hX c #C2CBD5",
"jX c #C3CBDB",
"kX c #C8D3DD",
"lX c #D5D0D5",
"zX c #F7CCD4",
"xX c #C9D6E5",
"cX c #D8DAE3",
"vX c #FCDCE7",
"bX c #D4E4F1",
"nX c #EBF8FF",
"mX c #F4FEFF",
"MX c #FFF8FE",
"NX c #E1EAFB",
/* pixels */
"I I J 6 0 1 1 1 8 8 7 8 8 8 8 8 q q q q K P G P P ^ P L q w 2 2 4 4 4 4 4 4 4 7 7 6 7 6 K K L P ",
"I ` I I I I q L I L L K K K K L Q Q ~ ~ ~ ! ! ! ^ ^ ^ I I q 0 0 J J J J q J L I 0 L K q I I I ~ ",
"+XwXgXfXgXhXwXwX5X1X/.M.v.M._._.P.P.G.G.^.M.m.M.E._._.(.(.U.H.D./././.^.v./.#X5XtXyXqXwXyXjXjXgX",
"n.1XwX5XyXyXwXyXpX5X'.^.M.M.^.M.J.J.U.^._._.N.'.E.M.^.Q.J.T.T.H.Q.^.^.J.G.'.8XuXuXiXyXqX5XgX5X5X",
"I.wXkXiXyXyXyXpX5X<X(.m.v.^.l.k.G.W.H.E.^.M.N.M.v.^.E.J.H.e.e.e.H.H.G.Q.H.Q.[.0XtX9XtX5XtXpXgXgX",
"j.5XwX#X/.(.(.).'.'.(./.(._./.E.W.F.G.E.M.^.M.N././.^.Q.T.T.T.T.H.J.J.J.J.Q.~.[.!.!.(./.#X5X5X5X",
"j.qXiX#XP.P.P.P.l.P.m.l.^.G.E.E.Q.Q.~.!._.^././.N.P.v.D.G.K.G.K.G.P.G.J.H.S.F.F.Q.Q.E.(.'.5XpXpX",
"i.8XaX#XP.P.P.^.^.(.(.^.^.^.^.E.Q.Q.E.E.E.^.^.U.P.I.b.b.Y.C. X XY.c.c.L.I.^.^.E.Q.Q.J.J.'.3XtXtX",
"h.9XiX{.P.J.P.P.{.l.E.l.<Xk.^.^.`.^.q.{.'.G.#Xh./. XC.XXs.=X1.=XV.C.A.B.@XoXz.'.^.~.Q.F.].8X9X0X",
"U.uXaX$X(.(.J.^.9.).<Xl.l._.<Xm.(.M.#X#X5.j.U.). X.Xw 3 5 R &.b R R d.XXA.n.OX/.J.!.Q.F.,X9XaX9X",
"J.eXuX{.(.(.P.P.(.(._.'.m.l.k.m.N.NXmXNXmXmXMXMXMXMXvXR T j T z b j ' d.1.7XA./.E.E.E.H.].0XrX9X",
"9.{.2X(.J.U.G.G.v.<Xl.z.'.mXmXnXmXmXyXhXcXdXcXw , d R n b T j #.W f R n :XA./.v./.E.W.R.W.].}.[.",
"0.J.).G.D.G.j.P.^.j.'.nXmXnXjXxXpXbXkXgXdXzX3 d M A C h R & = & * * n N C.n.N./.E.!.Q.F.G.Q.J.K.",
"4.G.(.G.D.G.(.#XmXmXnXbXkXxXxXtXxXpXhXcXC.f W b u #.C A * O o O o O O ) U oX/.'.E.!.E.Q.J.J.P.U.",
"5.J.U.j.v.).qXxXxXiXjXpXxX5XjXbX0X(.Y.s.*Xr h t Z z B & O @     + o . % q n.#Xk.E.E.R.Q.P.P.G.I.",
"8.G.U.j.D.#XxXnXiXjXcXyXxXxXjXA.`.`.b.C.N j k +.Z V & O . . - + O : o o m oXl.`.R.E.J.^.J.D.D.L.",
"6.E.(.P.I.i.| / cXdXdXlXfXlX.X+Xv.7XA.A.J j h T z Z . X # # -.:.* * -.-.Y XXi.).U.^.I./.J.J.J.J.",
"6.E.`.P.).Y.4.X./ X.lXlXdX@Xp.a.+XB.A.U 5 W h z $.C .   X - ;.:.- : *.:.A Z.i.].U./.b./.J.Q.J.U.",
"q.Q.E.l.).OXx.a..X_ _ _ .Xp..XoX+Xn.C.N 3 j z o.O.z < @ % + i = O o r t c C.OXJ.^./././.J.J.J.U.",
"k.!.E.j.L.OXI.Y..Xg.+X` } _ x.L.Y. XU f f Z z p o.o.h - # $ * & > > = * n s.<Xq.^./.N.P.!.K.P.J.",
"k._._.l.M.P.I.I.Y.i. X.XY.} ] ] p.r., v u u a l O.o.T ; o @ ; ; . 9 * R Y +XF.W.E.(.M.^.^.J.P.U.",
"q.m.^.m.(./.P.I.i.%XOXj.j.x.u.} ] =.d.v x v B u z z $.b 3 ; ; ; 2   9 U XXu.[.~.Q././.^.^.J.J.P.",
"q.m._.^.'.M.P./.}.U.u.U.2XU.).i.p.Y =.' r.y s x k z Z Z b v W R ) m m a.B.tX6.].!.^.^.^.P.J.P.U.",
"q.m._.M.(.^.l.^.j.<X{.G.U.9.{.P..XXXd.' =._ g.w g k p l C g h f 3 w n.b.'.E.!.~.!.!._./.^.U.P.U.",
"m.M.v.^.^._.^.G._.E.^.(.(.J.G.P.j.@Xy.s.g._ X.( f k D @.D i D h d.XX.XL.G.F.,Xk.!.!._.^.^.^.J.U.",
"m.M.^.^.^.E.E.E.E.E.!.Q.(.(.U.h.(.N.+X6X|.p.g.( &.zXzX;X+.D V u h XXa.$X[.F.!.,X!._._.^.^.P.P.J.",
"^.^.^.^.^.E.E.E.`.`.E.h.l.'.{.{.w.`.v.a.p.@X1.C t ;X-X-XD i i D h Z.p.K.S.w.E./._.!.E._.^.^.J.J.",
"I.U.P.^.G.E.E._.F.E.`.`.(.G.h.9.w.,XOX Xs.Z.C t p @.a &.S F D @.l R @XK.J.{.'.l._._._._.^.(.Q.Q.",
"L.L.U.P.E.G.E.!.!.F.E.`.'.U.I.#X{.8.OXC.M v u Z @.l i s e ' S %.o.k p.|.K.J./.oX_.!.!.E.^.^.Q.R.",
"K.L.P.U.J.G.E.E.`.E.k.P.P.j.j.c.C.U , 9 d c t l o.l F : # : D ;.%.&.m f.K.S.B.7X/._.!._.^.^.Q.R.",
"i.i.U.U.G.G.E.!.k.(.'.'./.u._ 1 , f n v b y t $.+.a - # e < @.O.O.Z + |.}.0Xb.A./.`.!.!._./.Q.R.",
"u.f.L.(.J.G.G.E.G.`._.h.^.#X4.U Y g c u u k #.a l ' - $ : = @.O.%.a m .X0.S./.N./.!.!.!._.^.Q.R.",
"5.i.G.P.G.^.E.E.R.[.`.k.E.,X6./ N f j h k h #.W C < @ - < i k +.Z A 9 &Xi.G.(.!.R.~.R.!.m.m.M.N.",
"h.P.^.^.E.E.E.F.Q.!.R.F.`.,X_.z.U 5 j C E T C x , > : : - y B Z A n x s.i.J.[.W.R.R.m.,X_.M././.",
"l.P.^.J.G.J.E.F.[.F.F.E.!.!._.<Xy.) f f b W ; f + @ > $ - x A C j d ( p.L.{.Q.R.R.w.,Xm.^.^.P.v.",
"P.U.P.l.G.J.!.J.~.Q.!.[.E.q.k././.B.V.Z.Z.Z.5 ; 2 $ $ $ e m M 3 M ( r. XP.(.R.~.,Xm.m.m.P.P.P.D.",
"OX'.).P.G.E.Q.Q.F.Q.~.`.`.!.^.E.(.U. Xc.V.XX) _ Q 6 % % 6 / [ [ y.y.&XI.h.G.k.,XE._.^.^.).).}.|.",
"3XqX3X#X(.^.Q.G.G.Q.!.F.E.`.`.E.k.J.#XL.n.+Xt.u.K.K.|.}.|.i.=.X.+XY.%XD.^.{.E.`.m./.v.I.).4X0X0X",
"5XyXtX<X(.G.G.Q.!.~.E.F.G.^._.E.e.H.`.G.G.P.'.}.|.J.K.f.i.OXwXfXp.L.G.P.`.,XG.m.M./.I.L.OXeXrXrX",
"3XwXtX2XP.j.G.Q.`.J.E.(.`._._.E.].w.W.Q.`.j.8X2XH.Q.].K.|.3X&Xu.D.[.G.Q.G.E.l.'././.Y.x.}.>XrX0X",
"3XhXqX).).U.G.J.G.Q.(.^.G.G.G.E.W.w.~.W.Q.E.E.J.G.G.G.J.G.P.P.M.(.F.F.F.Q.(.^.v.b.oX XI.).0XrXsX",
"qXhXeX#X(.P.G.J.J.J.Q.^.E.^._.E.R.~.~.R.E.E._.E.!._.E.P.^.^./.^.!.Q.W.Q.Q.(.^.v.v.b.b.c.).0XrX>X",
"%XwXeX%X).U.J.U.`.J.J.G.P.^.^.J.E.R.E.Q.E.E.^._._.^.^.^.^.^./.E.Q.Q.Q.R.R.G.^.)./.A.Y./.%X>XrXsX",
"L.4XwX3X3X#X#X2X2X{.^.G.G.P.^.^.E.E.E.E._.^.^.M.^.N.N.^.M.M.M.E.G.Q.Q.G.F.J.).3X4X6X%X%X$XeXsX0X",
"x.8XhXiXiXiXeXaXuX8X'.P.^._.^.^.^.^._./._._._._./.N.N./.N._._.!.^.^.(.J.J.].2XuXhXgXgXyXfXiXaXrX",
"x.&XwXeXwXeXqXeXuX2X(.J.l.P.P.P.M.m.m.E.M.N.N._.N.N.N.N.M.m.m.E.l.^.G.l.K.T.$XqXwXwX5XwXqXqXqXqX",
"r.i.L.i.D.D.S.G.S.h.9.5.5.5.5.7.7.7.7.7.7.7.,.z.q.1.t.7.q.6.6.8.5.t.5.8.8.6.9.i.i.x.n.x.v.j.L.l.",
"} ....| |  . ...{ { { <.<...<. .,.,.>.<.<.>.>.,.,.,.,.,.>.>.>.>.| |  . .{ { { {  .| | ,.|  . . ."
};
