/* XPM */
static char *d4f87276862d463fee367686ae018059vbtInm4hvODH1hJw[] = {
/* columns rows colors chars-per-pixel */
"48 48 150 2 ",
"   c #030005",
".  c #13070F",
"X  c #060416",
"o  c #0D0513",
"O  c #0C0916",
"+  c #00031A",
"@  c #0D0B1C",
"#  c #130514",
"$  c #1C0712",
"%  c #150A13",
"&  c #1C0B12",
"*  c #140C1B",
"=  c #1B0E1A",
"-  c #15111D",
";  c #1D131C",
":  c #1D181E",
">  c #23090F",
",  c #2D1314",
"<  c #2C1916",
"1  c #22141C",
"2  c #28151B",
"3  c #261A1E",
"4  c #2A1B1D",
"5  c #341D17",
"6  c #331E1B",
"7  c #3B1E1C",
"8  c #34211F",
"9  c #3A211E",
"0  c #010721",
"q  c #040926",
"w  c #0B0D23",
"e  c #060C28",
"r  c #0B0F2A",
"t  c #120E22",
"y  c #0F1124",
"u  c #0E122B",
"i  c #141224",
"p  c #1B1423",
"a  c #1D1A26",
"s  c #13142A",
"d  c #1C172A",
"f  c #1B1C2E",
"g  c #0F1630",
"h  c #141633",
"j  c #141833",
"k  c #1C1A32",
"l  c #201622",
"z  c #261B24",
"x  c #2A1D21",
"c  c #231E2A",
"v  c #2A1E2B",
"b  c #331F20",
"n  c #2E2323",
"m  c #27212B",
"M  c #2E232A",
"N  c #352322",
"B  c #3A2624",
"V  c #362827",
"C  c #3C2825",
"Z  c #32242B",
"A  c #392629",
"S  c #352929",
"D  c #3C2A2B",
"F  c #2B2632",
"G  c #2F2932",
"H  c #342731",
"J  c #332B35",
"K  c #3E2E34",
"L  c #3C2F39",
"P  c #3D3236",
"I  c #3D333C",
"U  c #3D383F",
"Y  c #462727",
"T  c #412A2B",
"R  c #432E31",
"E  c #4C2F33",
"W  c #433334",
"Q  c #4B3335",
"!  c #40323F",
"~  c #45363D",
"^  c #43343C",
"/  c #4A353A",
"(  c #4D343A",
")  c #4B353B",
"_  c #43383C",
"`  c #463B3F",
"'  c #45383C",
"]  c #4E3B3E",
"[  c #503335",
"{  c #51383E",
"}  c #513B3F",
"|  c #363642",
" . c #3E3643",
".. c #3C3642",
"X. c #3A3843",
"o. c #3F3840",
"O. c #3F3943",
"+. c #383844",
"@. c #3B3946",
"#. c #3D3B46",
"$. c #3E3B46",
"%. c #3F3C47",
"&. c #3D3A44",
"*. c #3D3D49",
"=. c #3E3C49",
"-. c #3E3D49",
";. c #413541",
":. c #433642",
">. c #423B43",
",. c #463940",
"<. c #453943",
"1. c #453A42",
"2. c #413C43",
"3. c #423A45",
"4. c #453945",
"5. c #443A45",
"6. c #453E45",
"7. c #453A44",
"8. c #483940",
"9. c #4B3A40",
"0. c #4B3A42",
"q. c #4B3B42",
"w. c #413B49",
"e. c #473B49",
"r. c #413D4B",
"t. c #413F4A",
"y. c #453F4B",
"u. c #443D4A",
"i. c #4A3C49",
"p. c #4A3E48",
"a. c #4A3E4A",
"s. c #4C3C49",
"d. c #4B3E49",
"f. c #513740",
"g. c #513740",
"h. c #503C47",
"j. c #523D42",
"k. c #503C48",
"l. c #513D48",
"z. c #4F4141",
"x. c #4A404B",
"c. c #514040",
"v. c #514249",
"b. c #FFF5F4",
"n. c #FFF5F4",
"m. c #FFFAF3",
"M. c #FFFBF6",
"N. c #FFFBF5",
"B. c #FFFBF8",
"V. c #FFFBF8",
/* pixels */
"m.M.x M F J v n A N 9 5 6 8 n S Z H Z K A 8 T 5 5 D 6 V K Z Z Z Z n 8 6 5 9 N V v m J F M 4 B.m.",
"B.b._ G c c m J x 4 C B B V 4 x v v z M x 4 W A A R 4 4 M z v v x 4 D B B C 4 x J m c c G _ b.M.",
"4 P   O i i t * ; 1 R W W P : - p d - p = ; ^ W ^ ^ ; = p - d p - : P W W R 1 ; * i i i O   P 4 ",
"M G a i s w w @ * = ~ <.<.>.- @ t i @ - O - U 6.6.U - O i @ i t @ - o.<.8.~ = = @ w w s s a G M ",
"G a i + 0 q j k t * 5.<.5.%.@ w w u w i @ - X.r.r.X.- @ s w u w w @ w.3.<.5.* t k j q + + i a G ",
"G F f s g e q + i * e.:. .r.@ i w u r s w i @.*.*.@.i @ s r u w i @ r. .:.e.* i + q e g s f F G ",
"v F X @ r r h k p # s.^ U x.O s u u w s w i @.#.#.@.i @ s w u u s O y.I ^ a.# p k h r r w X F m ",
"z I X i s w t t p # k.^ ^ a.o i i s @ i * p o.2.>.o.p * i @ s i p o a.^ ^ j.# p t t w s i X I z ",
"A x ; * * t p p = $ f.( / 8.% * * i * p # % ' ^ ^ ` % . d * i * = % 8./ ( { $ = p p t * * ; x V ",
"N 6 1 = * * # # $ > Q [ ( W $ % % = = 1 1 4 W W W W 4 1 1 = = % % & Q ( [ Q > $ # # * * = 1 6 N ",
"9 B R ~ 5.e.s.k.g.E Y 7 7 T W q.<.<.8.K W W 6 B B 6 W W K <.<.<.q.W T 7 7 Y E { k.a.e.5.~ R A 9 ",
"5 C W 8.5.:.;.^ ( Q 7 7 7 9 W ' ~ ~ s.K } j.< B B < j.} K s.~ ~ ' W 9 7 7 7 Q ( ^ ;.:.5.8.W C 5 ",
"6 C W 6.5. . .^ / Q 9 7 7 N W ' :.;.p.K q.c.< B A < c.q.K p.;.:.' W N 5 7 9 Q / ^  . .3.6.W C 6 ",
"8 V P o.w.r.y.a.q.W T 7 8 D P 1.5.3.5.L W W N A A N W W L 5.5.5.1.P D 8 7 T W q.a.y.r.%.o.P V 8 ",
"n x : - @ @ O o % $ W / ' W % % * * * l : 3 W W W W 3 : l * * * % % W ' / W $ % o O @ @ - : x n ",
"Z z - @ @ y s i = % 8.' ' 1.% - t i O d o % <.^ ^ <.% o d O i t - % 1.' ' 8.% * i s y @ @ - z Z ",
"Z z i w w w w y * l I ~ :.I d i i s w i O * I U I I * O i w s i i d I :.<.I l - t w w w w i z Z ",
"H v d s s u s s O = 4.a.a.3.* @ w u w s i a e.x.a.e.d i s w u w @ * 5.a.a.<.= O s s u u i d v H ",
"Z z - @ w u w w p % <.^ I 5.* i w y w i o * L ~ ~ L * o i w y w i = 5.I ^ <.* p w w u w @ - z Z ",
"K M p - i s s i p % ~ K K <.% p i d i p * ; ~ q.q.~ ; * p i d i p % <.K K ' % p i s s i t : M K ",
"A 4 ; O @ w y * # . ] ] q.8.% o O @ o = % 1 q.j.j.8.1 % = o @ O o . 8.q.] ] . . * y w @ O ; x D ",
"b 4 ; - i i i p 1 4 W / W W 3 : p p * 1 1 2 R T T R 2 1 1 * p p : 3 W W / W 4 1 p i i i - ; 4 8 ",
"C D P U | | |  .P W 8 N N N W I 3.3.I <.^ D Q N N Q D ^ 8.I 3.3.P W N N N 8 W P  .| | | U P D C ",
"6 C ^ 6.r.*.%.2.^ c.6 B A 6 z.^ :.>.^ v.q.R R , , R R q.v.I :.>.~ z.6 C C 6 c.^ 2.%.*.r.6.^ D 6 ",
"6 C ^ 6.r.*.%.2.^ c.6 B A 6 z.^ :.>.^ v.q.R R , , R R q.v.I :.>.~ z.6 C C 6 c.^ 2.%.*.r.6.^ D 6 ",
"C D P U | | |  .P W 8 N N N W I 3.3.I 8.^ D Q N N Q T ^ 8.I 3.3.I W N N N 8 W P  .| | | U P D C ",
"b 4 ; - i i i p 1 4 W / W W 3 : p p * 1 1 2 W T T W 2 1 1 * p p : 3 R W / W 4 1 p i i i - ; 4 8 ",
"A 4 ; O @ w y * # . ] ] q.8.% o o @ o = % 1 q.j.j.q.1 % = o @ o o % 8.q.] ] . . * y w @ O ; x D ",
"K M p - i s s i p % ~ K K <.% p i d i p * ; ~ q.q.~ ; * p i d i p % <.K K ' % p i i s i t : M K ",
"Z z - @ w u w w p % <.^ I 5.* i w y w t o * L ~ ~ L * o i w y w i = 4.I ^ <.* p w w u w @ - z Z ",
"H v d s s u s s O = 4.a.a.3.* @ w u w s i a e.x.a.e.d i s w u w @ * 5.a.a.<.= O s s u u s d v H ",
"Z z i w w w w y * l I <.:.I d i i s w i O * I U I I * O i w s i i d I :.<.I l - t w w w w i z Z ",
"Z z - @ @ y s i = % 8.' ' 1.% - t i O d o % <.^ ~ <.% o d O i t - % 1.' ' 8.% * i s i @ @ - z Z ",
"n x : - @ @ O o % $ W / ' W % % * * * l : 3 W W W W 3 : l * * * % % W ' / W $ % o O @ * - : x n ",
"8 V P o.w.r.y.a.q.W T 7 8 D P 1.3.3.5.L W W N A A N W W L 5.5.5.1.P D 8 7 T W q.a.y.r.2.o.P V 8 ",
"6 C W 6.5. . .^ / Q 9 7 7 N W ' :.;.p.K q.c.< B A < c.q.K p.;.:.' W N 5 7 9 Q / ^  . .5.6.W C 6 ",
"5 C W 8.5.:.;.^ ( Q 7 7 7 9 W ' ~ ~ s.K } j.< B B < j.} K s.~ ~ ' W 9 7 7 7 Q ( ^ ;.:.5.q.W C 5 ",
"9 B R ~ 5.e.s.k.g.E Y 7 7 T W q.<.<.8.K W W 6 B B 6 R W K <.4.<.q.W T 7 7 Y E { k.a.e.5.~ R A 9 ",
"N 6 1 = * * # # $ > Q [ ( W & % % = = 1 1 4 W W W W 4 1 1 = = % % & Q ( [ Q > $ # # * * = 1 6 N ",
"A x ; * * t p p = $ f.( / 8.% * * i * p # % ' ^ ^ ' % . d * i * = % 8./ ( { $ = p p t * * ; x V ",
"z I X i s w t t p # k.^ ^ a.o i i s @ i * p o.2.>.o.p * i @ s i p o a.^ ^ j.# p t t w s i X I z ",
"v F X @ r r h k p # s.^ U y.O s u u w s w i @.#.#.@.i @ s w u u s O y.I ^ a.# p k h r r w X F m ",
"G F f s h e q + i * e.:. .r.@ i w u r s w i @.*.*.@.i @ s r u w i @ r. .:.e.* i + q e g s f F G ",
"G a i + 0 q j k t * 5.<.5.#.@ w w u w i @ - X.r.r.X.- @ s w u w w @ w.3.<.5.* t k h q + + i a G ",
"M G a i s w w @ = = ~ <.<.o.- @ t i @ - O - U 6.6.U - O i @ i t @ - o.<.8.~ = = @ w w s s a G M ",
"4 P   O i i t * ; 1 R W W P : - p d - p = ; ^ W ^ ^ ; = p - d p - : P W W R 1 ; * i i i O   P 4 ",
"B.b._ G c c m J x 4 C B B V 4 x v v z M 4 4 R A A W 4 4 M z v v n 4 D B B C 4 x J m c c G _ b.M.",
"m.M.x M F J v n A N 9 5 6 8 n S Z H Z K V 8 T 5 5 D b V K Z H Z Z n 8 6 5 9 N V v m J F M 4 B.m."
};
