/* XPM */
static char *floor__1_1740383893[] = {
/* columns rows colors chars-per-pixel */
"48 48 95 2 ",
"   c #191F2D",
".  c #181F32",
"X  c #1C212E",
"o  c #162233",
"O  c #1B2232",
"+  c #1D2A3A",
"@  c #202833",
"#  c #242E3F",
"$  c #2B323E",
"%  c #272F40",
"&  c #282F41",
"*  c #253242",
"=  c #2A3444",
"-  c #2E3C4B",
";  c #333644",
":  c #343846",
">  c #323C4C",
",  c #3B3D4A",
"<  c #37414B",
"1  c #3D424E",
"2  c #344352",
"3  c #424652",
"4  c #596269",
"5  c #5E6D72",
"6  c #5F727B",
"7  c #637176",
"8  c #62737B",
"9  c #6A757B",
"0  c #63787D",
"q  c #647281",
"w  c #798289",
"e  c #778B94",
"r  c #7A8C96",
"t  c #778A98",
"y  c #7B8A99",
"u  c #7D919A",
"i  c #82969D",
"p  c #85989F",
"a  c #8395A3",
"s  c #8599A4",
"d  c #8C9CA3",
"f  c #879AA8",
"g  c #8C9EAC",
"h  c #919CA3",
"j  c #939EAF",
"k  c #8CA1A6",
"l  c #87A3AE",
"z  c #8DA3AD",
"x  c #8EA9AE",
"c  c #96A1A7",
"v  c #91A4AE",
"b  c #98A2AC",
"n  c #93A8AF",
"m  c #8EA6B3",
"M  c #8DA8B3",
"N  c #8EA7B8",
"B  c #91A6B3",
"V  c #9AA5B6",
"C  c #93A9B3",
"Z  c #9AACB5",
"A  c #9BA6B8",
"S  c #97AAB8",
"D  c #9CAEB9",
"F  c #96B1B6",
"G  c #9FB0B7",
"H  c #9CB2BA",
"J  c #9CB8BC",
"K  c #A6AAB6",
"L  c #A0ACBC",
"P  c #A2B4BC",
"I  c #A9B3BC",
"U  c #A5B6C1",
"Y  c #ABB4C2",
"T  c #A5BCC3",
"R  c #ABBCC4",
"E  c #ADBDC9",
"W  c #B2BDC5",
"Q  c #B2BECB",
"!  c #ACC3C9",
"~  c #AECACE",
"^  c #B4C4CC",
"/  c #BAC4CE",
"(  c #B3C9CF",
")  c #BAC9CF",
"_  c #B5C6D0",
"`  c #BAC6D1",
"'  c #B5CBD2",
"]  c #BBCBD3",
"[  c #B5D1D5",
"{  c #B9D0D6",
"}  c #BDD1D8",
"|  c #C1C7D5",
" . c #C1CBD5",
".. c #C1CAD9",
"X. c #C7D1DB",
/* pixels */
"; , $ X X X X X . . O O O O . . = = = = = = = = - - - = * + o o . . . . O @ . . O @ O   + $ $ $ ",
": 3 1 $ , ; $ ; > : & & & * * = 2 2 2 2 > 2 2 2 - 2 - - - * * # = & & & & = = > & = = $ ; < 1 < ",
"K / | | | | / / Q Y A j j j V A j j N N j B j z B V B S V V m g V V V j j A Y Q ` ` / Q /  . ./ ",
"h Y | W / | / / ..Q L j j V B j N B B B B B S S m m B V B B S B B V V j j L E ` ` ] ` / ^ ) / ! ",
"b / X.] Q ` ` ] Q U V m j B g f B B m z m m m z g m m m m m B B g j B B M N J ~ _ _ ( ^ ^ ] ' / ",
"d ^ / P K A V A D Z B V S S N m g m m m m g m l S C B M B C B B S N V N M N N ~ B B n C H R ^ ! ",
"d ^ ] P v v v n z z g z m g m l B M C M B M C M m z l m m l m m g m m m m l u u n n C C H ! ' [ ",
"i ^ ] P v z n B M C N m m m N M m N M M m m N m l m l m m m m m m m m m C M F M z x z z F ! ~ ( ",
"d ^ ] H z z z x z z M M M M M M M M M M M M M M M M M M M M M M N M F M M N M M u F F M F ! ~ ! ",
"n ' } P C n x z x C M M M M N M M M M M M M M M M M M M M M M M M M M M J u M M F J u u F ~ [ ~ ",
"x ( ' P C n z z m n M M M M M M l M M M M M M M M M M M M M l M N M u N N M M M u J x x F ! ~ ~ ",
"i P I C z x x n m M C M M M M N M M M M M M M M M M M M M M M M N N J M M M M M u F F u x F J J ",
"e n Z k v n z n x m M M M M M m M M M M m M m M B M M M M M M M N u J M M N u M J F u F k x x x ",
"e c n k z v z z n B B M M M m M M M m m C M N C C M B m M M m M N J N N M N J M u J J u k x x x ",
"r n n v n n j n m m m m B m m B m B N B B B B B m B B B C B N B u J N J F M J F J u M M x x x n ",
"r k v k n n z B z C C m C m B m B B B m B m B B m B B m m B B B N N N u N M u N M F u F z l k z ",
"e z B v B j z S B B m M M M M B B m B B B B B B B M N B B B B B B C m B B B B B B M B B m B C m ",
"y g S B B B m N M M M M M M M M C m B B B m m B B B m B B B m B m B m B B m B M B B B B B B m B ",
"s B B j S B g B C m C m M M M M B B m B B B B B B B m m B m B B B B B B B N B B B m B B B B B B ",
"f S B g B S m B C m M M M M M M B m B B B m C B B B B C B m C B B m B B B B B B m C B m m B B B ",
"f B B g V B m B m B M M M M C M C m B B m B m N B B B m B B B m m m N B B m B m B B B B B B B B ",
"a B V g B S m B m M M M M M M M N m B B m C B B m B m C m B B B C B B B B B B m B B m m B m N m ",
"u g B m B B m C m C M M M m M M B B B m B B B B B B B B B B B B B B M B B B B C m B m C B B B m ",
"t g V B B m g S M B M M M M M M B B B B m B m B B B B B B N B M B B B B B m B B B B B B B m B C ",
"N g j B B B B g M B M M M M M M m B B m B B m C m B B B B m B C m m B m B B B B m B m m B M B B ",
"j B B B B B m B m m M M M M M M B m C B m B m B C B B B B B B m C B B B m B B B B B B C B B B B ",
"B B B j B B B B m C M M M C M M B B B B B B m B m B B B B m m B B B B B B B M N B B B B N B M B ",
"B S B B j g m B m C M M M M M M m B B N B B B B m B m N B B B B m B B B B B B B m B B B B B B B ",
"B B B B m m m N M B M M M M M M B m B B B B B B m B m m B B C m m m B B B m B m B M B B B B B B ",
"g g V B j g m S m m M M M M M M B B m C m B m B B B B C m B N m C B N B B B B B B B B B m B m B ",
"s g B V j m g B m C M M C m M M N m m B C m B B B B B B B B B B B B B B C m B B C B B B B B B B ",
"a f m S m g m m M M M M N m M B B B B B B B N B B m B m B B B B m m m B N m B m B B N m m m C m ",
"y f B v m m m m M M M M N N N N m B B m B B N B B B B B m m B m m N M M N M m m m m m m z g z B ",
"s g B B n M l z M M M M N M N N B m B B m B m B B B m B m m B m N N N N N N m M m m m B B v B C ",
"h v B j z l m l M N M M N M N M N m M M C M m m C m M C m M N M N M M N m M B B m z m B n B n v ",
"v n v g l m M x M l N M N N N M m M M M m M C M m M m M m m N M M N N M M N m M m m z g v B n d ",
"L D Z B z B M M M M M N m m N B M M M M M M M m M M M M M M M M N N M N m m m m m B B v B L P Z ",
"W Q R P C z m x M M m m m m N B M M M M M M M M M M M M M M M M M M m M m m C M g z v n D ! ^ R ",
"^ / ^ U C z z M M M m M m B B B M M M M M M M M M M M M M M M M M N N m m m B B z B v z H _ } ' ",
"R / _ U n d z M M M m m B B S N M l M M M M M m M M M M M M M M N M m m C m m B n C n g D ! ] ^ ",
"I ) ^ G C n z z m M C M z g z B m m m m l m z m m m l m l m m m M m g z B C n z B V n c G ^ ] ^ ",
"^  .^ P Z n k x l M M C B B B S N m m M M M m m m M M m M m m B C m m B B B v z c v v v G ^ ] ( ",
"I  .) P Z n x n C x z z n B B j m m B m m m m m m m m m m m m m m B B z v z n C n C n n K ! ) ^ ",
"b I ) ! I P H ! ! F B z z B j m g m j m m z B m m z j m m m j m m m B z g n H U U R I P I ^ ) ^ ",
"c W X. .) ) ( { ' ! Z n v S B v V B V B V B B V B S B B j V B B B B B n n C ! ]  .{ ) ) ( ] ] ) ",
"h I ) ) ) ) ! ( ' T C z g v v j g g g m m j g g j z j j j g g B g z z g k n P ^ ( ^ ^ ! ) ^ ^ ) ",
"w h c p k k k k l p u r r y y y y y y y y y y y y y y y i y r r t t e e e r i d d p d k h d h h ",
"4 9 9 5 6 0 6 0 6 6 8 0 q q 8 8 q q q q q q q q q q q q q q 8 9 8 6 8 8 6 6 6 6 7 7 7 9 9 7 7 7 "
};
