/* XPM */
static char *a849717bda634386fcfa15009ff71ff9oCI5XMoykesRcnTw[] = {
/* columns rows colors chars-per-pixel */
"48 48 255 2 ",
"   c #010302",
".  c #090203",
"X  c #000A01",
"o  c #01030C",
"O  c #050B09",
"+  c #160602",
"@  c #011402",
"#  c #011607",
"$  c #010412",
"%  c #010A13",
"&  c #010B1A",
"*  c #06081A",
"=  c #071517",
"-  c #181310",
";  c #030625",
":  c #031628",
">  c #181F2A",
",  c #171B35",
"<  c #0E112E",
"1  c #072529",
"2  c #192428",
"3  c #1B2233",
"4  c #17293A",
"5  c #153528",
"6  c #25293B",
"7  c #2A333E",
"8  c #2A363C",
"9  c #363838",
"0  c #362B29",
"q  c #15191B",
"w  c #433B38",
"e  c #4A3E2E",
"r  c #14502C",
"t  c #37553E",
"y  c #265339",
"u  c #187338",
"i  c #256836",
"p  c #434B3A",
"a  c #191840",
"s  c #201841",
"d  c #193847",
"f  c #1B2E52",
"g  c #272D45",
"h  c #2C3443",
"j  c #2E3946",
"k  c #333749",
"l  c #293856",
"z  c #353952",
"x  c #273962",
"c  c #1A4E43",
"v  c #274A4B",
"b  c #37454A",
"n  c #3A4256",
"m  c #3B575A",
"M  c #2E544C",
"N  c #336748",
"B  c #2F6F52",
"V  c #344C6A",
"C  c #357465",
"Z  c #4A5848",
"A  c #4A5954",
"S  c #565457",
"D  c #524D45",
"F  c #645250",
"G  c #4D6652",
"H  c #62685C",
"J  c #565864",
"K  c #465964",
"L  c #48656A",
"P  c #55676D",
"I  c #596976",
"U  c #597579",
"Y  c #526E72",
"T  c #6A6C7A",
"R  c #64747C",
"E  c #69767B",
"W  c #6F7070",
"Q  c #3B975C",
"!  c #378A51",
"~  c #39866A",
"^  c #38916E",
"/  c #3DA671",
"(  c #2D914F",
")  c #4D825B",
"_  c #469959",
"`  c #47A55C",
"'  c #53AB5D",
"]  c #4A8B69",
"[  c #4B9C66",
"{  c #55986A",
"}  c #558B71",
"|  c #5A9977",
" . c #4E9275",
".. c #698C74",
"X. c #49A767",
"o. c #56A46A",
"O. c #48A676",
"+. c #58A576",
"@. c #51B474",
"#. c #64A57A",
"$. c #61B174",
"%. c #B9957B",
"&. c #C3A37D",
"*. c #517783",
"=. c #697585",
"-. c #737C87",
";. c #767C92",
":. c #6F7387",
">. c #897A8D",
",. c #6B8385",
"<. c #76878C",
"1. c #7D8B9B",
"2. c #778A97",
"3. c #7B9799",
"4. c #6F978F",
"5. c #56AF87",
"6. c #6EB18F",
"7. c #7B8EA2",
"8. c #7C99A8",
"9. c #73B9A7",
"0. c #519D81",
"q. c #79C4AE",
"w. c #82868B",
"e. c #868B97",
"r. c #879799",
"t. c #969A9B",
"y. c #8A9089",
"u. c #A89B92",
"i. c #B89896",
"p. c #8BA59A",
"a. c #98A49C",
"s. c #8BA58C",
"d. c #A7A89A",
"f. c #ADA997",
"g. c #8B94A4",
"h. c #849BA5",
"j. c #8D9CA4",
"k. c #849DAA",
"l. c #8C9DAC",
"z. c #8693A6",
"x. c #929DA5",
"c. c #949DAD",
"v. c #9C9EAE",
"b. c #9998A4",
"n. c #8B9EB3",
"m. c #869DB3",
"M. c #989EB3",
"N. c #858FAA",
"B. c #8CA2A5",
"V. c #85A3AC",
"C. c #8CA5AD",
"Z. c #8DA9AE",
"A. c #89A8A4",
"S. c #94A3A5",
"D. c #9BA4A3",
"F. c #93A4AD",
"G. c #9CA4AB",
"H. c #92AAAC",
"J. c #9BABAC",
"K. c #9AAAA5",
"L. c #9AB1A9",
"P. c #86A4B3",
"I. c #8CA4B3",
"U. c #85ACB2",
"Y. c #8BA9B3",
"T. c #8CA5BA",
"R. c #8CABBA",
"E. c #87ABB9",
"W. c #93A4B3",
"Q. c #9AA4B4",
"!. c #93AAB3",
"~. c #9BACB4",
"^. c #93A5BA",
"/. c #94ACBA",
"(. c #9BADBB",
"). c #9DA5BA",
"_. c #8AB5B5",
"`. c #95B2B6",
"'. c #9CB2B5",
"]. c #94B3BC",
"[. c #9BB3BA",
"{. c #9CB8BC",
"}. c #A6A7A8",
"|. c #A6B1AC",
" X c #B6B7A9",
".X c #A3A3B4",
"XX c #A3ABB3",
"oX c #A4ABBB",
"OX c #A4B4BB",
"+X c #AAB4BC",
"@X c #A4B5B8",
"#X c #B2AFB1",
"$X c #A49EAC",
"%X c #C6A59B",
"&X c #D1AD93",
"*X c #C6B7A7",
"=X c #CAB3AF",
"-X c #E4B69C",
";X c #90C7B5",
":X c #B8C7B8",
">X c #D5CDB6",
",X c #EDD6BE",
"<X c #FBD9B8",
"1X c #EACEB0",
"2X c #F9E2B9",
"3X c #E9CA9B",
"4X c #94ACC1",
"5X c #9DACC2",
"6X c #8EB1C3",
"7X c #9BB6C4",
"8X c #8EAFC2",
"9X c #A6ACC2",
"0X c #A3BCC4",
"qX c #ABBBC4",
"wX c #ABBCCA",
"eX c #A7B6C6",
"rX c #B6BCC7",
"tX c #ABB7D1",
"yX c #C0BCCB",
"uX c #ABC4C9",
"iX c #ABC7CC",
"pX c #B4C4CC",
"aX c #BAC5CC",
"sX c #B4C8CF",
"dX c #BAC6CA",
"fX c #BAC4D2",
"gX c #BBCBD3",
"hX c #B6CBD3",
"jX c #BAD2D4",
"kX c #A6CFD1",
"lX c #C2CACC",
"zX c #C1CBD5",
"xX c #C5C9D4",
"cX c #CDD3CE",
"vX c #F9DACA",
"bX c #E4DCD8",
"nX c #F9D5D7",
"mX c #ECD3C9",
"MX c #FAE6C7",
"NX c #F7E6D7",
"BX c #F2EDD0",
"VX c #D8DAE8",
"CX c #EDD7E3",
"ZX c #C9FAF8",
"AX c #DAFDFF",
"SX c #D4E8ED",
"DX c #E8E4E7",
"FX c #EFF8E4",
"GX c #E8E7F9",
"HX c #EAFAFB",
"JX c #FFF4FD",
"KX c #FDFDFD",
"LX c #F9FBF6",
"PX c #FCEDEE",
"IX c #D1E5DA",
/* pixels */
"k z h 2 2 2 > 2 > 3 3 3 3 3 2 2 9 w 9 2 M d d d l z z k g 6 3 3 , , , 3 3 3 3 3 3 3 3 3 6 7 h 7 ",
"k n b 8 9 9 8 7 k k h g g 7 7 8 0 D 9 b M c m v z z z z k h g 4 h h g 6 g h h k 7 h 7 7 h b b b ",
"oXfXzXaXlXlXdXaXrXeX).M.c.Q.Q.G.f.u.t.K.r.H.V.I.Q.Q..X.X.XQ.F.F.Q.Q.Q.c.c.Q.eXrXaXfXfXpXaXgXzXgX",
"l.wXaXpXaXdXaXaXgXtX5X^.W.W.F.D.. +   -   H.B.[.c.M.M.M.Q.Q.F.F.Q.W.W.Q.Q.).wXgXgXgXfXpXpXfXaXpX",
"Q.fXzXaXaXdXaXgXwXeX^.n.I.W.C.t.  W d.G # r.'.H.F.c.v.v.v.F.F.F.l.W.W.F.l.W.OXwXsXfXpXpXsXgXhXsX",
"l.rXfX+XJ.J.J.~.5X5X^.^.^./.!.S.. *X. cX  L.3.B.!.Q.Q.Q.Q.W.W.!.!././.!.W.!.!.(.W.!.!.!.[.qXuXuX",
"c.fXzXOXS.S.F.W.n.n.T.T.I.I.C.S. X      t.@XH.'.C.C.I.I.I.I.I.I.I.I.I.I.C.C.C.C.C.!.!.!.[.uXhXhX",
"g.rXzXOXS.S.F.!.^.R.T.T.T.I.C.H.t.}.  |.K.S.H.k.I.T.T.T.T.T.Y.Y.T.I.I.I.!.!.!.!.C.C.C.C.`.0XsXsX",
"c.fXgX@XS.S.C.I.T.T.T.T.I.k.'.p.r.J.o o & % C.I.P.E.8.8X6X8X8.7XP.k.0X3.C./.Y.Y.Z.!.Z.V.`.iXsXiX",
"Q.gXzXOXH.F.Z.I.T.T.T.T./.'.J.B.'.!.o uXk.h.4 k.: & : & 8.6X2.R.wXI.k.0X/.I./.h.Z.Y.C.Z.`.iXjXsX",
"Q.fXgX@X!.!.Z.I.P.4X4XI.h.S.y.L.3.% $ L (.wX% & V m *.*.& : 7XP.8.I.8.V.Y.I.I./.Z.Z.Z.Z.`.iXsXuX",
"z.9XeX!.C.Z.Y.Y.4XP.h.l.@Xa.X   % & 1 K I $ P L U L E.].C v % /.7X].uXV.I.Y.V.Y.C.Y.Z.V.Z.[.{.[.",
"1.Q.(.C.C.C.Z.Y.V.!.!.F.a.a.@ Z o 7X2.% & J +X+X!.uXL `.{.<.c.o h.V.I.0XV.Y.[.h.Y.Y.Z.V.C.Z.Z.Z.",
"1.W.W.C.C.Z.V.Y.!.I.F.S.K.d.  G X L zXo J J }.+XL.'.P H.U b XXrX$ 0X2./.k./.]./.C.C.Z.Z.C.Z.Z.Z.",
"7.W.W.C.C.Y.V.Y.Y.!.'.D.y.u.. cX# m K o o rX#XDXFXcXIXIX:XKXbXDXo T.[.I.!.!.k.[.C.C.C.Z.Z.C.C.H.",
"7.n.W.C.!.!.Z.Y.!.V.C.K.a.d.  :XX '.O   DX. PXS A W LXLXFXcXLXH I $ I././.k./.C.C.C.C.F.C.V.V.Z.",
"2.n.W.W.W.F.C.!.R.8.{.p.p.s.X H X ..  BXf.NX}.VXXXO . . *Xf.  O % g.l.7Xm.4XP./.W.F.W.F.W.W.T.Y.",
"7.I.W.F.Q.F.F.!./.8.Y._.H.L.@ Z @ s.@ BX>XW #XGXGXt.=X+ ,XNX  G.o +Xl.l.4XT.T.m.!.W.F.F.Q.!.T.T.",
"8.T.W.c.Q.W.F.!./.E.V.`.3.p.@ N } @ X X BX X@XVX:.KXJX+ nXnX- JXo XXW.I.^.T.4Xn.!.W.F.F.W.W.T.T.",
"k.!.W.l.Q.Q.W.!.T.E.V.`.H.K.X Z | } } FXX a.S.(.;.:.=Xi.nXJXJX>.= 2.(.7X8.4XT.^.!.W.F.F.W.W.T.T.",
"h.!.W.l.Q.Q.W.!.P.R.R.V.V.S.X ..} } @ X W # H.HXSXGXJXJXnXnXCXGX  H.C.7X8.^.n.^.!.W.F.F.W.W.!.T.",
"8.I.!.F.W.Q.W.!.7Xm.8.8.0XK.    X @ X G t ..L V.AXHXVXDXPXKXGXHXo jXr.C.5XI.^.^.!.W.F.F.W.W.!.^.",
"7.I.W.W.W.W.I.^.8.R.7X!.r.G.D.d.  f.>Xe w D ,.U _.ZX0XHXHXSXkXM = 4.p.j.wXn.^.^.!.W.Z.C.W.W.!.^.",
"2.l.W.W.W.W.C.^.7XT.m.(.F.}.d.  mXvX%X=XD W A c C _._.ZXAX;X9.6.c @ H.H.W.c.l.^.!.!.Y.Z.I.W.!.^.",
"I.I.W.W.F.W.W.I.^.T.P.9Xr.b.- u.MX<XvX&X%XD 4.} c ~ 9.ZXZX~ ^ 5.] Y X H.~.c.9Xl.!.Y.Y.Z.Y.!.!.^.",
"I.W.W.W.F.W.W.T.I./.T.h.+X  cXNX%.-XvXvXi.p ..#.O.^ B q.9.5./ O.] y ;XX x.~.z.eX!.I.Y.Z.Y.!.Q.^.",
"^.^.!.W.F.W.W.T.k.I.(.OXw.. NX*XMX1X<XNX=XZ ) +.+.5. .C q.^ O.X.6.) N # j.Q.9Xz.!.Y.Y.Z.I.!.Q.Q.",
"^.^.W.W.F.F.F.W./.I.j.XX- u.NX1X2X1XMXvX Xt B Q ( 5.~ ;XB 6.[ [ ! { y p.O b.oXQ.!.Y.U.U.Y.W.Q.Q.",
"^.^.W.W.F.F.F.!.k.0Xj.r.  =XPXMX1XMX,Xf.Z t i u ( / 0.B 9.] o.o.$.i N p.% .X9Xz.!.Y.U.U.Y.W.Q.Q.",
"n.I.W.W.F.C.F.H.k.!.~.a.+ >X,X1X2XMX%X=X9 A r u Q O.~ 9.C 6.[ X.` $.r :X  v.e.eXT.Y.U.U.Y.W.Q.Q.",
"m.n.Q.W.F.C.C.Z.OXh.S.}.. BX,XBX&.&X%X=XS M r X./ O.q. .q. .X.X._ o.6.y o v..XM.!.Y.U.U.Y.W.Q.M.",
"z.l.W.W.W.C.C.I.Z.C.j.|.   XvX<XMX1X%XF w A | [ X.O.O.] 0.5.@.` X.{ ) t o b.v.M.!.Y.U.U.Y.!.Q.Q.",
"1.h.W.W.I.I.Y.T.R.I.F.XXb.  PX%X<X<X<XF w A ..{ [ X.` ` ` ` X.X._ o...t |.  $Xv.Q.W.Z.Y.Z.C.F.F.",
"r.x.F.W.I.T.P.P.R.I.!.j.XX. bXmX&X3XMXmX  b L | +._ ' ` @.X.Q O.o.{ } X :X  #Xb.v.W.C.Z.Z.Z.Z.H.",
"x.F.F.C.Z.T.P.P./.7.wXr.XXt.  mX1XBXNXDXDX& v v M N [ ! +.| ] | ] #.N # D.  b..Xc.W.I.Z.Z.Z.S.B.",
"S.F.F.l.C.Y.Y.E.P.7Xk.F.XXt.    + >XbXxXwX4 d : # r N N } 4.4.4.B y #     XXXXc.W.T.I.Z.C.H.S.B.",
"XXXX~.F.C.Y.T.Y.].2.7X!.r.+X= }. X  lXrXtX; f l d M 1 1 1 1 : % 1 5 X   dX-.Q.(.C.Y.Z.Z.!.'.'.J.",
"rXpXqX@XW.I.Y.Y.V.R.Z.!.H.+X  KXKX  h ; a x V x V : % % : < a , o 2 = S.g.qXW.2.V.Y.Y.Z.`.uXpXrX",
"rXaXaXeX!.Z.I.Y.].Y.7X2.!.r.= o   o n z l V x f l ; , * ; ; a , 3 = o qXg.l.(.].P.Y.Y.Z.[.pXgXdX",
"rXaXaXOXF.V.Z.Y.V.].3.`.`.H.B.J.D.o T ;.g f V x l ; N.; ; < s < < $ G.F.).C.8.].Y.Y.Y.V.!.pXgXaX",
"rXzXpX~.~.!.Z.Z.V.Y.Y.Y.C.B.C.S.t.}.  > :.;.n g $ eXz.& * * , < 6 $ b.oXW.I.7X8.Y.R.Y.C.~.sXgXaX",
"rXzXaX@X~.F.V.Z.Z.Y.Y.Y.C.C.C.S.}.y.. S J * ;.-.& l.oX$ $ & h J $ rX2.Q.h./.R.R.V.I.C.C.~.pXgXaX",
"+XaXaX+X~.H.C.!.!.Y.Z.Z.Y.Z.I.F.}.+ }.cX}.J = % x.F.F.o > j 2 = * b.+X~.!.V.8.Y.Y.!.W.F.oXpXgXpX",
"S.rXaXqXqXOX{.0X0X[.Y.C.C.W.W.F.b.  H H S A 2   ~.S.~.= o 2 8 P k * c.1.C.C.`.0X0XqXqX+XqXpXsXpX",
"x.rXzXgXgXgXsXjXhXwX(.W.W.W.W.F.XXt.y.t.D.D.@Xr.F.x.XXj.x.+XD.r.oXXXW.~.V.[.iXuXzXxXxXxXfXgXhXhX",
"x.qXaXsXaXsXpXsXsXqX!.F.C.W.Q.c.g.G.@Xt.t.J.-.+XF.Q.j.Q.e.S.K.K.e.OX<.C.3.A.iXsXaXyXyXyXrXpXpXiX",
"<.j.S.j.x.B.j.j.j.h.1.1.1.1.1.1.<.z.,.2.3.<.,.r.<.2.e.g.e.w.w.w.e.E r.3.4.,.2.r.b.b.b.b.b.j.k.V.",
"P E R I R R R R R R R =.=.=.=.=.;.I U =.U U =.P =.I :.T -.E T W I E U L U U Y E T T T T T R U *."
};
