/* XPM */
static char *wall__1_1740383893[] = {
/* columns rows colors chars-per-pixel */
"48 48 121 2 ",
"   c white",
".  c #516070",
"X  c #405062",
"o  c #687483",
"O  c #38485B",
"+  c #25374C",
"@  c #526171",
"#  c #536172",
"$  c #4D5C6D",
"%  c #637991",
"&  c #657C94",
"*  c #55708D",
"=  c #516D8B",
"-  c #5F7791",
";  c #5C7590",
":  c #58728E",
">  c #60768D",
",  c #2B3C51",
"<  c #6D859D",
"1  c #748CA5",
"2  c #607D9B",
"3  c #5B7999",
"4  c #6C86A1",
"5  c #6984A0",
"6  c #637F9D",
"7  c #647A93",
"8  c #455567",
"9  c #5A6877",
"0  c #60778F",
"q  c #61778F",
"w  c #617D9B",
"e  c #617E9C",
"r  c #5C7A9A",
"t  c #5F7C9B",
"y  c #5E7C9B",
"u  c #5D7B9A",
"i  c #617C99",
"p  c #60758B",
"a  c #596676",
"s  c #728AA2",
"d  c #687F98",
"f  c #24354A",
"g  c #617D9A",
"h  c #5C7A99",
"j  c #5D7A9A",
"k  c #5A7491",
"l  c #597797",
"z  c #536F8E",
"x  c #24364B",
"c  c #223245",
"v  c #607C9A",
"b  c #627E9C",
"n  c #5C7999",
"m  c #597390",
"M  c #192533",
"N  c #7189A2",
"B  c #677D94",
"V  c #627991",
"C  c #647B94",
"Z  c #617D9C",
"A  c #5E7B9B",
"S  c #627E9B",
"D  c #677F99",
"F  c #5B728A",
"G  c #2B4058",
"H  c #2C4159",
"J  c #6E859E",
"K  c #68809A",
"L  c #395472",
"P  c #344D69",
"I  c #657B92",
"U  c #698099",
"Y  c #69819A",
"T  c #597593",
"R  c #547190",
"E  c #627C97",
"W  c #607A96",
"Q  c #5B7694",
"!  c #5C738B",
"~  c #1B2736",
"^  c #2F455F",
"/  c #334B66",
"(  c #2C4158",
")  c #202F40",
"_  c #1D2A3A",
"`  c #1B2837",
"'  c #2F465F",
"]  c #354D68",
"[  c #37506C",
"{  c #364E69",
"}  c #2D425A",
"|  c #1C2A3A",
" . c #223345",
".. c #324A64",
"X. c #455F7D",
"o. c #4C6785",
"O. c #354D69",
"+. c #25303D",
"@. c #2B3F56",
"#. c #2B4057",
"$. c #344C67",
"%. c #445E7B",
"&. c #597796",
"*. c #4A6684",
"=. c #395471",
"-. c #37526F",
";. c #354C67",
":. c #1F2B39",
">. c #2A3F56",
",. c #53708F",
"<. c #3E5773",
"1. c #324A65",
"2. c #3B4551",
"3. c #F9F9F9",
"4. c #2E3945",
"5. c #1A2634",
"6. c #1A2635",
"7. c #48515D",
"8. c gray98",
"9. c #2D3845",
"0. c #49525D",
/* pixels */
"          . X X X X X X X X X X X X X X X X X X X X X X X X X X X X X X X X X X X o             ",
"          O + + + + + + + + + + + + + + + + + + + + + + + + + + + + + + + + + + + @             ",
"          O + + + + + + + + + + + + + + + + + + + + + + + + + + + + + + + + + + + @             ",
"    # $ $ % & & & & & * = = = = = - & & & & & & & & & & & ; = = = = = : & & & & & > $ $ o       ",
"    , + + < 1 1 1 1 1 2 3 3 3 3 3 4 1 1 1 1 1 1 1 1 1 1 1 5 3 3 3 3 3 6 1 1 1 1 1 7 + + 8       ",
"    , + + < 1 1 1 1 1 2 3 3 3 3 3 4 1 1 1 1 1 1 1 1 1 1 1 5 3 3 3 3 3 6 1 1 1 1 1 7 + + 8       ",
"9 9 0 q q w e e e e e r 3 3 3 3 3 t e e e e e e e e e e e y 3 3 3 3 3 u e e e e e i q q p 9 9 a ",
"+ + s 1 1 u 3 3 3 3 3 3 3 3 3 3 3 3 3 3 3 3 3 3 3 3 3 3 3 3 3 3 3 3 3 3 3 3 3 3 3 2 1 1 d + + f ",
"+ + s 1 1 u 3 3 3 3 3 3 3 3 3 3 3 3 3 3 3 3 3 3 3 3 3 3 3 3 3 3 3 3 3 3 3 3 3 3 3 2 1 1 d + + f ",
"+ + g 6 6 h 3 3 3 3 3 3 3 3 3 3 3 3 3 3 3 3 3 3 3 3 3 3 3 3 3 3 3 3 3 3 3 3 3 3 3 j 6 6 k + + f ",
"+ + l 3 3 3 3 3 3 3 3 3 3 3 3 3 3 3 3 3 3 3 3 3 3 3 3 3 3 3 3 3 3 3 3 3 3 3 3 3 3 3 3 3 z + + f ",
"+ + l 3 3 3 3 3 3 3 3 3 3 3 3 3 3 3 3 3 3 3 3 3 3 3 3 3 3 3 3 3 3 3 3 3 3 3 3 3 3 3 3 3 z + + f ",
"+ + l 3 3 3 3 3 3 3 3 3 3 3 3 3 3 3 3 3 3 3 3 3 3 3 3 3 3 3 3 3 3 3 3 3 3 3 3 3 3 3 3 3 z + + f ",
"+ + l 3 3 3 3 3 3 3 3 3 3 3 3 3 3 3 3 3 3 3 3 3 3 3 3 3 3 3 3 3 3 3 3 3 3 3 3 3 3 3 3 3 z + + f ",
"+ + l 3 3 3 3 3 3 3 3 3 3 3 3 3 3 3 3 3 3 3 3 3 3 3 3 3 3 3 3 3 3 3 3 3 3 3 3 3 3 3 3 3 z + + f ",
"+ + l 3 3 3 3 3 3 3 3 3 3 3 3 3 3 3 3 3 3 3 3 3 3 3 3 3 3 3 3 3 3 3 3 3 3 3 3 3 3 3 3 3 z + + f ",
"+ + l 3 3 3 3 3 3 3 3 3 3 3 3 3 3 3 3 3 3 3 3 3 3 3 3 3 3 3 3 3 3 3 3 3 3 3 3 3 3 3 3 3 z + + f ",
"+ + l 3 3 3 3 3 3 3 3 3 3 3 3 3 3 3 3 3 3 3 3 3 3 3 3 3 3 3 3 3 3 3 3 3 3 3 3 3 3 3 3 3 z + + f ",
"+ + l 3 3 3 3 3 3 3 3 3 3 3 3 3 3 3 3 3 3 3 3 3 3 3 3 3 3 3 3 3 3 3 3 3 3 3 3 3 3 3 3 3 z + + x ",
"+ + l 3 3 3 3 3 3 3 3 3 3 3 3 3 3 3 3 3 3 3 3 3 3 3 3 3 3 3 3 3 3 3 3 3 3 3 3 3 3 3 3 3 z + + + ",
"+ + l 3 3 3 3 3 3 3 3 3 3 3 3 3 3 3 3 3 3 3 3 3 3 3 3 3 3 3 3 3 3 3 3 3 3 3 3 3 3 3 3 3 z + + + ",
"+ + l 3 3 3 3 3 3 3 3 3 3 3 3 3 3 3 3 3 3 3 3 3 3 3 3 3 3 3 3 3 3 3 3 3 3 3 3 3 3 3 3 3 z + + + ",
"+ + l 3 3 3 3 3 3 3 3 3 3 3 3 3 3 3 3 3 3 3 3 3 3 3 3 3 3 3 3 3 3 3 3 3 3 3 3 3 3 3 3 3 z + + + ",
"+ + l 3 3 3 3 3 3 3 3 3 3 3 3 3 3 3 3 3 3 3 3 3 3 3 3 3 3 3 3 3 3 3 3 3 3 3 3 3 3 3 3 3 z + + + ",
"+ + l 3 3 3 3 3 3 3 3 3 3 3 3 3 3 3 3 3 3 3 3 3 3 3 3 3 3 3 3 3 3 3 3 3 3 3 3 3 3 3 3 3 z + + + ",
"+ + l 3 3 3 3 3 3 3 3 3 3 3 3 3 3 3 3 3 3 3 3 3 3 3 3 3 3 3 3 3 3 3 3 3 3 3 3 3 3 3 3 3 z + + + ",
"+ + l 3 3 3 3 3 3 3 3 3 3 3 3 3 3 3 3 3 3 3 3 3 3 3 3 3 3 3 3 3 3 3 3 3 3 3 3 3 3 3 3 3 z + + + ",
"+ + l 3 3 3 3 3 3 3 3 3 3 3 3 3 3 3 3 3 3 3 3 3 3 3 3 3 3 3 3 3 3 3 3 3 3 3 3 3 3 3 3 3 z + + + ",
"+ + l 3 3 3 3 3 3 3 3 3 3 3 3 3 3 3 3 3 3 3 3 3 3 3 3 3 3 3 3 3 3 3 3 3 3 3 3 3 3 3 3 3 z + + + ",
"+ + l 3 3 3 3 3 3 3 3 3 3 3 3 3 3 3 3 3 3 3 3 3 3 3 3 3 3 3 3 3 3 3 3 3 3 3 3 3 3 3 3 3 z + + + ",
"c c v b b n 3 3 3 3 3 3 3 3 3 3 3 3 3 3 3 3 3 3 3 3 3 3 3 3 3 3 3 3 3 3 3 3 3 3 3 r b b m c c c ",
"M M N 1 1 u 3 3 3 3 3 3 3 3 3 3 3 3 3 3 3 3 3 3 3 3 3 3 3 3 3 3 3 3 3 3 3 3 3 3 3 2 1 1 B M M M ",
"M M N 1 1 u 3 3 3 3 3 3 3 3 3 3 3 3 3 3 3 3 3 3 3 3 3 3 3 3 3 3 3 3 3 3 3 3 3 3 3 2 1 1 B M M M ",
"M M V C C w Z Z Z Z Z r 3 3 3 3 3 t Z Z Z Z Z Z Z Z Z Z Z A 3 3 3 3 3 j Z Z Z Z Z S D D F M M M ",
"M M G H H J 1 1 1 1 1 2 3 3 3 3 3 4 1 1 1 1 1 1 1 1 1 1 1 5 3 3 3 3 3 6 1 1 1 1 1 K L L P M M M ",
"M M G H H J 1 1 1 1 1 2 3 3 3 3 3 4 1 1 1 1 1 1 1 1 1 1 1 5 3 3 3 3 3 6 1 1 1 1 1 K L L P M M M ",
"M M G H H > I I U Y Y T R R R R R E Y Y Y Y Y Y Y Y Y Y Y W R R R R R Q Y Y d I I ! L L P M M M ",
"M M G H H ~ M M ^ / / / / / / / / / / / / / / / / / / / / / / / / / / / / / ( M M ) L L P M M M ",
"M M G H H ~ M M ^ / / / / / / / / / / / / / / / / / / / / / / / / / / / / / ( M M ) L L P M M M ",
"M M G H H _ ` ` ' / / / / / / / / / / / / / / / / / / / / ] [ [ { / / / / / } | |  .L L P M M M ",
"M M G H H H H H ../ / / / / / / / / / / / / / / / / / / / X.3 3 o./ / / / / O.L L L L L P M M M ",
"M M G H H H H H ../ / / / / / / / / / / / / / / / / / / / X.3 3 o./ / / / / O.L L L L L P M M M ",
"+.+.@.#.#.H H H ../ / ] O.O.$./ / / / / / / / / / / / / / %.&.&.*./ / / / / O.L L =.-.-.;.+.+.+.",
"    :.M M >.H H ../ / ,.3 3 <./ / / / / / / / / / / / / / / / / / / / / / / O.L L 1.M M 2.      ",
"    :.M M >.H H ../ / ,.3 3 <./ / / / / / / / / / / / / / / / / / / / / / / O.L L 1.M M 2.      ",
"    :.M M >.H H ../ / ,.3 3 <./ / / / / / / / / / / / / / / / / / / / / / / O.L L 1.M M 2.      ",
"    3.3.3.4.5.5.5.5.5.~ ~ ~ 6.5.5.5.5.5.5.5.5.5.5.5.5.5.5.5.5.5.5.5.5.5.5.5.6.6.6.7.3.3.8.      ",
"          9.M M M M M M M M M M M M M M M M M M M M M M M M M M M M M M M M M M M 0.            "
};
